<svg width="1440" height="114" viewBox="0 0 1440 114" fill="none" xmlns="http://www.w3.org/2000/svg">
<g clip-path="url(#clip0_2035_150)">
<rect x="-45" width="1513" height="114" fill="#003C3C"/>
<path d="M527.065 70L518.945 45.5H523.67L530.915 67.655H528.57L536.095 45.5H540.295L547.61 67.655H545.335L552.755 45.5H557.095L548.975 70H544.145L537.46 50.015H538.72L531.93 70H527.065ZM567.765 70.245C565.689 70.245 563.869 69.8367 562.305 69.02C560.765 68.18 559.564 67.0367 558.7 65.59C557.86 64.1433 557.44 62.4983 557.44 60.655C557.44 58.7883 557.849 57.1433 558.665 55.72C559.505 54.2733 560.649 53.1417 562.095 52.325C563.565 51.5083 565.234 51.1 567.1 51.1C568.92 51.1 570.542 51.4967 571.965 52.29C573.389 53.0833 574.509 54.2033 575.325 55.65C576.142 57.0967 576.55 58.8 576.55 60.76C576.55 60.9467 576.539 61.1567 576.515 61.39C576.515 61.6233 576.504 61.845 576.48 62.055H560.905V59.15H574.17L572.455 60.06C572.479 58.9867 572.257 58.0417 571.79 57.225C571.324 56.4083 570.682 55.7667 569.865 55.3C569.072 54.8333 568.15 54.6 567.1 54.6C566.027 54.6 565.082 54.8333 564.265 55.3C563.472 55.7667 562.842 56.42 562.375 57.26C561.932 58.0767 561.71 59.045 561.71 60.165V60.865C561.71 61.985 561.967 62.9767 562.48 63.84C562.994 64.7033 563.717 65.3683 564.65 65.835C565.584 66.3017 566.657 66.535 567.87 66.535C568.92 66.535 569.865 66.3717 570.705 66.045C571.545 65.7183 572.292 65.205 572.945 64.505L575.29 67.2C574.45 68.18 573.389 68.9383 572.105 69.475C570.845 69.9883 569.399 70.245 567.765 70.245ZM579.632 54.635L581.662 46.865L582.257 49.49C581.44 49.49 580.752 49.2333 580.192 48.72C579.655 48.2067 579.387 47.5183 579.387 46.655C579.387 45.7917 579.655 45.1033 580.192 44.59C580.752 44.0533 581.429 43.785 582.222 43.785C583.039 43.785 583.715 44.0533 584.252 44.59C584.789 45.1267 585.057 45.815 585.057 46.655C585.057 46.9117 585.034 47.18 584.987 47.46C584.964 47.7167 584.894 48.02 584.777 48.37C584.684 48.6967 584.52 49.1283 584.287 49.665L582.467 54.635H579.632ZM589.332 70V44.03H593.707V70H589.332ZM599.449 70V44.03L603.824 44.03V70H599.449ZM616.194 70L627.219 45.5H631.699L642.759 70H637.999L628.514 47.915H630.334L620.884 70L616.194 70ZM621.269 64.33L622.494 60.76H635.724L636.949 64.33H621.269ZM656.06 51.1C657.553 51.1 658.883 51.3917 660.05 51.975C661.24 52.5583 662.173 53.4567 662.85 54.67C663.527 55.86 663.865 57.4 663.865 59.29V70H659.49V59.85C659.49 58.1933 659.093 56.9567 658.3 56.14C657.53 55.3233 656.445 54.915 655.045 54.915C654.018 54.915 653.108 55.125 652.315 55.545C651.522 55.965 650.903 56.595 650.46 57.435C650.04 58.2517 649.83 59.29 649.83 60.55V70H645.455V51.31H649.62V56.35L648.885 54.81C649.538 53.62 650.483 52.71 651.72 52.08C652.98 51.4267 654.427 51.1 656.06 51.1ZM680.02 51.1C681.513 51.1 682.843 51.3917 684.01 51.975C685.2 52.5583 686.133 53.4567 686.81 54.67C687.487 55.86 687.825 57.4 687.825 59.29V70L683.45 70V59.85C683.45 58.1933 683.053 56.9567 682.26 56.14C681.49 55.3233 680.405 54.915 679.005 54.915C677.978 54.915 677.068 55.125 676.275 55.545C675.482 55.965 674.863 56.595 674.42 57.435C674 58.2517 673.79 59.29 673.79 60.55V70H669.415V51.31H673.58V56.35L672.845 54.81C673.498 53.62 674.443 52.71 675.68 52.08C676.94 51.4267 678.387 51.1 680.02 51.1ZM701.809 70.245C699.896 70.245 698.192 69.8367 696.699 69.02C695.206 68.18 694.027 67.0367 693.164 65.59C692.301 64.1433 691.869 62.4983 691.869 60.655C691.869 58.7883 692.301 57.1433 693.164 55.72C694.027 54.2733 695.206 53.1417 696.699 52.325C698.192 51.5083 699.896 51.1 701.809 51.1C703.746 51.1 705.461 51.5083 706.954 52.325C708.471 53.1417 709.649 54.2617 710.489 55.685C711.352 57.1083 711.784 58.765 711.784 60.655C711.784 62.4983 711.352 64.1433 710.489 65.59C709.649 67.0367 708.471 68.18 706.954 69.02C705.461 69.8367 703.746 70.245 701.809 70.245ZM701.809 66.5C702.882 66.5 703.839 66.2667 704.679 65.8C705.519 65.3333 706.172 64.6567 706.639 63.77C707.129 62.8833 707.374 61.845 707.374 60.655C707.374 59.4417 707.129 58.4033 706.639 57.54C706.172 56.6533 705.519 55.9767 704.679 55.51C703.839 55.0433 702.894 54.81 701.844 54.81C700.771 54.81 699.814 55.0433 698.974 55.51C698.157 55.9767 697.504 56.6533 697.014 57.54C696.524 58.4033 696.279 59.4417 696.279 60.655C696.279 61.845 696.524 62.8833 697.014 63.77C697.504 64.6567 698.157 65.3333 698.974 65.8C699.814 66.2667 700.759 66.5 701.809 66.5ZM723.878 70.245C722.291 70.245 720.891 69.9533 719.678 69.37C718.464 68.7633 717.519 67.8533 716.843 66.64C716.166 65.4033 715.828 63.8517 715.828 61.985V51.31H720.203V61.39C720.203 63.07 720.576 64.33 721.323 65.17C722.093 65.9867 723.178 66.395 724.578 66.395C725.604 66.395 726.491 66.185 727.238 65.765C728.008 65.345 728.603 64.715 729.023 63.875C729.466 63.035 729.688 61.9967 729.688 60.76V51.31H734.063V70H729.898V64.96L730.633 66.5C730.003 67.7133 729.081 68.6467 727.868 69.3C726.654 69.93 725.324 70.245 723.878 70.245ZM750.396 51.1C751.889 51.1 753.219 51.3917 754.386 51.975C755.576 52.5583 756.509 53.4567 757.186 54.67C757.863 55.86 758.201 57.4 758.201 59.29V70H753.826V59.85C753.826 58.1933 753.429 56.9567 752.636 56.14C751.866 55.3233 750.781 54.915 749.381 54.915C748.354 54.915 747.444 55.125 746.651 55.545C745.858 55.965 745.239 56.595 744.796 57.435C744.376 58.2517 744.166 59.29 744.166 60.55V70H739.791V51.31H743.956V56.35L743.221 54.81C743.874 53.62 744.819 52.71 746.056 52.08C747.316 51.4267 748.763 51.1 750.396 51.1ZM772.36 70.245C770.4 70.245 768.65 69.8367 767.11 69.02C765.593 68.18 764.403 67.0367 763.54 65.59C762.677 64.1433 762.245 62.4983 762.245 60.655C762.245 58.7883 762.677 57.1433 763.54 55.72C764.403 54.2733 765.593 53.1417 767.11 52.325C768.65 51.5083 770.4 51.1 772.36 51.1C774.18 51.1 775.778 51.4733 777.155 52.22C778.555 52.9433 779.617 54.0167 780.34 55.44L776.98 57.4C776.42 56.5133 775.732 55.86 774.915 55.44C774.122 55.02 773.258 54.81 772.325 54.81C771.252 54.81 770.283 55.0433 769.42 55.51C768.557 55.9767 767.88 56.6533 767.39 57.54C766.9 58.4033 766.655 59.4417 766.655 60.655C766.655 61.8683 766.9 62.9183 767.39 63.805C767.88 64.6683 768.557 65.3333 769.42 65.8C770.283 66.2667 771.252 66.5 772.325 66.5C773.258 66.5 774.122 66.29 774.915 65.87C775.732 65.45 776.42 64.7967 776.98 63.91L780.34 65.87C779.617 67.27 778.555 68.355 777.155 69.125C775.778 69.8717 774.18 70.245 772.36 70.245ZM792.634 70.245C790.557 70.245 788.737 69.8367 787.174 69.02C785.634 68.18 784.432 67.0367 783.569 65.59C782.729 64.1433 782.309 62.4983 782.309 60.655C782.309 58.7883 782.717 57.1433 783.534 55.72C784.374 54.2733 785.517 53.1417 786.964 52.325C788.434 51.5083 790.102 51.1 791.969 51.1C793.789 51.1 795.41 51.4967 796.834 52.29C798.257 53.0833 799.377 54.2033 800.194 55.65C801.01 57.0967 801.419 58.8 801.419 60.76C801.419 60.9467 801.407 61.1567 801.384 61.39C801.384 61.6233 801.372 61.845 801.349 62.055H785.774V59.15H799.039L797.324 60.06C797.347 58.9867 797.125 58.0417 796.659 57.225C796.192 56.4083 795.55 55.7667 794.734 55.3C793.94 54.8333 793.019 54.6 791.969 54.6C790.895 54.6 789.95 54.8333 789.134 55.3C788.34 55.7667 787.71 56.42 787.244 57.26C786.8 58.0767 786.579 59.045 786.579 60.165V60.865C786.579 61.985 786.835 62.9767 787.349 63.84C787.862 64.7033 788.585 65.3683 789.519 65.835C790.452 66.3017 791.525 66.535 792.739 66.535C793.789 66.535 794.734 66.3717 795.574 66.045C796.414 65.7183 797.16 65.205 797.814 64.505L800.159 67.2C799.319 68.18 798.257 68.9383 796.974 69.475C795.714 69.9883 794.267 70.245 792.634 70.245ZM823.309 70.35C821.395 70.35 819.564 70.0817 817.814 69.545C816.064 68.985 814.675 68.2733 813.649 67.41L815.224 63.875C816.204 64.645 817.417 65.2867 818.864 65.8C820.31 66.3133 821.792 66.57 823.309 66.57C824.592 66.57 825.63 66.43 826.424 66.15C827.217 65.87 827.8 65.4967 828.174 65.03C828.547 64.54 828.734 63.9917 828.734 63.385C828.734 62.6383 828.465 62.0433 827.929 61.6C827.392 61.1333 826.692 60.7717 825.829 60.515C824.989 60.235 824.044 59.9783 822.994 59.745C821.967 59.5117 820.929 59.2433 819.879 58.94C818.852 58.6133 817.907 58.205 817.044 57.715C816.204 57.2017 815.515 56.525 814.979 55.685C814.442 54.845 814.174 53.7717 814.174 52.465C814.174 51.135 814.524 49.9217 815.224 48.825C815.947 47.705 817.032 46.8183 818.479 46.165C819.949 45.4883 821.804 45.15 824.044 45.15C825.514 45.15 826.972 45.3367 828.419 45.71C829.865 46.0833 831.125 46.62 832.199 47.32L830.764 50.855C829.667 50.2017 828.535 49.7233 827.369 49.42C826.202 49.0933 825.082 48.93 824.009 48.93C822.749 48.93 821.722 49.0817 820.929 49.385C820.159 49.6883 819.587 50.085 819.214 50.575C818.864 51.065 818.689 51.625 818.689 52.255C818.689 53.0017 818.945 53.6083 819.459 54.075C819.995 54.5183 820.684 54.8683 821.524 55.125C822.387 55.3817 823.344 55.6383 824.394 55.895C825.444 56.1283 826.482 56.3967 827.509 56.7C828.559 57.0033 829.504 57.4 830.344 57.89C831.207 58.38 831.895 59.045 832.409 59.885C832.945 60.725 833.214 61.7867 833.214 63.07C833.214 64.3767 832.852 65.59 832.129 66.71C831.429 67.8067 830.344 68.6933 828.874 69.37C827.404 70.0233 825.549 70.35 823.309 70.35ZM845.706 70.245C843.792 70.245 842.089 69.8367 840.596 69.02C839.102 68.18 837.924 67.0367 837.061 65.59C836.197 64.1433 835.766 62.4983 835.766 60.655C835.766 58.7883 836.197 57.1433 837.061 55.72C837.924 54.2733 839.102 53.1417 840.596 52.325C842.089 51.5083 843.792 51.1 845.706 51.1C847.642 51.1 849.357 51.5083 850.851 52.325C852.367 53.1417 853.546 54.2617 854.386 55.685C855.249 57.1083 855.681 58.765 855.681 60.655C855.681 62.4983 855.249 64.1433 854.386 65.59C853.546 67.0367 852.367 68.18 850.851 69.02C849.357 69.8367 847.642 70.245 845.706 70.245ZM845.706 66.5C846.779 66.5 847.736 66.2667 848.576 65.8C849.416 65.3333 850.069 64.6567 850.536 63.77C851.026 62.8833 851.271 61.845 851.271 60.655C851.271 59.4417 851.026 58.4033 850.536 57.54C850.069 56.6533 849.416 55.9767 848.576 55.51C847.736 55.0433 846.791 54.81 845.741 54.81C844.667 54.81 843.711 55.0433 842.871 55.51C842.054 55.9767 841.401 56.6533 840.911 57.54C840.421 58.4033 840.176 59.4417 840.176 60.655C840.176 61.845 840.421 62.8833 840.911 63.77C841.401 64.6567 842.054 65.3333 842.871 65.8C843.711 66.2667 844.656 66.5 845.706 66.5ZM868.264 70.245C866.351 70.245 864.647 69.8367 863.154 69.02C861.661 68.18 860.482 67.0367 859.619 65.59C858.756 64.1433 858.324 62.4983 858.324 60.655C858.324 58.7883 858.756 57.1433 859.619 55.72C860.482 54.2733 861.661 53.1417 863.154 52.325C864.647 51.5083 866.351 51.1 868.264 51.1C870.201 51.1 871.916 51.5083 873.409 52.325C874.926 53.1417 876.104 54.2617 876.944 55.685C877.807 57.1083 878.239 58.765 878.239 60.655C878.239 62.4983 877.807 64.1433 876.944 65.59C876.104 67.0367 874.926 68.18 873.409 69.02C871.916 69.8367 870.201 70.245 868.264 70.245ZM868.264 66.5C869.337 66.5 870.294 66.2667 871.134 65.8C871.974 65.3333 872.627 64.6567 873.094 63.77C873.584 62.8833 873.829 61.845 873.829 60.655C873.829 59.4417 873.584 58.4033 873.094 57.54C872.627 56.6533 871.974 55.9767 871.134 55.51C870.294 55.0433 869.349 54.81 868.299 54.81C867.226 54.81 866.269 55.0433 865.429 55.51C864.612 55.9767 863.959 56.6533 863.469 57.54C862.979 58.4033 862.734 59.4417 862.734 60.655C862.734 61.845 862.979 62.8833 863.469 63.77C863.959 64.6567 864.612 65.3333 865.429 65.8C866.269 66.2667 867.214 66.5 868.264 66.5ZM893.028 51.1C894.521 51.1 895.851 51.3917 897.018 51.975C898.208 52.5583 899.141 53.4567 899.818 54.67C900.494 55.86 900.833 57.4 900.833 59.29V70H896.458V59.85C896.458 58.1933 896.061 56.9567 895.268 56.14C894.498 55.3233 893.413 54.915 892.013 54.915C890.986 54.915 890.076 55.125 889.283 55.545C888.489 55.965 887.871 56.595 887.428 57.435C887.008 58.2517 886.798 59.29 886.798 60.55V70H882.423V51.31H886.588V56.35L885.853 54.81C886.506 53.62 887.451 52.71 888.688 52.08C889.948 51.4267 891.394 51.1 893.028 51.1ZM916.336 61.88L915.496 45.5H920.676L919.801 61.88H916.336ZM918.086 70.245C917.269 70.245 916.592 69.9767 916.056 69.44C915.519 68.9033 915.251 68.2617 915.251 67.515C915.251 66.7683 915.519 66.1383 916.056 65.625C916.592 65.0883 917.269 64.82 918.086 64.82C918.902 64.82 919.567 65.0883 920.081 65.625C920.594 66.1383 920.851 66.7683 920.851 67.515C920.851 68.2617 920.594 68.9033 920.081 69.44C919.567 69.9767 918.902 70.245 918.086 70.245Z" fill="white"/>
<path d="M1015.43 -0.374L1048.14 -0.567249L1014.76 113.926L980.033 114.468L1015.43 -0.374Z" fill="#01DC82"/>
<path d="M327.429 -0.374L360.143 -0.567249L326.765 113.926L292.033 114.468L327.429 -0.374Z" fill="#01DC82"/>
<path d="M5.42898 -0.374L38.1427 -0.567249L4.76475 113.926L-29.9671 114.468L5.42898 -0.374Z" fill="#01DC82"/>
<path d="M59.429 -0.374L92.1427 -0.567249L58.7647 113.926L24.0329 114.468L59.429 -0.374Z" fill="#01DC82"/>
<path d="M1068.43 -0.374L1101.14 -0.567249L1067.76 113.926L1033.03 114.468L1068.43 -0.374Z" fill="#01DC82"/>
<path d="M381.429 -0.374L414.143 -0.567249L380.765 113.926L346.033 114.468L381.429 -0.374Z" fill="#01DC82"/>
<path d="M1123.43 -0.374L1156.14 -0.567249L1122.76 113.926L1088.03 114.468L1123.43 -0.374Z" fill="#01DC82"/>
<path d="M1360.43 -0.374L1393.14 -0.567249L1359.76 113.926L1325.03 114.468L1360.43 -0.374Z" fill="#01DC82"/>
<path d="M1419.43 -0.374L1452.14 -0.567249L1418.76 113.926L1384.03 114.468L1419.43 -0.374Z" fill="#01DC82"/>
<path d="M435.013 -0.374L467.727 -0.567249L434.349 113.926L399.617 114.468L435.013 -0.374Z" fill="#01DC82"/>
</g>
<defs>
<clipPath id="clip0_2035_150">
<rect width="1513" height="114" fill="white" transform="translate(-45)"/>
</clipPath>
</defs>
</svg>
