<svg width="193" height="70" viewBox="0 0 193 70" fill="none" xmlns="http://www.w3.org/2000/svg">
<rect x="0.194336" y="30.9658" width="28.6134" height="8.23443" rx="4.11721" transform="rotate(-45 0.194336 30.9658)" fill="#E7F0F2"/>
<rect x="58.6836" y="49.2881" width="28.6134" height="8.23443" rx="4.11721" transform="rotate(135 58.6836 49.2881)" fill="#E7F0F2"/>
<rect x="0.126953" y="47.085" width="51.1408" height="8.23443" rx="4.11721" transform="rotate(-45 0.126953 47.085)" fill="#E7F0F2"/>
<rect x="58.7686" y="33.1865" width="51.4498" height="8.28419" rx="4.14209" transform="rotate(135 58.7686 33.1865)" fill="#E7F0F2"/>
<circle cx="51.6601" cy="34.1933" r="5.24059" fill="#01DC82" stroke="#006B6B" stroke-width="1.74686"/>
<circle cx="35.5888" cy="17.7724" r="5.24059" fill="#01DC82" stroke="#006B6B" stroke-width="1.74686"/>
<circle cx="19.5175" cy="17.4238" r="5.24059" fill="#01DC82" stroke="#006B6B" stroke-width="1.74686"/>
<circle cx="51.6601" cy="50.2646" r="5.24059" fill="#01DC82" stroke="#006B6B" stroke-width="1.74686"/>
<rect y="63.541" width="72.4004" height="8.50117" rx="4.25058" transform="rotate(-45 0 63.541)" fill="#01DC82"/>
<path d="M43.776 17.4037C42.8183 16.4325 43.2711 14.7886 44.5911 14.4448L55.7725 11.5326C57.0925 11.1888 58.2897 12.4029 57.9274 13.718L54.8588 24.8574C54.4965 26.1725 52.8465 26.6022 51.8888 25.631L43.776 17.4037Z" fill="#01DC82"/>
<path d="M73.8517 46V12.9128H83.2107V46H73.8517ZM98.4718 25.7222H113.834V32.7178H98.4718V25.7222ZM99.1335 38.7681H116.433V46H89.8691V12.9128H115.819V20.1447H99.1335V38.7681ZM121.627 46V12.9128H137.272C140.928 12.9128 144.142 13.5903 146.915 14.9453C149.688 16.3003 151.847 18.2067 153.391 20.6646C154.966 23.1225 155.754 26.0531 155.754 29.4564C155.754 32.8281 154.966 35.7587 153.391 38.2481C151.847 40.706 149.688 42.6125 146.915 43.9675C144.142 45.3225 140.928 46 137.272 46H121.627ZM130.986 38.5317H136.894C138.785 38.5317 140.424 38.1851 141.81 37.4919C143.228 36.7671 144.331 35.7272 145.119 34.3722C145.907 32.9857 146.301 31.3471 146.301 29.4564C146.301 27.5342 145.907 25.8956 145.119 24.5406C144.331 23.1856 143.228 22.1614 141.81 21.4682C140.424 20.7434 138.785 20.381 136.894 20.381H130.986V38.5317ZM177.174 46.6617C174.559 46.6617 172.132 46.2521 169.895 45.4328C167.689 44.582 165.767 43.3845 164.129 41.8405C162.521 40.2964 161.261 38.4845 160.347 36.4047C159.433 34.2934 158.976 31.9773 158.976 29.4564C158.976 26.9354 159.433 24.6351 160.347 22.5553C161.261 20.444 162.521 18.6164 164.129 17.0723C165.767 15.5282 167.689 14.3465 169.895 13.5272C172.132 12.6764 174.559 12.251 177.174 12.251C180.231 12.251 182.957 12.7867 185.352 13.8581C187.778 14.9295 189.795 16.4736 191.402 18.4903L185.446 23.8788C184.375 22.6183 183.193 21.6572 181.901 20.9955C180.641 20.3338 179.223 20.0029 177.647 20.0029C176.292 20.0029 175.047 20.2235 173.913 20.6646C172.778 21.1058 171.802 21.7518 170.982 22.6026C170.195 23.4219 169.564 24.4145 169.092 25.5804C168.65 26.7464 168.43 28.0384 168.43 29.4564C168.43 30.8744 168.65 32.1664 169.092 33.3323C169.564 34.4982 170.195 35.5066 170.982 36.3574C171.802 37.1767 172.778 37.807 173.913 38.2481C175.047 38.6893 176.292 38.9099 177.647 38.9099C179.223 38.9099 180.641 38.579 181.901 37.9173C183.193 37.2555 184.375 36.2944 185.446 35.0339L191.402 40.4224C189.795 42.4077 187.778 43.9517 185.352 45.0547C182.957 46.126 180.231 46.6617 177.174 46.6617Z" fill="#01DC82"/>
<path d="M78.8381 64.8756C78.1057 64.8756 77.4236 64.7566 76.7919 64.5186C76.1693 64.2714 75.6246 63.928 75.1576 63.4886C74.6999 63.04 74.3428 62.5135 74.0864 61.9093C73.8301 61.305 73.7019 60.6458 73.7019 59.9317C73.7019 59.2176 73.8301 58.5584 74.0864 57.9541C74.3428 57.3499 74.7044 56.828 75.1714 56.3885C75.6383 55.9399 76.183 55.5966 76.8056 55.3586C77.4282 55.1114 78.1102 54.9878 78.8518 54.9878C79.6392 54.9878 80.3579 55.1251 81.0079 55.3998C81.658 55.6653 82.2073 56.0635 82.6559 56.5945L81.5023 57.6795C81.1544 57.3041 80.7653 57.0248 80.335 56.8417C79.9047 56.6495 79.4378 56.5533 78.9342 56.5533C78.4307 56.5533 77.9683 56.6357 77.5472 56.8005C77.1352 56.9653 76.7736 57.1988 76.4623 57.5009C76.1601 57.8031 75.9221 58.1601 75.7481 58.5721C75.5834 58.9841 75.501 59.4373 75.501 59.9317C75.501 60.4261 75.5834 60.8793 75.7481 61.2913C75.9221 61.7033 76.1601 62.0603 76.4623 62.3625C76.7736 62.6646 77.1352 62.898 77.5472 63.0628C77.9683 63.2276 78.4307 63.31 78.9342 63.31C79.4378 63.31 79.9047 63.2185 80.335 63.0354C80.7653 62.8431 81.1544 62.5547 81.5023 62.1702L82.6559 63.2688C82.2073 63.7907 81.658 64.189 81.0079 64.4636C80.3579 64.7383 79.6346 64.8756 78.8381 64.8756ZM86.0145 59.1214H90.7936V60.5909H86.0145V59.1214ZM86.1518 63.2414H91.5764V64.7383H84.3665V55.1251H91.3842V56.622H86.1518V63.2414ZM99.3121 64.7383V56.6357H96.1261V55.1251H104.284V56.6357H101.097V64.7383H99.3121ZM112.38 55.1251H114.165V64.7383H112.38V55.1251ZM107.409 64.7383H105.623V55.1251H107.409V64.7383ZM112.517 60.6183H107.258V59.094H112.517V60.6183ZM115.382 64.7383L119.708 55.1251H121.465L125.805 64.7383H123.937L120.216 56.0727H120.93L117.222 64.7383H115.382ZM117.373 62.5135L117.854 61.1127H123.045L123.525 62.5135H117.373ZM127.028 64.7383V55.1251H128.813V63.2276H133.839V64.7383H127.028ZM133.903 64.7383L138.229 55.1251H139.986L144.326 64.7383H142.458L138.737 56.0727H139.451L135.743 64.7383H133.903ZM135.894 62.5135L136.375 61.1127H141.566L142.046 62.5135H135.894ZM148.529 64.8756C147.778 64.8756 147.059 64.7703 146.373 64.5598C145.686 64.34 145.141 64.0608 144.738 63.722L145.356 62.335C145.741 62.6371 146.217 62.8889 146.785 63.0903C147.352 63.2917 147.934 63.3924 148.529 63.3924C149.032 63.3924 149.44 63.3375 149.751 63.2276C150.062 63.1178 150.291 62.9713 150.438 62.7882C150.584 62.5959 150.657 62.3808 150.657 62.1427C150.657 61.8497 150.552 61.6163 150.342 61.4423C150.131 61.2592 149.856 61.1173 149.518 61.0166C149.188 60.9067 148.817 60.806 148.405 60.7145C148.002 60.6229 147.595 60.5176 147.183 60.3986C146.78 60.2704 146.409 60.1102 146.071 59.918C145.741 59.7165 145.471 59.451 145.26 59.1214C145.05 58.7918 144.944 58.3707 144.944 57.858C144.944 57.3361 145.082 56.86 145.356 56.4297C145.64 55.9903 146.066 55.6424 146.634 55.386C147.21 55.1205 147.938 54.9878 148.817 54.9878C149.394 54.9878 149.966 55.061 150.534 55.2075C151.101 55.354 151.596 55.5646 152.017 55.8392L151.454 57.2263C151.024 56.9699 150.58 56.7822 150.122 56.6632C149.664 56.535 149.225 56.4709 148.803 56.4709C148.309 56.4709 147.906 56.5305 147.595 56.6495C147.293 56.7685 147.068 56.9241 146.922 57.1164C146.785 57.3087 146.716 57.5284 146.716 57.7756C146.716 58.0686 146.817 58.3066 147.018 58.4897C147.229 58.6637 147.499 58.801 147.828 58.9017C148.167 59.0024 148.542 59.1031 148.954 59.2038C149.366 59.2954 149.774 59.4007 150.177 59.5197C150.589 59.6387 150.96 59.7944 151.289 59.9866C151.628 60.1789 151.898 60.4398 152.099 60.7694C152.31 61.099 152.415 61.5156 152.415 62.0191C152.415 62.5318 152.273 63.0079 151.99 63.4474C151.715 63.8777 151.289 64.2256 150.712 64.4911C150.136 64.7474 149.408 64.8756 148.529 64.8756ZM157.166 64.8756C156.415 64.8756 155.696 64.7703 155.01 64.5598C154.323 64.34 153.778 64.0608 153.375 63.722L153.993 62.335C154.378 62.6371 154.854 62.8889 155.422 63.0903C155.989 63.2917 156.571 63.3924 157.166 63.3924C157.669 63.3924 158.077 63.3375 158.388 63.2276C158.699 63.1178 158.928 62.9713 159.075 62.7882C159.221 62.5959 159.294 62.3808 159.294 62.1427C159.294 61.8497 159.189 61.6163 158.978 61.4423C158.768 61.2592 158.493 61.1173 158.154 61.0166C157.825 60.9067 157.454 60.806 157.042 60.7145C156.639 60.6229 156.232 60.5176 155.82 60.3986C155.417 60.2704 155.046 60.1102 154.707 59.918C154.378 59.7165 154.108 59.451 153.897 59.1214C153.687 58.7918 153.581 58.3707 153.581 57.858C153.581 57.3361 153.719 56.86 153.993 56.4297C154.277 55.9903 154.703 55.6424 155.27 55.386C155.847 55.1205 156.575 54.9878 157.454 54.9878C158.031 54.9878 158.603 55.061 159.171 55.2075C159.738 55.354 160.233 55.5646 160.654 55.8392L160.091 57.2263C159.66 56.9699 159.216 56.7822 158.759 56.6632C158.301 56.535 157.861 56.4709 157.44 56.4709C156.946 56.4709 156.543 56.5305 156.232 56.6495C155.93 56.7685 155.705 56.9241 155.559 57.1164C155.422 57.3087 155.353 57.5284 155.353 57.7756C155.353 58.0686 155.454 58.3066 155.655 58.4897C155.866 58.6637 156.136 58.801 156.465 58.9017C156.804 59.0024 157.179 59.1031 157.591 59.2038C158.003 59.2954 158.411 59.4007 158.814 59.5197C159.226 59.6387 159.596 59.7944 159.926 59.9866C160.265 60.1789 160.535 60.4398 160.736 60.7694C160.947 61.099 161.052 61.5156 161.052 62.0191C161.052 62.5318 160.91 63.0079 160.626 63.4474C160.352 63.8777 159.926 64.2256 159.349 64.4911C158.772 64.7474 158.045 64.8756 157.166 64.8756ZM164.47 59.1214H169.249V60.5909H164.47V59.1214ZM164.608 63.2414H170.032V64.7383H162.822V55.1251H169.84V56.622H164.608V63.2414ZM172.022 64.7383V55.1251H175.978C176.829 55.1251 177.557 55.2624 178.161 55.5371C178.775 55.8118 179.246 56.2054 179.576 56.7181C179.905 57.2308 180.07 57.8397 180.07 58.5446C180.07 59.2496 179.905 59.8584 179.576 60.3711C179.246 60.8747 178.775 61.2638 178.161 61.5385C177.557 61.804 176.829 61.9367 175.978 61.9367H173.011L173.808 61.1265V64.7383H172.022ZM178.312 64.7383L175.881 61.2501H177.79L180.235 64.7383H178.312ZM173.808 61.3187L173.011 60.4673H175.895C176.683 60.4673 177.273 60.2979 177.667 59.9592C178.07 59.6204 178.271 59.1489 178.271 58.5446C178.271 57.9312 178.07 57.4597 177.667 57.1301C177.273 56.8005 176.683 56.6357 175.895 56.6357H173.011L173.808 55.7568V61.3187ZM184.295 64.7383V60.9342L184.694 62.0329L180.519 55.1251H182.428L185.779 60.687H184.707L188.086 55.1251H189.844L185.669 62.0329L186.081 60.9342V64.7383H184.295Z" fill="#E7F0F2"/>
</svg>
