<svg width="387" height="49" viewBox="0 0 387 49" fill="none" xmlns="http://www.w3.org/2000/svg">
<rect width="387" height="49" rx="10" fill="#01DC82"/>
<path d="M129.4 37.4996C127.6 41.3996 125.2 42.7996 120.7 42.7996C116 42.7996 113.6 41.4996 112 37.4996V30.6996C112.6 30.1996 113.5 29.6996 115.1 29.6996C116.6 29.6996 117.6 30.0996 118.2 30.6996V35.8996C118.2 37.3996 119.2 37.8996 120.7 37.8996C122 37.8996 123.1 37.1996 123.1 35.4996V14.8996C123.1 13.4996 122 12.7996 120.6 12.7996C119.5 12.7996 118.2 13.3996 118.2 14.7996V19.9996C117.6 20.5996 116.7 20.9996 115.1 20.9996C113.6 20.9996 112.7 20.5996 112 19.9996V13.3996C113.2 10.3996 115.7 8.09961 120.8 8.09961C125.7 8.09961 128.2 10.1996 129.4 13.3996V37.4996Z" fill="#231F20"/>
<path d="M142.1 28.7V22.6C142.1 21.5 141.6 21 140.8 21C139.9 21 139.4 21.5 139.4 22.6V28.7C139.4 29.8 140 30.2 140.8 30.2C141.7 30.2 142.1 29.7 142.1 28.7ZM161.6 39.8C161.6 41 161.2 41.7 160.6 42.5H131.9C131.3 41.9 130.8 41.1 130.8 39.8C130.8 38.5 131.3 37.5 131.9 37H139.7C144.8 37 152.3 35.7 152.3 31.1V28.4C152.3 27.6 151.9 27.1 151 27.1H149.7C149 26.6 148.6 25.7 148.6 24.2C148.6 22.9 149 21.8 149.7 21.3H150.9C152 21.3 152.4 21 152.4 19.9V17.2C152.4 14.6 151.4 12.9 146.2 12.9C140.9 12.9 139.3 14.4 139.3 16.6V18C140.1 17.1 141.1 16.5 142.7 16.5C146 16.5 147.2 18.8 147.2 21V28.6C147.2 31.6 145 34.3 140.4 34.3C135.8 34.3 133.3 32.3 133.3 27.3V13.3C135.4 10.7 138.5 8 146.3 8C152.9 8 156.2 10.3 158.5 13.3V20.3C158.5 22 157.2 23.2 155.1 23.8C157.5 24.4 158.5 25.9 158.5 27.5V33.3C157.7 34.6 156.4 36.2 152.8 36.8V36.9H160.6C161.2 37.7 161.6 38.6 161.6 39.8Z" fill="#231F20"/>
<path d="M83.5002 37.0996C81.9002 36.0996 81.3002 34.8996 81.3002 32.2996V15.1996C81.3002 13.8996 80.7002 12.8996 79.4002 12.8996C78.1002 12.8996 77.3002 13.8996 77.3002 15.1996V34.2996C77.3002 36.2996 78.3002 37.9996 81.1002 37.9996C82.2002 37.8996 83.0002 37.4996 83.5002 37.0996ZM91.5002 32.9996V15.1996C91.5002 13.6996 90.7002 12.8996 89.6002 12.8996C88.3002 12.8996 87.6002 13.8996 87.6002 15.1996V32.9996C87.6002 34.9996 88.1002 36.2996 89.5002 36.8996C90.8002 36.2996 91.5002 34.9996 91.5002 32.9996ZM108.2 37.4996C106.6 40.9996 103.9 42.7996 98.8002 42.7996C94.5002 42.7996 92.0002 42.0996 89.3002 40.3996C86.8002 41.9996 83.9002 42.7996 79.7002 42.7996C75.0002 42.7996 72.1002 41.0996 71.2002 37.5996V13.3996C72.5002 10.2996 74.7002 8.19962 78.8002 8.19962C82.0002 8.19962 83.6002 9.09961 84.7002 10.8996C86.0002 8.99961 87.8002 8.19962 90.6002 8.19962C94.8002 8.19962 96.8002 9.69962 97.8002 13.4996V33.4996C97.8002 35.0996 97.2002 36.3996 95.7002 37.0996C96.1002 37.5996 97.0002 37.9996 98.7002 37.9996C101 37.9996 102 36.5996 102 34.4996V9.19962C102.6 8.69962 103.7 8.09961 105.1 8.09961C106.5 8.09961 107.7 8.49962 108.2 9.19962V37.4996Z" fill="#231F20"/>
<path d="M49.6004 24.5V15.2C49.6004 13.7 48.8004 12.9 47.7004 12.9C46.6004 12.9 45.7004 13.7 45.7004 15.2V24.5H49.6004ZM66.9004 40.8C66.9004 41.8 66.1004 42.5 65.2004 42.5H41.1004C40.0004 42.5 39.4004 41.8 39.4004 40.8V13.3C40.8004 10.1 43.3004 8.09999 47.9004 8.09999C51.8004 8.09999 54.5004 9.89999 55.8004 13.4V27.8C55.8004 28.9 55.1004 29.5 54.0004 29.5H45.6004V37H60.7004V9.09999C61.4004 8.49999 62.3004 8 63.8004 8C65.3004 8 66.1004 8.39999 66.9004 9.09999V40.8Z" fill="#231F20"/>
<path d="M28.7 36.9996V29.7996H28.6C27.6 32.8996 23.8 35.6996 19.6 36.8996V36.9996H28.7ZM34.9 40.7996C34.9 41.8996 34.3 42.4996 33.2 42.4996H14.2C13 41.5996 12 40.4996 12 38.4996C12 36.0996 13 35.1996 14.2 34.1996C14.2 34.1996 15.2 34.1996 16 34.1996C22.3 34.1996 27 26.3996 27 20.1996V16.1996C27 13.5996 25.5 12.8996 23.4 12.8996C21.3 12.8996 19.5 13.7996 19.5 16.0996V27.4996C18.9 28.0996 17.8 28.4996 16.3 28.4996C15 28.4996 14.1 28.1996 13.2 27.4996V13.3996C15.4 9.89961 18.1 8.09961 23.3 8.09961C28.1 8.09961 31.2 9.59961 33.1 13.2996V20.6996C33.7 20.6996 34.4 20.9996 34.8 21.4996V40.7996H34.9Z" fill="#231F20"/>
<path d="M320.8 37.4996C319.1 41.3996 316.6 42.7996 312.1 42.7996C307.4 42.7996 305 41.4996 303.4 37.4996V30.6996C304 30.1996 304.9 29.6996 306.5 29.6996C308 29.6996 309 30.0996 309.6 30.6996V35.8996C309.6 37.3996 310.6 37.8996 312.1 37.8996C313.4 37.8996 314.5 37.1996 314.5 35.4996V14.8996C314.5 13.4996 313.4 12.7996 312 12.7996C310.9 12.7996 309.6 13.3996 309.6 14.7996V19.9996C309 20.5996 308.1 20.9996 306.5 20.9996C305 20.9996 304.1 20.5996 303.4 19.9996V13.3996C304.6 10.3996 307.1 8.09961 312.2 8.09961C317.1 8.09961 319.6 10.1996 320.8 13.3996V37.4996Z" fill="#231F20"/>
<path d="M299.7 41.6002C299.2 42.2002 298 42.7002 296.6 42.7002C295.3 42.7002 294 42.2002 293.5 41.6002V15.1002C293.5 13.9002 292.8 12.9002 291.4 12.9002C289.9 12.9002 289 14.0002 289 15.2002V41.7002C288.5 42.3002 287.2 42.8002 285.9 42.8002C284.4 42.8002 283.4 42.4002 282.8 41.7002V15.2002C282.8 14.1002 282.1 13.0002 280.6 13.0002C279 13.0002 278.2 14.0002 278.2 15.2002V41.7002C277.7 42.3002 276.7 42.8002 275.1 42.8002C273.6 42.8002 272.6 42.4002 272 41.7002V13.4002C273.2 10.7002 275.5 8.2002 279.9 8.2002C283.3 8.2002 285.1 9.40019 286.2 11.1002C287.6 9.30019 289.8 8.2002 292.5 8.2002C296.5 8.2002 298.6 10.6002 299.7 13.5002V41.6002Z" fill="#231F20"/>
<path d="M370.7 36.9996V29.7996H370.6C369.6 32.8996 365.8 35.6996 361.6 36.8996V36.9996H370.7ZM376.9 40.7996C376.9 41.8996 376.3 42.4996 375.2 42.4996H356.2C355 41.5996 354 40.4996 354 38.4996C354 36.0996 355 35.1996 356.2 34.1996C356.2 34.1996 357.2 34.1996 358 34.1996C364.3 34.1996 369 26.3996 369 20.1996V16.1996C369 13.5996 367.5 12.8996 365.4 12.8996C363.3 12.8996 361.5 13.7996 361.5 16.0996V27.4996C360.9 28.0996 359.8 28.4996 358.4 28.4996C357.1 28.4996 356.2 28.1996 355.3 27.4996V13.3996C357.5 9.89961 360.2 8.09961 365.4 8.09961C370.2 8.09961 373.3 9.59961 375.2 13.2996V20.6996C375.8 20.6996 376.5 20.9996 376.9 21.4996V40.7996Z" fill="#231F20"/>
<path d="M344.6 35.6002V24.2002C344.6 22.6002 343.8 21.9002 342.6 21.9002C341.3 21.9002 340.5 22.9002 340.5 24.2002V35.6002C340.5 36.9002 341.2 37.9002 342.5 37.9002C344 37.8002 344.6 37.0002 344.6 35.6002ZM350.8 37.5002C349.2 40.5002 347 42.7002 342.5 42.7002C337.5 42.7002 335.9 41.1002 334.2 37.5002V23.9002C334.2 19.6002 336.8 17.4002 341 17.4002C342.7 17.4002 344.1 18.5002 344.7 19.2002V16.3002C344.7 14.4002 342.8 12.6002 337.7 12.6002C334.2 12.6002 330.5 13.5002 330.5 16.8002V41.7002C330 42.3002 328.9 42.8002 327.4 42.8002C325.8 42.8002 324.8 42.4002 324.3 41.7002V13.4002C327.1 10.2002 330.8 8.2002 337.7 8.2002C345.3 8.2002 348 9.90019 350.8 13.4002V37.5002Z" fill="#231F20"/>
<path d="M241.1 36.9996V29.7996H241C240 32.8996 236.2 35.6996 232 36.8996V36.9996H241.1ZM259.5 37.7996C258.2 37.7996 257.6 36.8996 257.6 35.5996V32.4996C257.6 31.0996 258.3 30.2996 259.6 30.2996C260.8 30.2996 261.3 31.0996 261.3 32.4996V35.5996C261.4 36.9996 260.7 37.7996 259.5 37.7996ZM259.6 20.2996C258.2 20.2996 257.7 19.4996 257.7 18.1996V15.1996C257.7 13.8996 258.4 12.9996 259.7 12.9996C260.8 12.9996 261.5 13.8996 261.5 15.1996V18.0996C261.4 19.3996 260.9 20.2996 259.6 20.2996ZM267.6 31.5996C267.6 27.6996 265.3 26.1996 261.5 26.1996C259.5 26.1996 258.3 26.9996 257.6 27.6996V23.1996C258.6 24.1996 259.7 24.6996 261.5 24.6996C265.5 24.6996 267.6 22.8996 267.6 19.3996V13.3996C266.4 9.89961 264 8.09961 259.8 8.09961C255.2 8.09961 252.8 10.1996 251.3 13.3996V37.4996C252.8 40.8996 255.1 42.6996 259.5 42.6996C263.5 42.6996 266.3 40.8996 267.6 37.4996V31.5996ZM247.3 40.7996C247.3 41.8996 246.7 42.4996 245.6 42.4996H226.6C225.4 41.5996 224.4 40.4996 224.4 38.4996C224.4 36.0996 225.4 35.1996 226.6 34.1996C226.6 34.1996 227.6 34.1996 228.4 34.1996C234.7 34.1996 239.4 26.3996 239.4 20.1996V16.1996C239.4 13.5996 237.9 12.8996 235.8 12.8996C233.7 12.8996 231.9 13.7996 231.9 16.0996V27.4996C231.3 28.0996 230.2 28.4996 228.8 28.4996C227.5 28.4996 226.6 28.1996 225.7 27.4996V13.3996C227.9 9.89961 230.6 8.09961 235.8 8.09961C240.6 8.09961 243.7 9.59961 245.6 13.2996V20.6996C246.2 20.6996 246.9 20.9996 247.3 21.4996V40.7996Z" fill="#231F20"/>
<path d="M182.9 25.7002C181.2 25.7002 179.7 24.9002 179.7 23.2002C179.7 22.5002 180 21.8002 180.5 21.5002C180.4 20.7002 180 19.7002 179.6 19.2002C178 19.8002 175 20.7002 173.4 20.7002C173.5 22.0002 173 22.8002 172.9 23.9002C172.9 24.1002 172.9 24.5002 172.9 24.7002C173 24.8002 173 25.1002 173 25.4002C173.3 25.7002 173.5 26.2002 173.5 26.7002C173.5 27.6002 172.9 28.3002 171.8 28.3002C171.1 28.3002 170.6 27.8002 170.6 27.2002C170.6 26.6002 171 26.2002 171.5 26.2002C172 26.2002 172.3 26.5002 172.3 26.9002C172.3 27.3002 172 27.6002 171.6 27.6002C171.5 27.6002 171.3 27.6002 171.3 27.5002C171.3 27.7002 171.5 27.9002 171.9 27.9002C172.8 27.9002 173.1 27.3002 173.1 26.7002C173.1 25.9002 172.5 25.3002 171.5 25.3002C170.1 25.3002 169.4 26.2002 169.4 27.5002C169.4 28.7002 170.3 29.8002 172 29.8002C174.2 29.8002 176.7 28.9002 178.8 27.8002C178.7 27.8002 178.4 27.8002 178.3 27.8002C176.4 27.8002 174.6 26.9002 174.6 25.0002C174.6 24.5002 174.8 23.9002 175.1 23.6002C175 22.6002 174.7 21.6002 174.4 20.8002C175.3 20.7002 175.9 20.5002 176.5 20.3002V20.8002C176.6 21.4002 176.7 21.9002 177.1 22.4002C177.4 22.5002 177.4 22.6002 177.5 22.8002C178.2 23.0002 178.7 23.6002 178.7 24.3002C178.7 25.0002 178.1 25.7002 177.2 25.7002C176.7 25.7002 176.1 25.4002 176.1 24.7002C176.1 24.2002 176.4 23.9002 176.9 23.9002C177.3 23.9002 177.5 24.1002 177.5 24.4002C177.5 24.7002 177.3 24.9002 176.8 24.9002C176.8 25.1002 177.1 25.2002 177.2 25.2002C177.8 25.2002 178.2 24.8002 178.2 24.3002C178.2 23.5002 177.6 23.1002 177 23.1002C175.7 23.1002 175.1 23.9002 175.1 24.8002C175.1 26.2002 176.6 27.2002 178 27.2002C179.5 27.4002 180.4 26.9002 182.9 25.7002ZM207.9 28.9002C207.5 28.7002 207.1 28.5002 206.7 28.3002C205.3 27.6002 203.7 26.8002 202.4 26.1002C202.8 26.7002 203 27.2002 203 28.1002C203 29.2002 202.2 30.3002 200.7 30.3002C199.6 30.3002 198.8 29.6002 198.8 28.5002C198.8 27.6002 199.4 27.1002 200.2 27.1002C200.9 27.1002 201.3 27.6002 201.3 28.2002C201.3 28.7002 201 28.9002 200.5 28.9002C200.2 28.9002 199.9 28.6002 199.9 28.3002C199.9 27.9002 200.2 27.7002 200.7 27.7002C200.6 27.5002 200.4 27.4002 200.1 27.4002C199.6 27.4002 199.1 27.7002 199.1 28.4002C199.1 29.1002 199.6 29.7002 200.5 29.7002C201.7 29.7002 202.3 28.8002 202.3 27.9002C202.3 25.8002 200.6 24.9002 198.2 24.9002C195.9 24.9002 194.2 25.9002 194.2 27.9002C194.2 29.0002 194.9 29.7002 196 29.7002C196.9 29.7002 197.5 29.1002 197.5 28.4002C197.5 27.8002 197.1 27.4002 196.5 27.4002C196.2 27.4002 196 27.6002 195.9 27.7002C196.5 27.6002 196.7 28.0002 196.7 28.3002C196.7 28.6002 196.5 28.9002 196.1 28.9002C195.6 28.9002 195.3 28.6002 195.3 28.2002C195.3 27.5002 195.8 27.1002 196.5 27.1002C197.3 27.1002 197.9 27.6002 197.9 28.5002C197.9 29.5002 197.1 30.3002 196 30.3002C194.7 30.3002 193.8 29.4002 193.8 28.1002C193.8 27.2002 194.1 26.5002 194.6 25.9002C194 26.1002 193.3 26.1002 192.6 26.1002C191.9 26.1002 191.2 26.0002 190.6 25.9002C191.1 26.5002 191.4 27.2002 191.4 28.1002C191.4 29.3002 190.5 30.3002 189.2 30.3002C188 30.3002 187.3 29.5002 187.3 28.5002C187.3 27.6002 187.9 27.1002 188.7 27.1002C189.4 27.1002 189.8 27.5002 189.8 28.2002C189.8 28.7002 189.5 28.9002 189 28.9002C188.7 28.9002 188.4 28.6002 188.4 28.3002C188.4 28.0002 188.6 27.7002 189.2 27.7002C189.1 27.5002 188.9 27.4002 188.6 27.4002C188 27.4002 187.6 27.8002 187.6 28.4002C187.6 29.1002 188.2 29.7002 189.1 29.7002C190.1 29.7002 190.9 29.0002 190.9 27.9002C190.9 25.9002 189.1 24.9002 186.8 24.9002C184.3 24.9002 182.7 25.9002 182.7 27.9002C182.7 28.8002 183.3 29.7002 184.5 29.7002C185.4 29.7002 185.9 29.1002 185.9 28.4002C185.9 27.8002 185.5 27.4002 185 27.4002C184.7 27.4002 184.5 27.5002 184.4 27.7002C184.9 27.6002 185.2 27.9002 185.2 28.3002C185.2 28.6002 185 28.9002 184.6 28.9002C184.1 28.9002 183.8 28.6002 183.8 28.2002C183.8 27.5002 184.2 27.1002 184.9 27.1002C185.7 27.1002 186.3 27.5002 186.3 28.5002C186.3 29.5002 185.5 30.3002 184.4 30.3002C182.9 30.3002 182.1 29.2002 182.1 28.1002C182.1 27.1002 182.3 26.6002 182.8 26.1002C181.4 26.8002 179.8 27.6002 178.5 28.3002C178.1 28.5002 177.7 28.7002 177.3 28.9002C179 29.6002 181 30.3002 182.9 30.7002V31.6002C183.7 31.7002 188.2 32.5002 192.6 32.5002C195.7 32.5002 199.9 32.1002 202.1 31.6002V30.7002C204.4 30.2002 205.8 29.8002 207.9 28.9002ZM190.2 10.6002C190.1 10.6002 190 10.6002 189.9 10.6002C189.8 10.6002 189.5 10.6002 189.3 10.5002L189.1 9.80019L189.2 9.7002C189.3 9.8002 189.4 9.90019 189.6 9.90019C189.9 9.90019 190.1 9.70019 190.1 9.40019C190.1 9.10019 189.9 8.90019 189.7 8.90019C188.6 8.90019 187 11.2002 185.2 11.6002C185.1 11.8002 185 12.0002 184.9 12.2002C185 12.2002 185.2 12.1002 185.4 12.1002C185.7 12.1002 186 12.2002 186.2 12.3002V12.4002C185.8 12.5002 185.5 12.6002 185.2 12.8002C184.5 13.5002 183.9 14.3002 183.1 14.3002L181.2 14.0002C181.2 13.8002 181.2 13.5002 181.2 13.2002L181 13.1002C181 13.8002 180.8 15.0002 180.6 15.7002C180.2 15.0002 179.3 14.2002 179.3 12.8002C179.3 12.3002 179.6 11.9002 180 11.9002C180.1 11.9002 180.2 11.9002 180.4 12.0002L180.3 11.7002C180.2 11.6002 180 11.6002 180 11.6002C179.2 11.6002 179 12.2002 179 12.8002C179 14.2002 179.9 15.0002 180.6 16.3002H180.7C180.9 15.8002 181.2 15.0002 181.2 14.4002C181.7 14.4002 182.1 14.5002 182.8 14.7002C182.6 15.7002 182.2 17.2002 181.9 17.9002C181.9 18.7002 182 19.9002 182.4 20.6002C182.5 20.9002 182.6 20.9002 182.7 21.0002C182.8 21.0002 182.9 21.2002 182.9 21.4002C183.3 21.7002 183.6 22.1002 183.6 22.7002C183.6 23.5002 183 24.1002 182.2 24.1002C181.6 24.1002 181.1 23.7002 181.1 23.1002C181.1 22.6002 181.4 22.2002 181.9 22.2002C182.3 22.2002 182.6 22.4002 182.6 22.8002C182.6 23.1002 182.4 23.4002 182 23.4002C181.9 23.4002 181.9 23.4002 181.8 23.4002C181.8 23.6002 182 23.7002 182.3 23.7002C182.9 23.7002 183.3 23.3002 183.3 22.7002C183.3 21.9002 182.7 21.6002 182 21.6002C181.1 21.6002 180.5 22.2002 180.5 23.3002C180.5 24.6002 181.7 25.4002 183.6 25.4002C184.1 25.4002 184.7 25.1002 185.5 25.0002C186.1 24.9002 186.7 24.8002 187.3 24.8002C187.6 24.8002 187.9 24.8002 188.3 24.8002C186.2 23.3002 184.9 21.0002 184.9 18.3002C184.9 17.7002 185 17.1002 185.1 16.6002C185 16.6002 184.7 16.5002 184.6 16.5002C184.1 16.5002 183.3 16.7002 182.8 17.0002C183 16.4002 183.2 15.6002 183.4 14.8002C184 14.9002 184.3 14.5002 184.6 14.4002L185.5 14.6002C185.6 14.5002 185.8 14.4002 186 14.4002C186.6 12.6002 188.2 11.2002 190.2 10.6002ZM206.6 12.8002C206.6 12.2002 206.4 11.6002 205.6 11.6002C205.5 11.6002 205.3 11.6002 205.3 11.7002L205.2 12.0002C205.3 12.0002 205.5 11.9002 205.6 11.9002C206 11.9002 206.3 12.2002 206.3 12.8002C206.3 14.2002 205.4 15.0002 205 15.7002H204.9C204.7 15.1002 204.5 13.8002 204.5 13.1002L204.3 13.2002C204.3 13.5002 204.3 13.8002 204.4 14.0002L202.4 14.4002C201.6 14.4002 200.9 13.6002 200.3 12.9002C200 12.6002 199.7 12.5002 199.3 12.5002V12.4002C199.5 12.3002 199.8 12.2002 200.1 12.2002C200.3 12.2002 200.4 12.3002 200.6 12.3002C200.5 12.2002 200.4 12.0002 200.3 11.7002C198.5 11.3002 197 9.0002 195.8 9.0002C195.5 9.0002 195.4 9.2002 195.4 9.5002C195.4 9.8002 195.6 10.0002 195.9 10.0002C196.1 10.0002 196.2 9.90019 196.3 9.80019L196.4 9.90019L196.2 10.6002C196 10.6002 195.8 10.7002 195.6 10.7002C195.5 10.7002 195.4 10.7002 195.3 10.7002C197.3 11.3002 198.9 12.6002 199.9 14.4002C200.1 14.4002 200.3 14.5002 200.4 14.6002L201.3 14.4002C201.6 14.5002 201.9 14.9002 202.5 14.8002C202.6 15.5002 202.9 16.4002 203.1 17.0002C202.6 16.7002 201.9 16.5002 201.3 16.5002C201.2 16.5002 201 16.6002 200.8 16.6002C200.9 17.2002 201 17.7002 201 18.3002C201 21.0002 199.7 23.3002 197.6 24.8002C197.9 24.8002 198.2 24.8002 198.6 24.8002C199.2 24.8002 199.9 24.9002 200.4 25.0002C201.2 25.2002 201.8 25.4002 202.3 25.4002C204.2 25.4002 205.4 24.7002 205.4 23.3002C205.4 22.3002 204.8 21.6002 203.9 21.6002C203.2 21.6002 202.6 21.9002 202.6 22.7002C202.6 23.3002 203 23.7002 203.5 23.7002C203.7 23.7002 203.9 23.6002 204 23.4002C203.9 23.4002 203.9 23.4002 203.8 23.4002C203.5 23.4002 203.2 23.2002 203.2 22.8002C203.2 22.5002 203.5 22.2002 203.9 22.2002C204.3 22.2002 204.7 22.6002 204.7 23.1002C204.7 23.7002 204.2 24.1002 203.6 24.1002C202.8 24.1002 202.2 23.5002 202.2 22.7002C202.2 22.1002 202.5 21.7002 202.9 21.4002C202.9 21.2002 203 21.0002 203.1 21.0002C203.3 21.0002 203.3 20.9002 203.4 20.6002C203.8 19.9002 203.8 18.6002 203.9 17.9002C203.6 17.1002 203.1 15.7002 203 14.7002C203.7 14.5002 204.1 14.5002 204.6 14.4002C204.6 15.0002 204.9 15.9002 205.1 16.3002H205.2C205.6 15.0002 206.6 14.2002 206.6 12.8002ZM216.1 27.6002C216.1 26.3002 215.4 25.4002 214 25.4002C213 25.4002 212.4 26.0002 212.4 26.8002C212.4 27.4002 212.7 28.0002 213.6 28.0002C213.9 28.0002 214.1 27.8002 214.2 27.6002C214.1 27.6002 214 27.7002 213.9 27.7002C213.5 27.7002 213.2 27.5002 213.2 27.0002C213.2 26.6002 213.4 26.3002 214 26.3002C214.5 26.3002 214.9 26.7002 214.9 27.3002C214.9 28.0002 214.3 28.5002 213.7 28.4002C212.6 28.4002 212.1 27.7002 212.1 26.8002C212.1 26.3002 212.3 25.8002 212.6 25.5002C212.6 25.2002 212.6 24.9002 212.7 24.8002C212.7 24.6002 212.7 24.3002 212.7 24.0002C212.6 22.9002 212.1 22.0002 212.2 20.8002C210.6 20.7002 207.6 19.9002 206 19.3002C205.6 19.8002 205.2 20.8002 205.1 21.6002C205.6 22.0002 205.9 22.6002 205.9 23.3002C205.9 25.0002 204.4 25.8002 202.7 25.8002C205.2 27.0002 206.1 27.5002 207.7 27.5002C209.1 27.5002 210.6 26.6002 210.6 25.1002C210.6 24.1002 210 23.4002 208.8 23.4002C208.2 23.4002 207.6 23.8002 207.6 24.6002C207.6 25.1002 208 25.5002 208.6 25.5002C208.7 25.5002 209 25.5002 209 25.2002C208.5 25.2002 208.4 24.9002 208.4 24.7002C208.4 24.4002 208.6 24.2002 209 24.2002C209.4 24.2002 209.8 24.5002 209.8 25.0002C209.8 25.7002 209.2 26.0002 208.8 26.0002C207.9 26.0002 207.3 25.4002 207.3 24.6002C207.3 23.9002 207.8 23.2002 208.5 23.1002C208.6 22.9002 208.6 22.8002 208.9 22.7002C209.3 22.2002 209.4 21.7002 209.5 21.1002V20.6002C210 20.8002 210.7 20.9002 211.6 21.1002C211.2 21.9002 211 22.9002 210.9 23.9002C211.2 24.3002 211.4 24.8002 211.4 25.3002C211.4 27.2002 209.6 28.1002 207.7 28.1002C207.6 28.1002 207.3 28.1002 207.2 28.1002C209.3 29.2002 211.8 30.1002 214 30.1002C215.2 29.8002 216.1 28.8002 216.1 27.6002ZM216.5 27.6002C216.5 28.8002 215.8 29.8002 214.5 30.2002C214.4 30.6002 214.4 31.3002 214.4 32.1002C214.4 33.6002 214.6 35.5002 215.4 36.4002C214.5 36.4002 213.4 35.8002 212.6 35.0002C211.9 35.8002 210.8 36.3002 209.7 36.3002C210.2 35.8002 210.6 35.0002 210.6 33.9002C210.6 33.2002 210.5 32.4002 210.5 32.1002L208.4 32.9002L209.2 35.6002C204.5 37.0002 199.9 38.2002 192.6 38.2002C186 38.2002 180.3 37.0002 175.9 35.5002L176.7 32.9002L174.6 32.1002C174.6 32.3002 174.5 33.2002 174.5 34.2002C174.5 34.9002 174.9 35.8002 175.4 36.3002C174.6 36.3002 173.2 35.9002 172.5 34.9002C171.5 35.9002 170.8 36.1002 169.8 36.4002C170.6 35.5002 170.9 32.9002 170.9 31.9002C170.9 31.4002 170.8 30.5002 170.7 30.1002C169.5 29.7002 168.8 28.7002 168.8 27.6002C168.8 26.3002 169.4 25.4002 170.6 25.1002L170.8 23.6002C171 22.5002 170.4 21.0002 169.6 20.0002C170 21.0002 170 21.5002 170 22.7002C170 23.4002 169.8 24.0002 169 24.6002C169 24.1002 169.3 23.3002 169.5 23.0002C169.6 22.7002 169.5 22.3002 169.5 21.5002C169.5 20.8002 169 19.5002 169 18.4002C169 17.4002 169.2 16.4002 170 15.5002C171.2 13.9002 174.7 12.4002 177.9 12.0002C178.2 12.0002 179.3 11.6002 179.6 11.4002C180 10.3002 180.9 9.80019 181.7 9.80019C181.8 9.80019 182 9.80019 182.1 9.80019C182.3 9.70019 182.6 9.5002 183 9.5002C183.3 9.5002 184 9.6002 184.4 10.2002C184.4 10.1002 184.5 9.8002 184.5 9.7002C184.5 9.4002 184.4 9.1002 184.3 9.0002C184.5 9.2002 184.7 9.4002 184.9 10.0002C185 9.9002 184.9 9.6002 184.9 9.5002C184.9 9.5002 184.9 9.1002 184.7 8.7002H184.8C185 9.0002 185.4 9.6002 185.4 10.7002C186.8 10.0002 188.1 8.2002 189.7 8.2002C190.6 8.2002 191.1 8.80019 191.1 9.60019C191.1 10.1002 190.9 10.6002 190.4 10.8002C191.1 10.6002 191.8 10.5002 192.6 10.5002C193.4 10.5002 194.1 10.6002 194.8 10.8002C194.4 10.6002 194.1 10.2002 194.1 9.60019C194.1 8.90019 194.6 8.2002 195.5 8.2002C197.1 8.2002 198.3 10.0002 199.8 10.7002C199.8 9.6002 200.2 9.1002 200.4 8.7002H200.5C200.4 9.1002 200.3 9.5002 200.3 9.5002C200.3 9.6002 200.2 9.9002 200.3 10.0002C200.5 9.4002 200.7 9.2002 200.9 9.0002C200.8 9.2002 200.7 9.4002 200.7 9.7002C200.7 9.9002 200.8 10.1002 200.8 10.2002C201.2 9.6002 201.9 9.5002 202.2 9.5002C202.6 9.5002 202.9 9.60019 203.1 9.80019C203.2 9.80019 203.3 9.80019 203.5 9.80019C204.3 9.80019 205.2 10.4002 205.6 11.4002C205.9 11.6002 207 11.9002 207.3 12.0002C210.5 12.4002 214 13.9002 215.2 15.5002C215.9 16.5002 216.2 17.4002 216.2 18.4002C216.2 19.5002 215.7 20.8002 215.7 21.5002C215.7 22.4002 215.7 22.7002 215.7 23.0002C215.9 23.3002 216.2 24.1002 216.2 24.6002C215.4 24.0002 215.2 23.4002 215.2 22.7002C215.2 21.5002 215.2 21.0002 215.6 20.0002C214.8 21.0002 214.2 22.5002 214.4 23.6002L214.6 25.1002C215.9 25.3002 216.5 26.3002 216.5 27.6002Z" fill="#231F20"/>
<path d="M212.2 13.6002C211.4 13.2002 210.6 12.9002 209.8 12.7002C209.7 13.8002 209.2 15.7002 208.9 16.7002L211.4 17.5002C211.7 16.6002 212.1 14.7002 212.2 13.6002Z" fill="white"/>
<path d="M213.5 14.2004C213.2 14.0004 212.9 13.8004 212.5 13.7004C212.4 14.7004 212 16.6004 211.7 17.8004L208.6 16.8004C209.1 15.5004 209.5 13.6004 209.6 12.6004C209.2 12.5004 208.7 12.4004 208.4 12.4004C208.3 13.6004 207.7 16.0004 207.2 17.4004L212.5 19.0004C213.1 17.5004 213.5 15.2004 213.5 14.2004Z" fill="white"/>
<path d="M202.7 11.2004C202.7 11.1004 202.5 10.9004 202.4 10.9004C202.2 10.9004 202.1 11.0004 202.1 11.2004C202.1 11.3004 202.3 11.4004 202.4 11.4004C202.5 11.5004 202.7 11.4004 202.7 11.2004Z" fill="white"/>
<path d="M213.4 30.3002C211.7 30.3002 210.1 29.8002 208.5 29.2002C207.3 29.8002 205.8 30.4002 204.3 30.8002V30.9002L207.8 30.4002L208.4 32.5002C209.9 32.0002 211.9 31.2002 213.4 30.3002Z" fill="white"/>
<path d="M200.5 18.1996C200.5 13.9996 197 10.5996 192.7 10.5996C188.4 10.5996 184.9 13.9996 184.9 18.1996C184.9 22.3996 188.4 25.7996 192.7 25.7996C197 25.7996 200.5 22.3996 200.5 18.1996Z" fill="white"/>
<path d="M183.3 11.2004C183.3 11.0004 183.2 10.9004 183 10.9004C182.8 10.9004 182.7 11.1004 182.7 11.2004C182.7 11.4004 182.9 11.4004 183 11.4004C183.2 11.5004 183.3 11.4004 183.3 11.2004Z" fill="white"/>
<path d="M176.4 16.7002C176.1 15.8002 175.6 13.8002 175.5 12.7002C174.7 12.9002 173.9 13.2002 173.1 13.6002C173.2 14.7002 173.6 16.6002 173.9 17.5002L176.4 16.7002Z" fill="white"/>
<path d="M178.2 17.4004C177.7 15.9004 177.1 13.6004 177 12.4004C176.6 12.5004 176.2 12.5004 175.8 12.6004C175.9 13.7004 176.3 15.6004 176.8 16.8004L173.7 17.8004C173.3 16.5004 173 14.7004 172.9 13.7004C172.6 13.9004 172.2 14.1004 171.9 14.2004C171.9 15.2004 172.3 17.4004 172.9 19.0004L178.2 17.4004Z" fill="white"/>
<path d="M208.7 35.2002L207.4 30.7002C203.2 32.1002 197.8 32.9002 192.7 32.9002C188.2 32.9002 182.1 32.2002 177.8 30.7002L176.5 35.1002C180.3 36.4002 186.7 37.6002 192.7 37.6002C199.1 37.7002 204.7 36.4002 208.7 35.2002Z" fill="white"/>
<path d="M181 30.8002C179.8 30.4002 178.2 29.9002 176.8 29.2002C175.3 29.8002 173.7 30.3002 172 30.3002C173 30.9002 174.7 31.7002 176.9 32.5002L177.5 30.4002L181 30.8002Z" fill="white"/>
<path d="M197 12.7998L196.2 13.9998L196 13.7998L196.3 13.2998L195.8 13.0998L195.5 13.5998L195.3 13.3998L196 12.2998L196.3 12.3998L196 12.8998L196.4 13.0998L196.7 12.6998L197 12.7998Z" fill="#231F20"/>
<path d="M198.6 14.6004L197.6 15.2004L197.9 15.7004L197.7 15.8004L197.2 15.1004L198.4 14.4004L198.6 14.6004Z" fill="#231F20"/>
<path d="M195.6 12.0998L195.5 12.2998L195 12.1998L194.9 12.3998L195.4 12.5998L195.3 12.7998L194.8 12.5998L194.7 12.8998L195.3 13.0998L195.2 13.2998L194.4 12.9998L194.8 11.7998L195.6 12.0998Z" fill="#231F20"/>
<path d="M194.4 11.7L194.3 11.9C194.3 11.9 194.2 11.8 194 11.8C193.9 11.8 193.8 11.8 193.8 11.9C193.8 12 193.9 12 194 12.1C194.2 12.2 194.3 12.4 194.3 12.6C194.3 12.8 194 13 193.7 12.9C193.5 12.9 193.4 12.8 193.3 12.7L193.4 12.5C193.5 12.6 193.6 12.6 193.7 12.6C193.8 12.6 193.9 12.6 193.9 12.5C193.9 12.4 193.9 12.4 193.7 12.3C193.5 12.2 193.4 12 193.4 11.8C193.4 11.6 193.7 11.5 194 11.5C194.2 11.7 194.3 11.7 194.4 11.7Z" fill="#231F20"/>
<path d="M193.1 12.3C193.1 12.7 192.9 12.9 192.5 12.9C192.1 12.9 191.9 12.7 191.9 12.3V11.6H192.2V12.3C192.2 12.5 192.3 12.7 192.5 12.7C192.7 12.7 192.8 12.6 192.7 12.3V11.5H193L193.1 12.3Z" fill="#231F20"/>
<path d="M199.6 19.2V19.5L198.2 19.3V19L199.6 19.2Z" fill="#231F20"/>
<path d="M199.5 19.7002L199.4 20.0002H198.8C198.6 20.0002 198.5 20.0002 198.3 20.0002C198.3 20.0002 198.6 20.2002 198.7 20.3002L199.2 20.7002L199.1 21.0002L197.9 20.2002L198 19.9002L199.5 19.7002Z" fill="#231F20"/>
<path d="M199 21.1L198.9 21.4L197.6 20.8L197.8 20.5L199 21.1Z" fill="#231F20"/>
<path d="M190.5 13.1996L190.2 13.3996L189.9 12.8996L189.5 13.0996L189.8 13.5996L189.5 13.6996L188.8 12.5996L189.1 12.3996L189.4 12.8996L189.8 12.5996L189.5 12.1996L189.8 12.0996L190.5 13.1996Z" fill="#231F20"/>
<path d="M198.7 21.7L198.5 22H197.9C197.7 22 197.6 21.9 197.4 21.9C197.6 22 197.7 22.1 197.9 22.2L198.2 22.4L198 22.6L196.9 21.8L197.1 21.6L197.7 21.7C197.9 21.7 198 21.7 198.2 21.8C198 21.7 197.9 21.6 197.7 21.5L197.4 21.2L197.6 21L198.7 21.7Z" fill="#231F20"/>
<path d="M197.6 18.2004C197.6 20.8004 195.4 23.0004 192.7 23.0004C190 23.0004 187.8 20.9004 187.8 18.2004C187.8 15.6004 190 13.4004 192.7 13.4004C195.4 13.5004 197.6 15.6004 197.6 18.2004Z" fill="#231F20"/>
<path d="M197.7 23L197.5 23.2L196.5 22.2L196.8 22L197.7 23Z" fill="#231F20"/>
<path d="M197.3 23.4L196.4 24L196.3 23.8L196.6 23.6L195.9 22.7L196.2 22.5L196.8 23.4L197.1 23.2L197.3 23.4Z" fill="#231F20"/>
<path d="M188 15.2996C187.8 15.5996 187.5 15.6996 187.1 15.3996L186.5 14.9996L186.7 14.7996L187.4 15.1996C187.6 15.2996 187.8 15.2996 187.9 15.1996C188 15.0996 187.9 14.8996 187.7 14.7996L187 14.3996L187.2 14.0996L187.9 14.4996C188.1 14.7996 188.2 14.9996 188 15.2996Z" fill="#231F20"/>
<path d="M196.2 24.0996L195.9 24.1996L195.6 23.9996C195.5 23.8996 195.5 23.8996 195.4 23.7996C195.4 23.8996 195.4 23.9996 195.4 24.0996V24.4996L195.1 24.5996L195.2 23.6996L195 23.1996L195.3 23.0996L195.5 23.5996L196.2 24.0996Z" fill="#231F20"/>
<path d="M193.9 24.1002L193.2 24.7002L193.5 25.6002L192.7 25.0002L191.9 25.6002L192.2 24.7002L191.4 24.1002H192.4L192.7 23.2002L193 24.1002H193.9Z" fill="#231F20"/>
<path d="M187.1 18.5004H186.5L185.7 18.9004V18.6004L186 18.5004C186.1 18.5004 186.2 18.4004 186.3 18.4004C186.2 18.4004 186.1 18.3004 186 18.3004L185.7 18.2004V17.9004L186.5 18.3004H187.1V18.5004Z" fill="#231F20"/>
<path d="M187.3 19.4996L186.2 19.6996V20.0996L186 20.1996L185.7 19.1996L186 19.0996L186.1 19.4996L187.2 19.1996L187.3 19.4996Z" fill="#231F20"/>
<path d="M187.5 20.2004L186.2 20.6004L186.1 20.3004L187.4 19.9004L187.5 20.2004Z" fill="#231F20"/>
<path d="M190.7 24C190.5 24.4 190.1 24.5 189.7 24.3C189.5 24.2 189.4 24.2 189.4 24.1L189.5 23.9C189.5 23.9 189.6 24 189.7 24C189.9 24.1 190.2 24 190.3 23.8C190.4 23.6 190.3 23.3 190.1 23.2C190 23.2 189.9 23.2 189.9 23.2V23C190 23 190.1 23 190.3 23.1C190.7 23.3 190.8 23.7 190.7 24Z" fill="#231F20"/>
<path d="M189.8 22.9002L189 24.0002L188.7 23.8002L189.1 23.4002L188.6 23.1002L188.3 23.5002L188.1 23.3002L188.9 22.2002L189.1 22.4002L188.8 22.9002L189.2 23.2002L189.5 22.7002L189.8 22.9002Z" fill="#231F20"/>
<path d="M197.6 13.7C197.4 13.6 197.2 13.6 197 13.8C196.8 14 196.8 14.2 196.9 14.3C197 14.4 197.3 14.4 197.5 14.2C197.7 14.1 197.8 13.9 197.6 13.7ZM197.8 13.6C198.1 13.9 198 14.3 197.8 14.5C197.5 14.8 197 14.8 196.8 14.5C196.6 14.2 196.6 13.8 196.8 13.6C197.1 13.3 197.5 13.3 197.8 13.6Z" fill="#231F20"/>
<path d="M199 15.9004C199 15.8004 198.9 15.8004 198.9 15.8004L198.1 16.1004V16.2004C198.2 16.5004 198.4 16.6004 198.7 16.5004C199 16.4004 199.1 16.1004 199 15.9004ZM199.3 16.3004C199.3 16.5004 199.1 16.6004 198.9 16.7004C198.7 16.8004 198.4 16.8004 198.3 16.7004C198.1 16.6004 198 16.4004 197.9 16.2004C197.8 16.1004 197.8 15.9004 197.8 15.9004L199.1 15.4004C199.2 15.5004 199.2 15.6004 199.3 15.8004C199.3 16.0004 199.3 16.2004 199.3 16.3004Z" fill="#231F20"/>
<path d="M199.5 18.2002C199.5 18.1002 199.5 18.1002 199.5 18.1002H198.6V18.2002C198.6 18.5002 198.8 18.6002 199.1 18.7002C199.3 18.6002 199.5 18.4002 199.5 18.2002ZM199.7 18.1002C199.7 18.3002 199.6 18.5002 199.5 18.6002C199.4 18.7002 199.2 18.8002 199 18.8002C198.7 18.8002 198.5 18.7002 198.4 18.6002C198.3 18.5002 198.3 18.3002 198.3 18.0002C198.3 17.8002 198.3 17.7002 198.3 17.7002H199.7C199.7 17.8002 199.7 18.0002 199.7 18.1002Z" fill="#231F20"/>
<path d="M191.4 12.3003C191.3 12.1003 191.1 11.9003 190.9 12.0003C190.7 12.1003 190.6 12.3003 190.7 12.5003C190.8 12.8003 191 12.9003 191.1 12.9003C191.4 12.8003 191.5 12.6003 191.4 12.3003ZM191.7 12.2003C191.8 12.7003 191.5 13.0003 191.2 13.0003C190.9 13.1003 190.5 12.9003 190.4 12.5003C190.3 12.1003 190.5 11.8003 190.9 11.7003C191.3 11.6003 191.6 11.8003 191.7 12.2003Z" fill="#231F20"/>
<path d="M197.2 18.1998C197.2 15.7998 195.2 13.7998 192.7 13.7998C190.2 13.7998 188.2 15.7998 188.2 18.1998C188.2 20.5998 190.2 22.5998 192.7 22.5998C195.2 22.5998 197.2 20.6998 197.2 18.1998Z" fill="white"/>
<path d="M188.2 13.5998C188.1 13.4998 188 13.4998 187.9 13.5998C187.8 13.5998 187.8 13.6998 187.8 13.6998L188.1 13.9998L188.2 13.8998C188.2 13.7998 188.3 13.6998 188.2 13.5998ZM189.1 13.9998L188.9 14.1998C188.9 14.1998 188.8 14.0998 188.6 13.9998C188.4 13.8998 188.4 13.8998 188.3 13.9998L188.2 14.0998L188.6 14.4998L188.4 14.6998L187.4 13.7998C187.5 13.6998 187.6 13.5998 187.7 13.4998C187.8 13.3998 188 13.2998 188.1 13.2998C188.2 13.2998 188.3 13.2998 188.4 13.3998C188.5 13.4998 188.5 13.6998 188.5 13.7998C188.5 13.7998 188.7 13.7998 188.8 13.7998C188.9 13.8998 189.1 13.9998 189.1 13.9998Z" fill="#231F20"/>
<path d="M187.2 16.3995C187.3 16.1995 187.1 15.9995 186.9 15.8995C186.7 15.7995 186.4 15.8996 186.3 15.9996C186.2 16.1996 186.4 16.3996 186.6 16.4996C186.9 16.5996 187.1 16.5995 187.2 16.3995ZM187.4 16.3995C187.3 16.6995 186.9 16.8995 186.5 16.7995C186.1 16.6995 185.9 16.2996 186 15.9996C186.1 15.5996 186.5 15.4995 186.9 15.5995C187.4 15.6995 187.5 16.0995 187.4 16.3995Z" fill="#231F20"/>
<path d="M187.2 21.2998C187 21.0998 186.9 20.9998 186.8 21.0998C186.7 21.1998 186.7 21.2998 186.8 21.3998C186.8 21.4998 186.9 21.4998 186.9 21.4998L187.2 21.2998ZM188 21.1998L186.8 21.7998C186.7 21.6998 186.7 21.5998 186.6 21.4998C186.5 21.2998 186.5 21.1998 186.5 21.0998C186.5 20.9998 186.6 20.8998 186.7 20.8998C186.9 20.7998 187 20.8998 187.1 20.8998C187.1 20.7998 187.2 20.6998 187.2 20.5998C187.3 20.4998 187.5 20.3998 187.5 20.2998L187.6 20.5998C187.6 20.5998 187.5 20.6998 187.3 20.7998C187.2 20.8998 187.2 20.9998 187.2 21.0998V21.1998L187.7 20.8998L188 21.1998Z" fill="#231F20"/>
<path d="M188.1 22.1998L187.9 21.9998L187.8 22.1998C187.8 22.2998 187.7 22.2998 187.6 22.3998L187.8 22.2998L188.1 22.1998ZM188.8 22.1998L187.5 22.7998L187.2 22.4998L188 21.2998L188.2 21.4998L188 21.7998L188.3 22.0998L188.6 21.9998L188.8 22.1998Z" fill="#231F20"/>
<path d="M193.8 15.3996C193.4 15.1996 193 15.0996 192.7 15.0996C192.3 15.0996 191.9 15.1996 191.6 15.3996V15.0996C191.8 14.9996 192.2 14.7996 192.5 14.7996V14.4996C192.5 14.2996 192.6 14.0996 192.7 14.0996C192.8 14.0996 192.9 14.1996 192.9 14.4996V14.7996C193.2 14.8996 193.6 14.9996 193.8 15.1996V15.3996Z" fill="#231F20"/>
<path d="M194 16.2004C193.5 15.9004 193.2 15.8004 192.7 15.8004C192.3 15.8004 191.9 15.9004 191.4 16.2004V15.9004C191.9 15.5004 192.3 15.4004 192.7 15.4004C193.1 15.4004 193.6 15.5004 194 15.9004V16.2004Z" fill="#231F20"/>
<path d="M194.3 16.9996C193.8 16.5996 193.3 16.3996 192.7 16.3996C192.1 16.3996 191.5 16.6996 191.1 16.9996V16.6996C191.3 16.3996 192 16.0996 192.7 16.0996C193.3 16.0996 193.9 16.3996 194.3 16.6996V16.9996Z" fill="#231F20"/>
<path d="M193.3 18.8998C193.3 18.3998 193.1 18.0998 192.6 18.0998C192.2 18.0998 192 18.3998 192 18.5998C192.1 18.5998 192.1 18.5998 192.2 18.5998C192.5 18.5998 192.6 18.6998 192.6 18.9998C192.6 19.1998 192.4 19.3998 192.1 19.3998C191.8 19.3998 191.6 19.2998 191.5 18.9998H191.1C191.2 19.6998 191.7 19.9998 192.2 19.9998C192.9 19.7998 193.3 19.3998 193.3 18.8998ZM194.2 18.4998C194.2 17.3998 193.2 17.1998 192.7 17.1998C192.2 17.1998 191.3 17.4998 191.3 18.4998H191.7C191.8 17.9998 192.2 17.6998 192.7 17.6998C193.3 17.6998 193.6 17.9998 193.7 18.4998H194.2ZM196.4 19.7998C196.3 20.0998 196.1 20.3998 195.7 20.5998C195.7 20.7998 195.6 20.9998 195.5 21.0998H195.1C195.2 20.9998 195.3 20.7998 195.3 20.5998C195.3 19.9998 194.8 19.8998 194.5 19.4998C194.4 19.7998 194.3 19.9998 194.1 20.0998C193.9 20.2998 193.7 20.4998 193.7 20.6998C193.7 20.9998 193.7 21.1998 193.6 21.3998C193.5 21.8998 193.2 22.1998 192.6 22.1998C191.9 22.1998 191.7 21.6998 191.5 21.6998C191.4 21.6998 191.3 21.7998 191.2 21.9998C191.1 21.9998 191 21.8998 191 21.7998C191 21.7998 191.2 21.5998 191.3 21.3998C191.4 21.2998 191.4 21.0998 191.5 20.8998H191.9V20.9998C191.9 21.5998 192.3 21.8998 192.8 21.8998C193.1 21.8998 193.3 21.5998 193.3 21.3998C193.4 21.0998 193.3 20.7998 193.4 20.5998C193.5 20.3998 193.9 20.0998 194.1 19.7998C194.2 19.6998 194.2 19.4998 194.2 19.2998V18.9998H193.7C193.7 19.5998 193.5 19.8998 193 20.1998C192.8 20.2998 192.8 20.3998 192.8 20.5998V21.0998H192.4V20.3998C192.4 20.1998 192.3 20.0998 192.1 20.0998C191.6 19.9998 191.4 19.8998 191.1 19.3998C190.8 19.7998 190.2 19.9998 190.2 20.5998C190.2 20.7998 190.3 20.9998 190.4 21.0998H190C189.9 20.9998 189.8 20.7998 189.8 20.5998C189.5 20.4998 189.2 20.1998 189.1 19.7998L189.4 19.5998C189.4 19.8998 189.5 20.0998 189.8 20.1998C189.9 19.8998 190.2 19.5998 190.5 19.2998C190.7 19.0998 190.8 18.8998 190.8 18.7998V18.6998H190.7C190.6 18.6998 190.5 18.5998 190.5 18.4998C190.5 18.3998 190.6 18.2998 190.7 18.2998H190.8C190.8 17.8998 190.6 17.4998 190.2 17.4998C190 17.4998 189.8 17.5998 189.7 17.6998V17.3998C189.8 17.3998 190 17.2998 190.2 17.2998C190.5 17.2998 190.9 17.4998 191.1 17.8998C191.3 17.0998 192.2 16.7998 192.8 16.7998C193.3 16.7998 194.2 16.9998 194.5 17.8998C194.6 17.5998 195 17.2998 195.4 17.2998C195.6 17.2998 195.8 17.3998 195.9 17.3998V17.6998C195.8 17.5998 195.5 17.4998 195.5 17.4998C195.1 17.4998 194.8 17.7998 194.8 18.2998H194.9C195 18.2998 195.1 18.3998 195.1 18.4998C195.1 18.5998 195 18.6998 194.9 18.6998H194.8V18.7998C194.8 18.8998 195 19.1998 195.3 19.4998C195.5 19.6998 195.7 19.8998 195.8 20.1998C196.1 20.0998 196.2 19.7998 196.2 19.5998L196.4 19.7998Z" fill="#231F20"/>
<path d="M172.4 39.9H170.6V40.7H172.2V41.2H170.6V42H172.4V42.5H170.1V39.5H172.4V39.9Z" fill="#231F20"/>
<path d="M174.5 40.6998C175.2 40.8998 175.5 41.0998 175.5 41.5998C175.5 42.1998 175 42.4998 174.4 42.4998C173.9 42.4998 173.5 42.2998 173.1 41.9998L173.4 41.5998C173.7 41.8998 174 41.9998 174.4 41.9998C174.7 41.9998 174.9 41.7998 174.9 41.5998C174.9 41.3998 174.8 41.2998 174.2 41.0998C173.5 40.8998 173.2 40.7998 173.2 40.1998C173.2 39.6998 173.6 39.2998 174.3 39.2998C174.8 39.2998 175.1 39.3998 175.4 39.6998L175.1 40.0998C174.8 39.8998 174.5 39.7998 174.3 39.7998C174 39.7998 173.8 39.9998 173.8 40.1998C173.7 40.4998 173.9 40.5998 174.5 40.6998Z" fill="#231F20"/>
<path d="M177.4 42.5H176.9V40H175.9V39.5H178.4V40H177.4V42.5Z" fill="#231F20"/>
<path d="M180 40.1L179.5 41.3H180.6L180 40.1ZM181.6 42.5H181L180.7 41.8H179.2L178.9 42.5H178.4L179.8 39.5H180.3L181.6 42.5Z" fill="#231F20"/>
<path d="M184.5 41.6004C184.5 41.3004 184.3 41.2004 183.9 41.2004H183V42.0004H183.9C184.2 42.0004 184.5 41.9004 184.5 41.6004ZM184.3 40.3004C184.3 40.1004 184.1 39.9004 183.8 39.9004H183V40.7004H183.7C184.1 40.7004 184.3 40.6004 184.3 40.3004ZM184.8 40.2004C184.8 40.6004 184.6 40.8004 184.4 40.9004C184.8 41.0004 185 41.2004 185 41.6004C185 42.1004 184.5 42.4004 183.9 42.4004H182.4V39.4004H183.8C184.5 39.5004 184.8 39.8004 184.8 40.2004Z" fill="#231F20"/>
<path d="M185.9 39.5H186.4V42H188.1V42.5H185.9V39.5Z" fill="#231F20"/>
<path d="M189.4 39.5H188.9V42.5H189.4V39.5Z" fill="#231F20"/>
<path d="M191.7 40.6998C192.4 40.8998 192.7 41.0998 192.7 41.5998C192.7 42.1998 192.2 42.4998 191.6 42.4998C191.1 42.4998 190.7 42.2998 190.3 41.9998L190.6 41.5998C190.9 41.8998 191.2 41.9998 191.6 41.9998C191.9 41.9998 192.1 41.7998 192.1 41.5998C192.1 41.3998 192 41.2998 191.4 41.0998C190.7 40.8998 190.4 40.7998 190.4 40.1998C190.4 39.6998 190.8 39.2998 191.5 39.2998C192 39.2998 192.3 39.3998 192.6 39.6998L192.3 40.0998C192 39.8998 191.7 39.7998 191.5 39.7998C191.2 39.7998 191 39.9998 191 40.1998C190.9 40.4998 191.1 40.5998 191.7 40.6998Z" fill="#231F20"/>
<path d="M194 41.2V42.5H193.5V39.5H194V40.7H195.5V39.5H196.1V42.5H195.5V41.2H194Z" fill="#231F20"/>
<path d="M199.4 39.9H197.6V40.7H199.2V41.2H197.6V42H199.4V42.5H197.1V39.5H199.4V39.9Z" fill="#231F20"/>
<path d="M201.4 39.9H200.8V42H201.4C202.1 42 202.5 41.6 202.5 41C202.5 40.4 202.1 39.9 201.4 39.9ZM201.4 42.5H200.2V39.5H201.4C202.4 39.5 203 40.2 203 41C203.1 41.8 202.4 42.5 201.4 42.5Z" fill="#231F20"/>
<path d="M205.7 39.4004H206.1V42.5004H205.5V40.0004L205 40.1004L204.9 39.7004L205.7 39.4004Z" fill="#231F20"/>
<path d="M208.1 39.9004C207.8 39.9004 207.5 40.1004 207.5 40.3004C207.5 40.6004 207.7 40.8004 208.1 40.8004C208.4 40.8004 208.7 40.6004 208.7 40.3004C208.7 40.1004 208.4 39.9004 208.1 39.9004ZM208.1 41.2004C207.7 41.2004 207.4 41.4004 207.4 41.7004C207.4 42.0004 207.6 42.2004 208.1 42.2004C208.5 42.2004 208.8 42.0004 208.8 41.7004C208.8 41.3004 208.5 41.2004 208.1 41.2004ZM208.1 42.5004C207.4 42.5004 206.9 42.2004 206.9 41.6004C206.9 41.2004 207.1 41.0004 207.5 40.9004C207.2 40.8004 207 40.6004 207 40.2004C207 39.7004 207.5 39.4004 208.1 39.4004C208.7 39.4004 209.2 39.8004 209.2 40.2004C209.2 40.5004 209 40.7004 208.7 40.9004C209 41.1004 209.3 41.3004 209.3 41.6004C209.3 42.2004 208.8 42.5004 208.1 42.5004Z" fill="#231F20"/>
<path d="M211.1 39.9004C210.8 39.9004 210.5 40.1004 210.5 40.3004C210.5 40.6004 210.7 40.8004 211.1 40.8004C211.4 40.8004 211.7 40.6004 211.7 40.3004C211.7 40.1004 211.5 39.9004 211.1 39.9004ZM211.1 41.2004C210.7 41.2004 210.4 41.4004 210.4 41.7004C210.4 42.0004 210.6 42.2004 211.1 42.2004C211.5 42.2004 211.8 42.0004 211.8 41.7004C211.8 41.3004 211.5 41.2004 211.1 41.2004ZM211.1 42.5004C210.4 42.5004 209.9 42.2004 209.9 41.6004C209.9 41.2004 210.1 41.0004 210.5 40.9004C210.2 40.8004 210 40.6004 210 40.2004C210 39.7004 210.5 39.4004 211.1 39.4004C211.7 39.4004 212.2 39.8004 212.2 40.2004C212.2 40.5004 212 40.7004 211.7 40.9004C212 41.1004 212.3 41.3004 212.3 41.6004C212.3 42.2004 211.8 42.5004 211.1 42.5004Z" fill="#231F20"/>
<path d="M214.2 39.9004C213.9 39.9004 213.6 40.1004 213.6 40.3004C213.6 40.6004 213.8 40.8004 214.2 40.8004C214.5 40.8004 214.8 40.6004 214.8 40.3004C214.7 40.1004 214.5 39.9004 214.2 39.9004ZM214.2 41.2004C213.8 41.2004 213.5 41.4004 213.5 41.7004C213.5 42.0004 213.7 42.2004 214.2 42.2004C214.6 42.2004 214.8 42.0004 214.8 41.7004C214.8 41.3004 214.6 41.2004 214.2 41.2004ZM214.2 42.5004C213.5 42.5004 213 42.2004 213 41.6004C213 41.2004 213.2 41.0004 213.6 40.9004C213.3 40.8004 213.1 40.6004 213.1 40.2004C213.1 39.7004 213.6 39.4004 214.2 39.4004C214.8 39.4004 215.3 39.8004 215.3 40.2004C215.3 40.5004 215.1 40.7004 214.8 40.9004C215.1 41.1004 215.4 41.3004 215.4 41.6004C215.4 42.2004 214.9 42.5004 214.2 42.5004Z" fill="#231F20"/>
<path d="M179 34.6003C178.9 34.6003 178.7 34.5002 178.7 34.3002C178.6 34.4002 178.5 34.4002 178.3 34.4002C177.9 34.3002 177.9 33.9002 178 33.5002C178.1 33.1002 178.4 32.8002 178.7 32.9002V33.1003C178.5 33.0003 178.4 33.3002 178.3 33.5002C178.2 33.8002 178.2 34.1002 178.4 34.2002C178.5 34.2002 178.6 34.2002 178.7 34.0002L179 33.0002L179.2 33.1003L178.9 34.1003C178.9 34.3003 178.9 34.4002 179 34.4002C179.2 34.5002 179.3 34.2002 179.4 33.9002C179.5 33.6002 179.5 33.4002 179.3 33.3002V33.1003C179.7 33.2003 179.7 33.6002 179.6 34.0002C179.6 34.3002 179.4 34.7003 179 34.6003Z" fill="#231F20"/>
<path d="M180.8 33.6L180.6 34.5C180.5 34.8 180.6 34.8 180.7 34.8C180.8 34.8 180.9 34.7 181 34.2C181.1 33.9 181 33.6 180.8 33.6ZM180.7 35C180.4 34.9 180.4 34.7 180.4 34.5L180.6 33.6C180.3 33.5 180.2 33.8 180.1 34.1C180.1 34.3 180 34.7 180.2 34.7V34.9C179.8 34.8 179.8 34.4 179.9 34.1C180 33.7 180.2 33.4 180.6 33.4L180.7 33L180.9 33.1L180.8 33.5C181 33.6 181.3 33.8 181.2 34.4C181.1 34.9 180.9 35.1 180.7 35Z" fill="#231F20"/>
<path d="M182.4 33.9997C182.3 33.9997 182.2 34.0996 182.2 34.1996C182.2 34.2996 182.2 34.2997 182.3 34.2997C182.4 34.2997 182.4 34.2996 182.4 34.1996V33.9997ZM182.2 34.7997C182.1 34.7997 182.1 34.7997 182.1 34.8997C182.1 34.9997 182.1 35.1996 182.2 35.1996C182.3 35.1996 182.3 35.0997 182.3 34.9997C182.3 34.7997 182.3 34.7997 182.2 34.7997ZM181.9 35.2997C181.5 35.1997 181.3 34.8997 181.4 34.3997C181.5 33.9997 181.7 33.6997 182.1 33.7997C182.3 33.7997 182.6 34.0997 182.5 34.3997C182.4 34.6997 182 34.5997 181.9 34.2997C181.9 33.9997 182.1 33.9997 182.1 33.9997C181.8 33.8997 181.6 34.1997 181.6 34.4997C181.6 34.7997 181.5 35.1996 181.9 35.1996C181.9 35.1996 181.7 35.0997 181.8 34.7997C181.9 34.4997 182.4 34.5997 182.4 34.8997C182.5 35.2997 182.2 35.3997 181.9 35.2997Z" fill="#231F20"/>
<path d="M184.7 34.9003C184.7 34.7003 184.7 34.4003 184.4 34.4003C184.2 34.4003 184.1 34.4003 184 34.6003C184.1 34.5003 184.3 34.6003 184.3 34.6003C184.4 34.6003 184.6 34.8003 184.4 35.0003L184.1 35.5003L184.5 35.6003L184.7 34.9003ZM184.1 34.7003C184 34.7003 184 34.7003 183.9 34.9003L183.8 35.5003H183.9L184.2 35.0003C184.3 34.8003 184.2 34.7003 184.1 34.7003ZM183.8 34.7003C183.8 34.5003 183.8 34.2003 183.5 34.2003C183.3 34.2003 183.2 34.2003 183.1 34.4003C183.2 34.3003 183.4 34.3003 183.4 34.4003C183.5 34.4003 183.7 34.6003 183.5 34.8003L183.2 35.3003L183.6 35.4003L183.8 34.7003ZM183.2 34.5003C183.1 34.5003 183.1 34.5003 183 34.7003L182.9 35.3003H183L183.3 34.8003C183.4 34.7003 183.3 34.5003 183.2 34.5003ZM182.7 35.5003L182.8 34.6003C182.9 34.1003 183.2 34.0003 183.5 34.1003C183.7 34.1003 183.9 34.2003 183.9 34.4003C184 34.2003 184.3 34.2003 184.4 34.2003C184.7 34.2003 185 34.5003 184.9 34.9003L184.8 35.8003L182.7 35.5003Z" fill="#231F20"/>
<path d="M185.5 35.9002C185.3 35.9002 185.1 35.7002 185.1 35.2002H185.3C185.3 35.5002 185.4 35.6002 185.5 35.6002C185.7 35.6002 185.8 35.5002 185.8 35.1002C185.9 34.6002 185.8 34.5002 185.6 34.4002C185.5 34.4002 185.4 34.5002 185.3 34.8002H185.1C185.2 34.3002 185.4 34.2002 185.6 34.2002C185.9 34.2002 186.1 34.5002 186 35.1002C186 35.7002 185.9 36.0002 185.5 35.9002Z" fill="#231F20"/>
<path d="M188 36.2C187.8 36.2 187.6 36.1 187.6 35.7V35.1C187.6 34.9 187.6 34.7 187.5 34.7C187.4 34.7 187.3 34.8 187.3 35L187.2 36.1H186.9L187 35C187 34.8 187 34.7 186.8 34.7C186.6 34.7 186.5 35 186.5 35.3C186.5 35.6 186.5 35.9 186.7 35.9V36.1C186.3 36.1 186.2 35.7 186.3 35.3C186.3 34.9 186.5 34.5 186.9 34.5C187.1 34.5 187.2 34.6 187.2 34.7C187.3 34.6 187.4 34.5 187.6 34.5C187.9 34.5 188 34.8 187.9 35.1L187.8 35.7C187.8 35.9 187.8 36 187.9 36C188.1 36 188.2 35.7 188.2 35.4C188.2 35.1 188.2 34.8 188 34.8V34.6C188.4 34.6 188.5 35 188.4 35.4C188.5 35.9 188.3 36.2 188 36.2Z" fill="#231F20"/>
<path d="M188.6 34.7C188.4 34.7 188.2 34.6 188.3 34.3C188.3 34.1 188.4 34 188.6 34V34.2C188.5 34.2 188.4 34.6 188.7 34.6C188.9 34.6 188.9 34.2 188.8 34.2V34C189 34 189.1 34.2 189.1 34.4C189 34.6 188.8 34.7 188.6 34.7Z" fill="#231F20"/>
<path d="M189.8 35.4002C189.8 35.2002 189.7 34.9002 189.5 34.9002C189.3 34.9002 189.2 35.0002 189.1 35.2002C189.2 35.1002 189.4 35.1002 189.4 35.1002C189.5 35.1002 189.7 35.3002 189.6 35.5002L189.4 36.1002H189.8V35.4002ZM189.2 35.3002C189.1 35.3002 189.1 35.3002 189 35.5002V36.1002H189.1L189.3 35.5002C189.4 35.4002 189.3 35.3002 189.2 35.3002ZM188.8 36.2002V35.3002C188.8 34.8002 189.1 34.7002 189.4 34.7002C189.7 34.7002 190 34.9002 190 35.4002V36.3002L188.8 36.2002Z" fill="#231F20"/>
<path d="M191.3 35.0002C191.1 35.1002 191.1 35.4002 191.1 35.6002C191.1 35.9002 191.2 36.1002 191.3 36.1002C191.4 36.1002 191.5 35.9002 191.5 35.6002C191.5 35.4002 191.4 35.1002 191.3 35.0002ZM191.7 36.4002V36.2002C191.9 36.2002 191.9 36.0002 192 35.7002C192 35.3002 191.9 34.9002 191.5 35.0002C191.6 35.0002 191.7 35.3002 191.7 35.7002C191.7 35.8002 191.7 36.4002 191.2 36.4002C190.9 36.4002 190.8 36.1002 190.8 35.7002C190.8 35.3002 191 35.1002 191 35.0002C190.6 34.9002 190.5 35.3002 190.5 35.6002C190.5 35.9002 190.6 36.1002 190.7 36.1002V36.3002C190.4 36.3002 190.2 36.0002 190.2 35.5002C190.2 35.1002 190.4 34.7002 190.8 34.7002C191 34.7002 191.1 34.7002 191.1 34.8002C191.1 34.8002 191.3 34.7002 191.5 34.7002C191.9 34.7002 192.1 35.1002 192.1 35.5002C192.2 36.1002 192.1 36.4002 191.7 36.4002Z" fill="#231F20"/>
<path d="M192.3 34.8996C192.1 34.8996 191.9 34.7996 191.9 34.4996C191.9 34.2996 192 34.0996 192.2 34.0996V34.2996C192.1 34.2996 192.1 34.6996 192.3 34.6996C192.5 34.6996 192.5 34.2996 192.4 34.2996V34.0996C192.6 34.0996 192.7 34.2996 192.7 34.3996C192.6 34.7996 192.5 34.8996 192.3 34.8996Z" fill="#231F20"/>
<path d="M193.9 35.5996C193.9 35.8996 194 36.0996 194.2 36.0996C194.4 36.0996 194.5 35.8996 194.5 35.5996H193.9ZM194.2 34.9996C194 34.9996 193.9 35.1996 193.9 35.4996H194.5C194.5 35.1996 194.4 34.9996 194.2 34.9996ZM193.7 35.6996C193.6 35.6996 193.5 35.7996 193.5 35.9996C193.5 36.2996 193.8 36.1996 193.8 36.0996C193.7 35.9996 193.7 35.8996 193.7 35.6996ZM194.7 36.2996V36.0996C194.9 36.0996 194.9 35.9996 194.9 35.7996C194.9 35.6996 194.8 35.4996 194.7 35.4996C194.7 35.8996 194.5 36.1996 194.2 36.2996C194.1 36.2996 193.9 36.1996 193.9 36.0996C193.9 36.1996 193.8 36.2996 193.7 36.2996C193.5 36.2996 193.3 36.0996 193.3 35.6996C193.3 35.3996 193.5 35.2996 193.7 35.2996C193.7 34.8996 193.9 34.5996 194.2 34.5996C194.5 34.5996 194.7 34.8996 194.7 35.1996C195 35.1996 195.1 35.3996 195.1 35.5996C195.1 36.1996 195 36.2996 194.7 36.2996Z" fill="#231F20"/>
<path d="M195.6 35.8997C195.5 35.8997 195.4 36.0997 195.4 36.1997C195.4 36.2997 195.5 36.3997 195.6 36.3997C195.7 36.3997 195.8 36.2997 195.7 36.0997C195.8 35.9997 195.7 35.8997 195.6 35.8997ZM195.7 36.5997C195.5 36.5997 195.3 36.4997 195.3 36.1997C195.3 35.8997 195.5 35.7997 195.6 35.6997C195.6 35.6997 195.6 35.4997 195.7 35.1997C195.8 34.7997 195.5 34.7997 195.4 34.9997V34.7997C195.6 34.5997 196 34.6997 195.9 35.1997C195.8 35.5997 195.8 35.6997 195.8 35.6997C195.9 35.6997 196.1 35.7997 196.1 36.0997C196.1 36.3997 195.9 36.5997 195.7 36.5997Z" fill="#231F20"/>
<path d="M196.9 35.1C196.9 34.8 196.8 34.8 196.6 34.8C196.4 34.8 196.4 35 196.4 35.2V35.6H196.9V35.1ZM196.3 36.2L196.2 35.2C196.2 34.9 196.3 34.7 196.6 34.6C196.8 34.6 197.1 34.7 197.1 35.1V35.6L196.4 35.7V36L197.4 35.9L197.3 34.5H197.6L197.7 36L196.3 36.2Z" fill="#231F20"/>
<path d="M199.8 35.0001C199.7 35.0001 199.7 35.2001 199.7 35.4001C199.7 35.6001 199.8 35.7001 199.9 35.7001C200 35.7001 200 35.5001 200 35.3001C200 35.1001 199.9 34.9001 199.8 35.0001ZM200.4 35.8001V35.6001C200.6 35.5001 200.5 35.1001 200.5 35.0001C200.5 34.7001 200.3 34.4001 200 34.4001C199.7 34.4001 199.6 34.7001 199.6 34.9001C199.6 34.8001 199.7 34.7001 199.8 34.7001C200 34.7001 200.2 34.8001 200.2 35.1001C200.3 35.5001 200.1 35.7001 199.9 35.8001C199.7 35.8001 199.5 35.8001 199.4 35.1001C199.3 34.6001 199.5 34.3001 200 34.2001C200.5 34.1001 200.7 34.5001 200.7 34.9001C200.7 35.3001 200.7 35.7001 200.4 35.8001ZM198.4 35.2001C198.3 35.2001 198.3 35.4001 198.3 35.6001C198.3 35.8001 198.4 35.9001 198.5 35.9001C198.6 35.9001 198.6 35.7001 198.6 35.5001C198.6 35.3001 198.5 35.1001 198.4 35.2001ZM198.9 36.0001V35.8001C199.1 35.7001 199 35.3001 199 35.2001C199 34.9001 198.8 34.6001 198.5 34.7001C198.2 34.7001 198.1 35.0001 198.1 35.2001C198.1 35.1001 198.2 35.0001 198.3 35.0001C198.5 35.0001 198.7 35.1001 198.7 35.4001C198.8 35.8001 198.6 36.0001 198.4 36.1001C198.2 36.1001 198 36.1001 197.9 35.4001C197.8 34.9001 198 34.6001 198.5 34.5001C199 34.4001 199.2 34.8001 199.2 35.2001C199.3 35.5001 199.3 35.9001 198.9 36.0001Z" fill="#231F20"/>
<path d="M201.5 35.4998V35.2998C201.8 35.2998 201.9 35.0998 201.9 34.9998C201.9 34.6998 201.7 34.7998 201.5 34.7998V34.5998C201.6 34.5998 201.8 34.4998 201.8 34.2998C201.8 34.1998 201.7 33.9998 201.4 34.0998C201.2 34.1998 201.2 34.3998 201.2 34.6998L201.3 35.4998H201.1L201 34.5998C200.9 34.2998 201 33.9998 201.3 33.8998C201.6 33.7998 201.8 33.8998 201.9 33.9998C202 34.1998 202 34.4998 201.8 34.5998C202 34.5998 202.1 34.7998 202.2 34.9998C202.1 35.4998 201.7 35.5998 201.5 35.4998Z" fill="#231F20"/>
<path d="M203 35.2V35C203.2 35 203.2 34.6 203.2 34.4C203.2 34.1 203 33.8 202.8 33.9C202.5 34 202.5 34.3 202.6 34.6C202.7 34.9 202.8 35.1 202.9 35.1V35.3C202.6 35.4 202.4 35.1 202.3 34.7C202.2 34.3 202.3 33.9 202.7 33.8C203.2 33.7 203.3 34.1 203.4 34.4C203.4 34.7 203.4 35 203.3 35L203.8 34.9L203.5 33.6L203.7 33.5L204 35L203 35.2Z" fill="#231F20"/>
<path d="M205 33.3998C204.9 33.4998 204.9 33.8999 205 34.0999C205.1 34.3999 205.2 34.5998 205.3 34.4998C205.4 34.4998 205.4 34.1998 205.4 33.9998C205.3 33.6998 205.1 33.3998 205 33.3998ZM205.7 34.4998V34.2998C205.9 34.1998 205.9 33.9998 205.8 33.6998C205.7 33.2998 205.5 32.9998 205.2 33.1998C205.3 33.1998 205.5 33.3998 205.6 33.7998C205.6 33.8998 205.8 34.4999 205.3 34.5999C205 34.6999 204.8 34.4999 204.7 34.0999C204.6 33.6999 204.7 33.4998 204.8 33.3998C204.4 33.3998 204.4 33.7998 204.5 34.1998C204.6 34.4998 204.7 34.6999 204.8 34.5999V34.7998C204.5 34.8998 204.3 34.5998 204.2 34.1998C204.1 33.7998 204.2 33.3998 204.6 33.1998C204.8 33.1998 204.9 33.1998 205 33.1998C205 33.0998 205.1 33.0998 205.3 32.9998C205.7 32.8998 206 33.1999 206.1 33.5999C206.1 34.0999 206.1 34.3998 205.7 34.4998Z" fill="#231F20"/>
<path d="M206.6 33.6002C206.6 33.7002 206.6 33.9002 206.7 34.0002C206.8 34.1002 206.9 34.0002 207 33.9002C207 33.8002 207 33.6002 206.9 33.5002C206.8 33.4002 206.6 33.5002 206.6 33.6002ZM206.9 34.2002C206.7 34.3002 206.5 34.2002 206.4 33.9002C206.3 33.6002 206.4 33.4002 206.6 33.3002C206.9 33.2002 207.1 33.3002 207.1 33.6002C207.2 33.9002 207.1 34.1002 206.9 34.2002Z" fill="#231F20"/>
</svg>
