<svg width="360" height="562" viewBox="0 0 360 562" fill="none" xmlns="http://www.w3.org/2000/svg">
<rect x="31" y="44" width="128" height="130" rx="19" fill="black" stroke="white" stroke-width="2"/>
<path d="M46.7 118V103.8H41.1V100.5H56.35V103.8H50.75V118H46.7ZM66.4291 104.35C67.4958 104.35 68.4458 104.567 69.2791 105C70.1291 105.417 70.7958 106.067 71.2791 106.95C71.7624 107.817 72.0041 108.933 72.0041 110.3V118H68.1041V110.9C68.1041 109.817 67.8624 109.017 67.3791 108.5C66.9124 107.983 66.2458 107.725 65.3791 107.725C64.7624 107.725 64.2041 107.858 63.7041 108.125C63.2208 108.375 62.8374 108.767 62.5541 109.3C62.2874 109.833 62.1541 110.517 62.1541 111.35V118H58.2541V99.45H62.1541V108.275L61.2791 107.15C61.7624 106.25 62.4541 105.558 63.3541 105.075C64.2541 104.592 65.2791 104.35 66.4291 104.35ZM82.3119 118.2C80.7786 118.2 79.4286 117.9 78.2619 117.3C77.1119 116.7 76.2202 115.883 75.5869 114.85C74.9536 113.8 74.6369 112.608 74.6369 111.275C74.6369 109.925 74.9452 108.733 75.5619 107.7C76.1952 106.65 77.0536 105.833 78.1369 105.25C79.2202 104.65 80.4452 104.35 81.8119 104.35C83.1286 104.35 84.3119 104.633 85.3619 105.2C86.4286 105.75 87.2702 106.55 87.8869 107.6C88.5036 108.633 88.8119 109.875 88.8119 111.325C88.8119 111.475 88.8036 111.65 88.7869 111.85C88.7702 112.033 88.7536 112.208 88.7369 112.375H77.8119V110.1H86.6869L85.1869 110.775C85.1869 110.075 85.0452 109.467 84.7619 108.95C84.4786 108.433 84.0869 108.033 83.5869 107.75C83.0869 107.45 82.5036 107.3 81.8369 107.3C81.1702 107.3 80.5786 107.45 80.0619 107.75C79.5619 108.033 79.1702 108.442 78.8869 108.975C78.6036 109.492 78.4619 110.108 78.4619 110.825V111.425C78.4619 112.158 78.6202 112.808 78.9369 113.375C79.2702 113.925 79.7286 114.35 80.3119 114.65C80.9119 114.933 81.6119 115.075 82.4119 115.075C83.1286 115.075 83.7536 114.967 84.2869 114.75C84.8369 114.533 85.3369 114.208 85.7869 113.775L87.8619 116.025C87.2452 116.725 86.4702 117.267 85.5369 117.65C84.6036 118.017 83.5286 118.2 82.3119 118.2ZM108.633 104.35C109.7 104.35 110.642 104.567 111.458 105C112.292 105.417 112.942 106.067 113.408 106.95C113.892 107.817 114.133 108.933 114.133 110.3V118H110.233V110.9C110.233 109.817 110.008 109.017 109.558 108.5C109.108 107.983 108.475 107.725 107.658 107.725C107.092 107.725 106.583 107.858 106.133 108.125C105.683 108.375 105.333 108.758 105.083 109.275C104.833 109.792 104.708 110.45 104.708 111.25V118H100.808V110.9C100.808 109.817 100.583 109.017 100.133 108.5C99.7001 107.983 99.0751 107.725 98.2584 107.725C97.6917 107.725 97.1834 107.858 96.7334 108.125C96.2834 108.375 95.9334 108.758 95.6834 109.275C95.4334 109.792 95.3084 110.45 95.3084 111.25V118H91.4084V104.55H95.1334V108.225L94.4334 107.15C94.9001 106.233 95.5584 105.542 96.4084 105.075C97.2751 104.592 98.2584 104.35 99.3584 104.35C100.592 104.35 101.667 104.667 102.583 105.3C103.517 105.917 104.133 106.867 104.433 108.15L103.058 107.775C103.508 106.725 104.225 105.892 105.208 105.275C106.208 104.658 107.35 104.35 108.633 104.35ZM124.402 118.2C122.868 118.2 121.518 117.9 120.352 117.3C119.202 116.7 118.31 115.883 117.677 114.85C117.043 113.8 116.727 112.608 116.727 111.275C116.727 109.925 117.035 108.733 117.652 107.7C118.285 106.65 119.143 105.833 120.227 105.25C121.31 104.65 122.535 104.35 123.902 104.35C125.218 104.35 126.402 104.633 127.452 105.2C128.518 105.75 129.36 106.55 129.977 107.6C130.593 108.633 130.902 109.875 130.902 111.325C130.902 111.475 130.893 111.65 130.877 111.85C130.86 112.033 130.843 112.208 130.827 112.375H119.902V110.1H128.777L127.277 110.775C127.277 110.075 127.135 109.467 126.852 108.95C126.568 108.433 126.177 108.033 125.677 107.75C125.177 107.45 124.593 107.3 123.927 107.3C123.26 107.3 122.668 107.45 122.152 107.75C121.652 108.033 121.26 108.442 120.977 108.975C120.693 109.492 120.552 110.108 120.552 110.825V111.425C120.552 112.158 120.71 112.808 121.027 113.375C121.36 113.925 121.818 114.35 122.402 114.65C123.002 114.933 123.702 115.075 124.502 115.075C125.218 115.075 125.843 114.967 126.377 114.75C126.927 114.533 127.427 114.208 127.877 113.775L129.952 116.025C129.335 116.725 128.56 117.267 127.627 117.65C126.693 118.017 125.618 118.2 124.402 118.2ZM142.453 118V102L144.203 103.75H138.953V100.5H146.503V118H142.453Z" fill="white"/>
<rect x="31" y="209" width="128" height="130" rx="19" fill="black" stroke="white" stroke-width="2"/>
<path d="M43.7 283V268.8H38.1V265.5H53.35V268.8H47.75V283H43.7ZM63.4291 269.35C64.4958 269.35 65.4458 269.567 66.2791 270C67.1291 270.417 67.7958 271.067 68.2791 271.95C68.7624 272.817 69.0041 273.933 69.0041 275.3V283H65.1041V275.9C65.1041 274.817 64.8624 274.017 64.3791 273.5C63.9124 272.983 63.2458 272.725 62.3791 272.725C61.7624 272.725 61.2041 272.858 60.7041 273.125C60.2208 273.375 59.8374 273.767 59.5541 274.3C59.2874 274.833 59.1541 275.517 59.1541 276.35V283H55.2541V264.45H59.1541V273.275L58.2791 272.15C58.7624 271.25 59.4541 270.558 60.3541 270.075C61.2541 269.592 62.2791 269.35 63.4291 269.35ZM79.3119 283.2C77.7786 283.2 76.4286 282.9 75.2619 282.3C74.1119 281.7 73.2202 280.883 72.5869 279.85C71.9536 278.8 71.6369 277.608 71.6369 276.275C71.6369 274.925 71.9452 273.733 72.5619 272.7C73.1952 271.65 74.0536 270.833 75.1369 270.25C76.2202 269.65 77.4452 269.35 78.8119 269.35C80.1286 269.35 81.3119 269.633 82.3619 270.2C83.4286 270.75 84.2702 271.55 84.8869 272.6C85.5036 273.633 85.8119 274.875 85.8119 276.325C85.8119 276.475 85.8036 276.65 85.7869 276.85C85.7702 277.033 85.7536 277.208 85.7369 277.375H74.8119V275.1H83.6869L82.1869 275.775C82.1869 275.075 82.0452 274.467 81.7619 273.95C81.4786 273.433 81.0869 273.033 80.5869 272.75C80.0869 272.45 79.5036 272.3 78.8369 272.3C78.1702 272.3 77.5786 272.45 77.0619 272.75C76.5619 273.033 76.1702 273.442 75.8869 273.975C75.6036 274.492 75.4619 275.108 75.4619 275.825V276.425C75.4619 277.158 75.6202 277.808 75.9369 278.375C76.2702 278.925 76.7286 279.35 77.3119 279.65C77.9119 279.933 78.6119 280.075 79.4119 280.075C80.1286 280.075 80.7536 279.967 81.2869 279.75C81.8369 279.533 82.3369 279.208 82.7869 278.775L84.8619 281.025C84.2452 281.725 83.4702 282.267 82.5369 282.65C81.6036 283.017 80.5286 283.2 79.3119 283.2ZM105.633 269.35C106.7 269.35 107.642 269.567 108.458 270C109.292 270.417 109.942 271.067 110.408 271.95C110.892 272.817 111.133 273.933 111.133 275.3V283H107.233V275.9C107.233 274.817 107.008 274.017 106.558 273.5C106.108 272.983 105.475 272.725 104.658 272.725C104.092 272.725 103.583 272.858 103.133 273.125C102.683 273.375 102.333 273.758 102.083 274.275C101.833 274.792 101.708 275.45 101.708 276.25V283H97.8084V275.9C97.8084 274.817 97.5834 274.017 97.1334 273.5C96.7001 272.983 96.0751 272.725 95.2584 272.725C94.6917 272.725 94.1834 272.858 93.7334 273.125C93.2834 273.375 92.9334 273.758 92.6834 274.275C92.4334 274.792 92.3084 275.45 92.3084 276.25V283H88.4084V269.55H92.1334V273.225L91.4334 272.15C91.9001 271.233 92.5584 270.542 93.4084 270.075C94.2751 269.592 95.2584 269.35 96.3584 269.35C97.5917 269.35 98.6667 269.667 99.5834 270.3C100.517 270.917 101.133 271.867 101.433 273.15L100.058 272.775C100.508 271.725 101.225 270.892 102.208 270.275C103.208 269.658 104.35 269.35 105.633 269.35ZM121.402 283.2C119.868 283.2 118.518 282.9 117.352 282.3C116.202 281.7 115.31 280.883 114.677 279.85C114.043 278.8 113.727 277.608 113.727 276.275C113.727 274.925 114.035 273.733 114.652 272.7C115.285 271.65 116.143 270.833 117.227 270.25C118.31 269.65 119.535 269.35 120.902 269.35C122.218 269.35 123.402 269.633 124.452 270.2C125.518 270.75 126.36 271.55 126.977 272.6C127.593 273.633 127.902 274.875 127.902 276.325C127.902 276.475 127.893 276.65 127.877 276.85C127.86 277.033 127.843 277.208 127.827 277.375H116.902V275.1H125.777L124.277 275.775C124.277 275.075 124.135 274.467 123.852 273.95C123.568 273.433 123.177 273.033 122.677 272.75C122.177 272.45 121.593 272.3 120.927 272.3C120.26 272.3 119.668 272.45 119.152 272.75C118.652 273.033 118.26 273.442 117.977 273.975C117.693 274.492 117.552 275.108 117.552 275.825V276.425C117.552 277.158 117.71 277.808 118.027 278.375C118.36 278.925 118.818 279.35 119.402 279.65C120.002 279.933 120.702 280.075 121.502 280.075C122.218 280.075 122.843 279.967 123.377 279.75C123.927 279.533 124.427 279.208 124.877 278.775L126.952 281.025C126.335 281.725 125.56 282.267 124.627 282.65C123.693 283.017 122.618 283.2 121.402 283.2ZM142.428 283.3C141.212 283.3 140.003 283.142 138.803 282.825C137.603 282.492 136.587 282.025 135.753 281.425L137.328 278.325C137.995 278.808 138.77 279.192 139.653 279.475C140.537 279.758 141.428 279.9 142.328 279.9C143.345 279.9 144.145 279.7 144.728 279.3C145.312 278.9 145.603 278.35 145.603 277.65C145.603 276.983 145.345 276.458 144.828 276.075C144.312 275.692 143.478 275.5 142.328 275.5H140.478V272.825L145.353 267.3L145.803 268.75H136.628V265.5H148.878V268.125L144.028 273.65L141.978 272.475H143.153C145.303 272.475 146.928 272.958 148.028 273.925C149.128 274.892 149.678 276.133 149.678 277.65C149.678 278.633 149.42 279.558 148.903 280.425C148.387 281.275 147.595 281.967 146.528 282.5C145.462 283.033 144.095 283.3 142.428 283.3Z" fill="white"/>
<rect x="31" y="374" width="128" height="130" rx="19" fill="black" stroke="white" stroke-width="2"/>
<path d="M43.7 447V432.8H38.1V429.5H53.35V432.8H47.75V447H43.7ZM63.4291 433.35C64.4958 433.35 65.4458 433.567 66.2791 434C67.1291 434.417 67.7958 435.067 68.2791 435.95C68.7624 436.817 69.0041 437.933 69.0041 439.3V447H65.1041V439.9C65.1041 438.817 64.8624 438.017 64.3791 437.5C63.9124 436.983 63.2458 436.725 62.3791 436.725C61.7624 436.725 61.2041 436.858 60.7041 437.125C60.2208 437.375 59.8374 437.767 59.5541 438.3C59.2874 438.833 59.1541 439.517 59.1541 440.35V447H55.2541V428.45H59.1541V437.275L58.2791 436.15C58.7624 435.25 59.4541 434.558 60.3541 434.075C61.2541 433.592 62.2791 433.35 63.4291 433.35ZM79.3119 447.2C77.7786 447.2 76.4286 446.9 75.2619 446.3C74.1119 445.7 73.2202 444.883 72.5869 443.85C71.9536 442.8 71.6369 441.608 71.6369 440.275C71.6369 438.925 71.9452 437.733 72.5619 436.7C73.1952 435.65 74.0536 434.833 75.1369 434.25C76.2202 433.65 77.4452 433.35 78.8119 433.35C80.1286 433.35 81.3119 433.633 82.3619 434.2C83.4286 434.75 84.2702 435.55 84.8869 436.6C85.5036 437.633 85.8119 438.875 85.8119 440.325C85.8119 440.475 85.8036 440.65 85.7869 440.85C85.7702 441.033 85.7536 441.208 85.7369 441.375H74.8119V439.1H83.6869L82.1869 439.775C82.1869 439.075 82.0452 438.467 81.7619 437.95C81.4786 437.433 81.0869 437.033 80.5869 436.75C80.0869 436.45 79.5036 436.3 78.8369 436.3C78.1702 436.3 77.5786 436.45 77.0619 436.75C76.5619 437.033 76.1702 437.442 75.8869 437.975C75.6036 438.492 75.4619 439.108 75.4619 439.825V440.425C75.4619 441.158 75.6202 441.808 75.9369 442.375C76.2702 442.925 76.7286 443.35 77.3119 443.65C77.9119 443.933 78.6119 444.075 79.4119 444.075C80.1286 444.075 80.7536 443.967 81.2869 443.75C81.8369 443.533 82.3369 443.208 82.7869 442.775L84.8619 445.025C84.2452 445.725 83.4702 446.267 82.5369 446.65C81.6036 447.017 80.5286 447.2 79.3119 447.2ZM105.633 433.35C106.7 433.35 107.642 433.567 108.458 434C109.292 434.417 109.942 435.067 110.408 435.95C110.892 436.817 111.133 437.933 111.133 439.3V447H107.233V439.9C107.233 438.817 107.008 438.017 106.558 437.5C106.108 436.983 105.475 436.725 104.658 436.725C104.092 436.725 103.583 436.858 103.133 437.125C102.683 437.375 102.333 437.758 102.083 438.275C101.833 438.792 101.708 439.45 101.708 440.25V447H97.8084V439.9C97.8084 438.817 97.5834 438.017 97.1334 437.5C96.7001 436.983 96.0751 436.725 95.2584 436.725C94.6917 436.725 94.1834 436.858 93.7334 437.125C93.2834 437.375 92.9334 437.758 92.6834 438.275C92.4334 438.792 92.3084 439.45 92.3084 440.25V447H88.4084V433.55H92.1334V437.225L91.4334 436.15C91.9001 435.233 92.5584 434.542 93.4084 434.075C94.2751 433.592 95.2584 433.35 96.3584 433.35C97.5917 433.35 98.6667 433.667 99.5834 434.3C100.517 434.917 101.133 435.867 101.433 437.15L100.058 436.775C100.508 435.725 101.225 434.892 102.208 434.275C103.208 433.658 104.35 433.35 105.633 433.35ZM121.402 447.2C119.868 447.2 118.518 446.9 117.352 446.3C116.202 445.7 115.31 444.883 114.677 443.85C114.043 442.8 113.727 441.608 113.727 440.275C113.727 438.925 114.035 437.733 114.652 436.7C115.285 435.65 116.143 434.833 117.227 434.25C118.31 433.65 119.535 433.35 120.902 433.35C122.218 433.35 123.402 433.633 124.452 434.2C125.518 434.75 126.36 435.55 126.977 436.6C127.593 437.633 127.902 438.875 127.902 440.325C127.902 440.475 127.893 440.65 127.877 440.85C127.86 441.033 127.843 441.208 127.827 441.375H116.902V439.1H125.777L124.277 439.775C124.277 439.075 124.135 438.467 123.852 437.95C123.568 437.433 123.177 437.033 122.677 436.75C122.177 436.45 121.593 436.3 120.927 436.3C120.26 436.3 119.668 436.45 119.152 436.75C118.652 437.033 118.26 437.442 117.977 437.975C117.693 438.492 117.552 439.108 117.552 439.825V440.425C117.552 441.158 117.71 441.808 118.027 442.375C118.36 442.925 118.818 443.35 119.402 443.65C120.002 443.933 120.702 444.075 121.502 444.075C122.218 444.075 122.843 443.967 123.377 443.75C123.927 443.533 124.427 443.208 124.877 442.775L126.952 445.025C126.335 445.725 125.56 446.267 124.627 446.65C123.693 447.017 122.618 447.2 121.402 447.2ZM142.703 447.3C141.487 447.3 140.278 447.142 139.078 446.825C137.895 446.492 136.878 446.025 136.028 445.425L137.628 442.325C138.295 442.808 139.062 443.192 139.928 443.475C140.812 443.758 141.703 443.9 142.603 443.9C143.62 443.9 144.42 443.7 145.003 443.3C145.587 442.9 145.878 442.342 145.878 441.625C145.878 441.175 145.762 440.775 145.528 440.425C145.295 440.075 144.878 439.808 144.278 439.625C143.695 439.442 142.87 439.35 141.803 439.35H137.328L138.228 429.5H148.903V432.75H139.678L141.778 430.9L141.153 437.925L139.053 436.075H142.753C144.487 436.075 145.878 436.317 146.928 436.8C147.995 437.267 148.77 437.908 149.253 438.725C149.737 439.542 149.978 440.467 149.978 441.5C149.978 442.533 149.72 443.492 149.203 444.375C148.687 445.242 147.887 445.95 146.803 446.5C145.737 447.033 144.37 447.3 142.703 447.3Z" fill="white"/>
<rect x="201" y="44" width="128" height="130" rx="19" fill="black" stroke="white" stroke-width="2"/>
<path d="M213.7 117V102.8H208.1V99.5H223.35V102.8H217.75V117H213.7ZM233.429 103.35C234.496 103.35 235.446 103.567 236.279 104C237.129 104.417 237.796 105.067 238.279 105.95C238.762 106.817 239.004 107.933 239.004 109.3V117H235.104V109.9C235.104 108.817 234.862 108.017 234.379 107.5C233.912 106.983 233.246 106.725 232.379 106.725C231.762 106.725 231.204 106.858 230.704 107.125C230.221 107.375 229.837 107.767 229.554 108.3C229.287 108.833 229.154 109.517 229.154 110.35V117H225.254V98.45H229.154V107.275L228.279 106.15C228.762 105.25 229.454 104.558 230.354 104.075C231.254 103.592 232.279 103.35 233.429 103.35ZM249.312 117.2C247.779 117.2 246.429 116.9 245.262 116.3C244.112 115.7 243.22 114.883 242.587 113.85C241.954 112.8 241.637 111.608 241.637 110.275C241.637 108.925 241.945 107.733 242.562 106.7C243.195 105.65 244.054 104.833 245.137 104.25C246.22 103.65 247.445 103.35 248.812 103.35C250.129 103.35 251.312 103.633 252.362 104.2C253.429 104.75 254.27 105.55 254.887 106.6C255.504 107.633 255.812 108.875 255.812 110.325C255.812 110.475 255.804 110.65 255.787 110.85C255.77 111.033 255.754 111.208 255.737 111.375H244.812V109.1H253.687L252.187 109.775C252.187 109.075 252.045 108.467 251.762 107.95C251.479 107.433 251.087 107.033 250.587 106.75C250.087 106.45 249.504 106.3 248.837 106.3C248.17 106.3 247.579 106.45 247.062 106.75C246.562 107.033 246.17 107.442 245.887 107.975C245.604 108.492 245.462 109.108 245.462 109.825V110.425C245.462 111.158 245.62 111.808 245.937 112.375C246.27 112.925 246.729 113.35 247.312 113.65C247.912 113.933 248.612 114.075 249.412 114.075C250.129 114.075 250.754 113.967 251.287 113.75C251.837 113.533 252.337 113.208 252.787 112.775L254.862 115.025C254.245 115.725 253.47 116.267 252.537 116.65C251.604 117.017 250.529 117.2 249.312 117.2ZM275.633 103.35C276.7 103.35 277.642 103.567 278.458 104C279.292 104.417 279.942 105.067 280.408 105.95C280.892 106.817 281.133 107.933 281.133 109.3V117H277.233V109.9C277.233 108.817 277.008 108.017 276.558 107.5C276.108 106.983 275.475 106.725 274.658 106.725C274.092 106.725 273.583 106.858 273.133 107.125C272.683 107.375 272.333 107.758 272.083 108.275C271.833 108.792 271.708 109.45 271.708 110.25V117H267.808V109.9C267.808 108.817 267.583 108.017 267.133 107.5C266.7 106.983 266.075 106.725 265.258 106.725C264.692 106.725 264.183 106.858 263.733 107.125C263.283 107.375 262.933 107.758 262.683 108.275C262.433 108.792 262.308 109.45 262.308 110.25V117H258.408V103.55H262.133V107.225L261.433 106.15C261.9 105.233 262.558 104.542 263.408 104.075C264.275 103.592 265.258 103.35 266.358 103.35C267.592 103.35 268.667 103.667 269.583 104.3C270.517 104.917 271.133 105.867 271.433 107.15L270.058 106.775C270.508 105.725 271.225 104.892 272.208 104.275C273.208 103.658 274.35 103.35 275.633 103.35ZM291.402 117.2C289.868 117.2 288.518 116.9 287.352 116.3C286.202 115.7 285.31 114.883 284.677 113.85C284.043 112.8 283.727 111.608 283.727 110.275C283.727 108.925 284.035 107.733 284.652 106.7C285.285 105.65 286.143 104.833 287.227 104.25C288.31 103.65 289.535 103.35 290.902 103.35C292.218 103.35 293.402 103.633 294.452 104.2C295.518 104.75 296.36 105.55 296.977 106.6C297.593 107.633 297.902 108.875 297.902 110.325C297.902 110.475 297.893 110.65 297.877 110.85C297.86 111.033 297.843 111.208 297.827 111.375H286.902V109.1H295.777L294.277 109.775C294.277 109.075 294.135 108.467 293.852 107.95C293.568 107.433 293.177 107.033 292.677 106.75C292.177 106.45 291.593 106.3 290.927 106.3C290.26 106.3 289.668 106.45 289.152 106.75C288.652 107.033 288.26 107.442 287.977 107.975C287.693 108.492 287.552 109.108 287.552 109.825V110.425C287.552 111.158 287.71 111.808 288.027 112.375C288.36 112.925 288.818 113.35 289.402 113.65C290.002 113.933 290.702 114.075 291.502 114.075C292.218 114.075 292.843 113.967 293.377 113.75C293.927 113.533 294.427 113.208 294.877 112.775L296.952 115.025C296.335 115.725 295.56 116.267 294.627 116.65C293.693 117.017 292.618 117.2 291.402 117.2ZM306.603 117V114.375L313.353 108C313.887 107.517 314.278 107.083 314.528 106.7C314.778 106.317 314.945 105.967 315.028 105.65C315.128 105.333 315.178 105.042 315.178 104.775C315.178 104.075 314.937 103.542 314.453 103.175C313.987 102.792 313.295 102.6 312.378 102.6C311.645 102.6 310.962 102.742 310.328 103.025C309.712 103.308 309.187 103.75 308.753 104.35L305.803 102.45C306.47 101.45 307.403 100.658 308.603 100.075C309.803 99.4917 311.187 99.2 312.753 99.2C314.053 99.2 315.187 99.4167 316.153 99.85C317.137 100.267 317.895 100.858 318.428 101.625C318.978 102.392 319.253 103.308 319.253 104.375C319.253 104.942 319.178 105.508 319.028 106.075C318.895 106.625 318.612 107.208 318.178 107.825C317.762 108.442 317.145 109.133 316.328 109.9L310.728 115.175L309.953 113.7H319.828V117H306.603Z" fill="white"/>
<rect x="201" y="209" width="128" height="130" rx="19" fill="black" stroke="white" stroke-width="2"/>
<path d="M212.7 282V267.8H207.1V264.5H222.35V267.8H216.75V282H212.7ZM232.429 268.35C233.496 268.35 234.446 268.567 235.279 269C236.129 269.417 236.796 270.067 237.279 270.95C237.762 271.817 238.004 272.933 238.004 274.3V282H234.104V274.9C234.104 273.817 233.862 273.017 233.379 272.5C232.912 271.983 232.246 271.725 231.379 271.725C230.762 271.725 230.204 271.858 229.704 272.125C229.221 272.375 228.837 272.767 228.554 273.3C228.287 273.833 228.154 274.517 228.154 275.35V282H224.254V263.45H228.154V272.275L227.279 271.15C227.762 270.25 228.454 269.558 229.354 269.075C230.254 268.592 231.279 268.35 232.429 268.35ZM248.312 282.2C246.779 282.2 245.429 281.9 244.262 281.3C243.112 280.7 242.22 279.883 241.587 278.85C240.954 277.8 240.637 276.608 240.637 275.275C240.637 273.925 240.945 272.733 241.562 271.7C242.195 270.65 243.054 269.833 244.137 269.25C245.22 268.65 246.445 268.35 247.812 268.35C249.129 268.35 250.312 268.633 251.362 269.2C252.429 269.75 253.27 270.55 253.887 271.6C254.504 272.633 254.812 273.875 254.812 275.325C254.812 275.475 254.804 275.65 254.787 275.85C254.77 276.033 254.754 276.208 254.737 276.375H243.812V274.1H252.687L251.187 274.775C251.187 274.075 251.045 273.467 250.762 272.95C250.479 272.433 250.087 272.033 249.587 271.75C249.087 271.45 248.504 271.3 247.837 271.3C247.17 271.3 246.579 271.45 246.062 271.75C245.562 272.033 245.17 272.442 244.887 272.975C244.604 273.492 244.462 274.108 244.462 274.825V275.425C244.462 276.158 244.62 276.808 244.937 277.375C245.27 277.925 245.729 278.35 246.312 278.65C246.912 278.933 247.612 279.075 248.412 279.075C249.129 279.075 249.754 278.967 250.287 278.75C250.837 278.533 251.337 278.208 251.787 277.775L253.862 280.025C253.245 280.725 252.47 281.267 251.537 281.65C250.604 282.017 249.529 282.2 248.312 282.2ZM274.633 268.35C275.7 268.35 276.642 268.567 277.458 269C278.292 269.417 278.942 270.067 279.408 270.95C279.892 271.817 280.133 272.933 280.133 274.3V282H276.233V274.9C276.233 273.817 276.008 273.017 275.558 272.5C275.108 271.983 274.475 271.725 273.658 271.725C273.092 271.725 272.583 271.858 272.133 272.125C271.683 272.375 271.333 272.758 271.083 273.275C270.833 273.792 270.708 274.45 270.708 275.25V282H266.808V274.9C266.808 273.817 266.583 273.017 266.133 272.5C265.7 271.983 265.075 271.725 264.258 271.725C263.692 271.725 263.183 271.858 262.733 272.125C262.283 272.375 261.933 272.758 261.683 273.275C261.433 273.792 261.308 274.45 261.308 275.25V282H257.408V268.55H261.133V272.225L260.433 271.15C260.9 270.233 261.558 269.542 262.408 269.075C263.275 268.592 264.258 268.35 265.358 268.35C266.592 268.35 267.667 268.667 268.583 269.3C269.517 269.917 270.133 270.867 270.433 272.15L269.058 271.775C269.508 270.725 270.225 269.892 271.208 269.275C272.208 268.658 273.35 268.35 274.633 268.35ZM290.402 282.2C288.868 282.2 287.518 281.9 286.352 281.3C285.202 280.7 284.31 279.883 283.677 278.85C283.043 277.8 282.727 276.608 282.727 275.275C282.727 273.925 283.035 272.733 283.652 271.7C284.285 270.65 285.143 269.833 286.227 269.25C287.31 268.65 288.535 268.35 289.902 268.35C291.218 268.35 292.402 268.633 293.452 269.2C294.518 269.75 295.36 270.55 295.977 271.6C296.593 272.633 296.902 273.875 296.902 275.325C296.902 275.475 296.893 275.65 296.877 275.85C296.86 276.033 296.843 276.208 296.827 276.375H285.902V274.1H294.777L293.277 274.775C293.277 274.075 293.135 273.467 292.852 272.95C292.568 272.433 292.177 272.033 291.677 271.75C291.177 271.45 290.593 271.3 289.927 271.3C289.26 271.3 288.668 271.45 288.152 271.75C287.652 272.033 287.26 272.442 286.977 272.975C286.693 273.492 286.552 274.108 286.552 274.825V275.425C286.552 276.158 286.71 276.808 287.027 277.375C287.36 277.925 287.818 278.35 288.402 278.65C289.002 278.933 289.702 279.075 290.502 279.075C291.218 279.075 291.843 278.967 292.377 278.75C292.927 278.533 293.427 278.208 293.877 277.775L295.952 280.025C295.335 280.725 294.56 281.267 293.627 281.65C292.693 282.017 291.618 282.2 290.402 282.2ZM305.553 278.325V275.6L313.803 264.5H318.053L309.978 275.6L308.003 275.025H321.778V278.325H305.553ZM314.978 282V278.325L315.103 275.025V271.75H318.928V282H314.978Z" fill="white"/>
<rect x="201" y="374" width="128" height="130" rx="19" fill="black" stroke="white" stroke-width="2"/>
<path d="M213.7 447V432.8H208.1V429.5H223.35V432.8H217.75V447H213.7ZM233.429 433.35C234.496 433.35 235.446 433.567 236.279 434C237.129 434.417 237.796 435.067 238.279 435.95C238.762 436.817 239.004 437.933 239.004 439.3V447H235.104V439.9C235.104 438.817 234.862 438.017 234.379 437.5C233.912 436.983 233.246 436.725 232.379 436.725C231.762 436.725 231.204 436.858 230.704 437.125C230.221 437.375 229.837 437.767 229.554 438.3C229.287 438.833 229.154 439.517 229.154 440.35V447H225.254V428.45H229.154V437.275L228.279 436.15C228.762 435.25 229.454 434.558 230.354 434.075C231.254 433.592 232.279 433.35 233.429 433.35ZM249.312 447.2C247.779 447.2 246.429 446.9 245.262 446.3C244.112 445.7 243.22 444.883 242.587 443.85C241.954 442.8 241.637 441.608 241.637 440.275C241.637 438.925 241.945 437.733 242.562 436.7C243.195 435.65 244.054 434.833 245.137 434.25C246.22 433.65 247.445 433.35 248.812 433.35C250.129 433.35 251.312 433.633 252.362 434.2C253.429 434.75 254.27 435.55 254.887 436.6C255.504 437.633 255.812 438.875 255.812 440.325C255.812 440.475 255.804 440.65 255.787 440.85C255.77 441.033 255.754 441.208 255.737 441.375H244.812V439.1H253.687L252.187 439.775C252.187 439.075 252.045 438.467 251.762 437.95C251.479 437.433 251.087 437.033 250.587 436.75C250.087 436.45 249.504 436.3 248.837 436.3C248.17 436.3 247.579 436.45 247.062 436.75C246.562 437.033 246.17 437.442 245.887 437.975C245.604 438.492 245.462 439.108 245.462 439.825V440.425C245.462 441.158 245.62 441.808 245.937 442.375C246.27 442.925 246.729 443.35 247.312 443.65C247.912 443.933 248.612 444.075 249.412 444.075C250.129 444.075 250.754 443.967 251.287 443.75C251.837 443.533 252.337 443.208 252.787 442.775L254.862 445.025C254.245 445.725 253.47 446.267 252.537 446.65C251.604 447.017 250.529 447.2 249.312 447.2ZM275.633 433.35C276.7 433.35 277.642 433.567 278.458 434C279.292 434.417 279.942 435.067 280.408 435.95C280.892 436.817 281.133 437.933 281.133 439.3V447H277.233V439.9C277.233 438.817 277.008 438.017 276.558 437.5C276.108 436.983 275.475 436.725 274.658 436.725C274.092 436.725 273.583 436.858 273.133 437.125C272.683 437.375 272.333 437.758 272.083 438.275C271.833 438.792 271.708 439.45 271.708 440.25V447H267.808V439.9C267.808 438.817 267.583 438.017 267.133 437.5C266.7 436.983 266.075 436.725 265.258 436.725C264.692 436.725 264.183 436.858 263.733 437.125C263.283 437.375 262.933 437.758 262.683 438.275C262.433 438.792 262.308 439.45 262.308 440.25V447H258.408V433.55H262.133V437.225L261.433 436.15C261.9 435.233 262.558 434.542 263.408 434.075C264.275 433.592 265.258 433.35 266.358 433.35C267.592 433.35 268.667 433.667 269.583 434.3C270.517 434.917 271.133 435.867 271.433 437.15L270.058 436.775C270.508 435.725 271.225 434.892 272.208 434.275C273.208 433.658 274.35 433.35 275.633 433.35ZM291.402 447.2C289.868 447.2 288.518 446.9 287.352 446.3C286.202 445.7 285.31 444.883 284.677 443.85C284.043 442.8 283.727 441.608 283.727 440.275C283.727 438.925 284.035 437.733 284.652 436.7C285.285 435.65 286.143 434.833 287.227 434.25C288.31 433.65 289.535 433.35 290.902 433.35C292.218 433.35 293.402 433.633 294.452 434.2C295.518 434.75 296.36 435.55 296.977 436.6C297.593 437.633 297.902 438.875 297.902 440.325C297.902 440.475 297.893 440.65 297.877 440.85C297.86 441.033 297.843 441.208 297.827 441.375H286.902V439.1H295.777L294.277 439.775C294.277 439.075 294.135 438.467 293.852 437.95C293.568 437.433 293.177 437.033 292.677 436.75C292.177 436.45 291.593 436.3 290.927 436.3C290.26 436.3 289.668 436.45 289.152 436.75C288.652 437.033 288.26 437.442 287.977 437.975C287.693 438.492 287.552 439.108 287.552 439.825V440.425C287.552 441.158 287.71 441.808 288.027 442.375C288.36 442.925 288.818 443.35 289.402 443.65C290.002 443.933 290.702 444.075 291.502 444.075C292.218 444.075 292.843 443.967 293.377 443.75C293.927 443.533 294.427 443.208 294.877 442.775L296.952 445.025C296.335 445.725 295.56 446.267 294.627 446.65C293.693 447.017 292.618 447.2 291.402 447.2ZM314.578 447.3C312.978 447.3 311.587 446.967 310.403 446.3C309.237 445.633 308.337 444.658 307.703 443.375C307.07 442.092 306.753 440.508 306.753 438.625C306.753 436.608 307.128 434.9 307.878 433.5C308.645 432.1 309.695 431.033 311.028 430.3C312.378 429.567 313.928 429.2 315.678 429.2C316.612 429.2 317.503 429.3 318.353 429.5C319.203 429.7 319.937 430 320.553 430.4L319.053 433.375C318.57 433.042 318.053 432.817 317.503 432.7C316.953 432.567 316.378 432.5 315.778 432.5C314.262 432.5 313.062 432.958 312.178 433.875C311.295 434.792 310.853 436.15 310.853 437.95C310.853 438.25 310.853 438.583 310.853 438.95C310.87 439.317 310.92 439.683 311.003 440.05L309.878 439C310.195 438.35 310.603 437.808 311.103 437.375C311.603 436.925 312.195 436.592 312.878 436.375C313.578 436.142 314.345 436.025 315.178 436.025C316.312 436.025 317.328 436.25 318.228 436.7C319.128 437.15 319.845 437.783 320.378 438.6C320.928 439.417 321.203 440.375 321.203 441.475C321.203 442.658 320.903 443.692 320.303 444.575C319.72 445.442 318.928 446.117 317.928 446.6C316.945 447.067 315.828 447.3 314.578 447.3ZM314.353 444.275C314.92 444.275 315.42 444.175 315.853 443.975C316.303 443.758 316.653 443.45 316.903 443.05C317.153 442.65 317.278 442.192 317.278 441.675C317.278 440.875 317.003 440.242 316.453 439.775C315.92 439.292 315.203 439.05 314.303 439.05C313.703 439.05 313.178 439.167 312.728 439.4C312.278 439.617 311.92 439.925 311.653 440.325C311.403 440.708 311.278 441.158 311.278 441.675C311.278 442.175 311.403 442.625 311.653 443.025C311.903 443.408 312.253 443.717 312.703 443.95C313.153 444.167 313.703 444.275 314.353 444.275Z" fill="white"/>
<rect width="360" height="562" rx="30" fill="#003C3C" fill-opacity="0.85"/>
<path d="M100.108 289L96.5682 278.5H97.7082L101.023 288.385H100.453L103.873 278.5H104.893L108.268 288.385H107.728L111.073 278.5H112.138L108.598 289H107.428L104.203 279.625H104.503L101.263 289H100.108ZM116.693 289.075C115.873 289.075 115.153 288.905 114.533 288.565C113.913 288.215 113.428 287.74 113.078 287.14C112.728 286.53 112.553 285.835 112.553 285.055C112.553 284.275 112.718 283.585 113.048 282.985C113.388 282.385 113.848 281.915 114.428 281.575C115.018 281.225 115.678 281.05 116.408 281.05C117.148 281.05 117.803 281.22 118.373 281.56C118.953 281.89 119.408 282.36 119.738 282.97C120.068 283.57 120.233 284.265 120.233 285.055C120.233 285.105 120.228 285.16 120.218 285.22C120.218 285.27 120.218 285.325 120.218 285.385H113.363V284.59H119.648L119.228 284.905C119.228 284.335 119.103 283.83 118.853 283.39C118.613 282.94 118.283 282.59 117.863 282.34C117.443 282.09 116.958 281.965 116.408 281.965C115.868 281.965 115.383 282.09 114.953 282.34C114.523 282.59 114.188 282.94 113.948 283.39C113.708 283.84 113.588 284.355 113.588 284.935V285.1C113.588 285.7 113.718 286.23 113.978 286.69C114.248 287.14 114.618 287.495 115.088 287.755C115.568 288.005 116.113 288.13 116.723 288.13C117.203 288.13 117.648 288.045 118.058 287.875C118.478 287.705 118.838 287.445 119.138 287.095L119.738 287.785C119.388 288.205 118.948 288.525 118.418 288.745C117.898 288.965 117.323 289.075 116.693 289.075ZM121.726 281.53L122.386 278.77L122.506 279.4C122.276 279.4 122.081 279.33 121.921 279.19C121.771 279.04 121.696 278.845 121.696 278.605C121.696 278.365 121.771 278.17 121.921 278.02C122.081 277.87 122.271 277.795 122.491 277.795C122.721 277.795 122.906 277.875 123.046 278.035C123.196 278.185 123.271 278.375 123.271 278.605C123.271 278.685 123.266 278.765 123.256 278.845C123.246 278.925 123.226 279.015 123.196 279.115C123.176 279.205 123.141 279.32 123.091 279.46L122.446 281.53H121.726ZM125.55 289V277.87H126.615V289H125.55ZM129.578 289V277.87H130.643V289H129.578ZM136.077 289L140.877 278.5H141.972L146.772 289H145.602L141.192 279.145H141.642L137.232 289H136.077ZM137.967 286.195L138.297 285.295H144.402L144.732 286.195H137.967ZM152.304 281.05C152.944 281.05 153.504 281.175 153.984 281.425C154.474 281.665 154.854 282.035 155.124 282.535C155.404 283.035 155.544 283.665 155.544 284.425V289H154.479V284.53C154.479 283.7 154.269 283.075 153.849 282.655C153.439 282.225 152.859 282.01 152.109 282.01C151.549 282.01 151.059 282.125 150.639 282.355C150.229 282.575 149.909 282.9 149.679 283.33C149.459 283.75 149.349 284.26 149.349 284.86V289H148.284V281.125H149.304V283.285L149.139 282.88C149.389 282.31 149.789 281.865 150.339 281.545C150.889 281.215 151.544 281.05 152.304 281.05ZM162.441 281.05C163.081 281.05 163.641 281.175 164.121 281.425C164.611 281.665 164.991 282.035 165.261 282.535C165.541 283.035 165.681 283.665 165.681 284.425V289H164.616V284.53C164.616 283.7 164.406 283.075 163.986 282.655C163.576 282.225 162.996 282.01 162.246 282.01C161.686 282.01 161.196 282.125 160.776 282.355C160.366 282.575 160.046 282.9 159.816 283.33C159.596 283.75 159.486 284.26 159.486 284.86V289H158.421V281.125H159.441V283.285L159.276 282.88C159.526 282.31 159.926 281.865 160.476 281.545C161.026 281.215 161.681 281.05 162.441 281.05ZM171.768 289.075C171.008 289.075 170.323 288.905 169.713 288.565C169.113 288.215 168.638 287.74 168.288 287.14C167.938 286.53 167.763 285.835 167.763 285.055C167.763 284.265 167.938 283.57 168.288 282.97C168.638 282.37 169.113 281.9 169.713 281.56C170.313 281.22 170.998 281.05 171.768 281.05C172.548 281.05 173.238 281.22 173.838 281.56C174.448 281.9 174.923 282.37 175.263 282.97C175.613 283.57 175.788 284.265 175.788 285.055C175.788 285.835 175.613 286.53 175.263 287.14C174.923 287.74 174.448 288.215 173.838 288.565C173.228 288.905 172.538 289.075 171.768 289.075ZM171.768 288.13C172.338 288.13 172.843 288.005 173.283 287.755C173.723 287.495 174.068 287.135 174.318 286.675C174.578 286.205 174.708 285.665 174.708 285.055C174.708 284.435 174.578 283.895 174.318 283.435C174.068 282.975 173.723 282.62 173.283 282.37C172.843 282.11 172.343 281.98 171.783 281.98C171.223 281.98 170.723 282.11 170.283 282.37C169.843 282.62 169.493 282.975 169.233 283.435C168.973 283.895 168.843 284.435 168.843 285.055C168.843 285.665 168.973 286.205 169.233 286.675C169.493 287.135 169.843 287.495 170.283 287.755C170.723 288.005 171.218 288.13 171.768 288.13ZM181.217 289.075C180.547 289.075 179.962 288.95 179.462 288.7C178.962 288.45 178.572 288.075 178.292 287.575C178.022 287.075 177.887 286.45 177.887 285.7V281.125H178.952V285.58C178.952 286.42 179.157 287.055 179.567 287.485C179.987 287.905 180.572 288.115 181.322 288.115C181.872 288.115 182.347 288.005 182.747 287.785C183.157 287.555 183.467 287.225 183.677 286.795C183.897 286.365 184.007 285.85 184.007 285.25V281.125H185.072V289H184.052V286.84L184.217 287.23C183.967 287.81 183.577 288.265 183.047 288.595C182.527 288.915 181.917 289.075 181.217 289.075ZM192.06 281.05C192.7 281.05 193.26 281.175 193.74 281.425C194.23 281.665 194.61 282.035 194.88 282.535C195.16 283.035 195.3 283.665 195.3 284.425V289H194.235V284.53C194.235 283.7 194.025 283.075 193.605 282.655C193.195 282.225 192.615 282.01 191.865 282.01C191.305 282.01 190.815 282.125 190.395 282.355C189.985 282.575 189.665 282.9 189.435 283.33C189.215 283.75 189.105 284.26 189.105 284.86V289H188.04V281.125H189.06V283.285L188.895 282.88C189.145 282.31 189.545 281.865 190.095 281.545C190.645 281.215 191.3 281.05 192.06 281.05ZM201.447 289.075C200.667 289.075 199.967 288.905 199.347 288.565C198.737 288.215 198.257 287.74 197.907 287.14C197.557 286.53 197.382 285.835 197.382 285.055C197.382 284.265 197.557 283.57 197.907 282.97C198.257 282.37 198.737 281.9 199.347 281.56C199.967 281.22 200.667 281.05 201.447 281.05C202.117 281.05 202.722 281.18 203.262 281.44C203.802 281.7 204.227 282.09 204.537 282.61L203.742 283.15C203.472 282.75 203.137 282.455 202.737 282.265C202.337 282.075 201.902 281.98 201.432 281.98C200.872 281.98 200.367 282.11 199.917 282.37C199.467 282.62 199.112 282.975 198.852 283.435C198.592 283.895 198.462 284.435 198.462 285.055C198.462 285.675 198.592 286.215 198.852 286.675C199.112 287.135 199.467 287.495 199.917 287.755C200.367 288.005 200.872 288.13 201.432 288.13C201.902 288.13 202.337 288.035 202.737 287.845C203.137 287.655 203.472 287.365 203.742 286.975L204.537 287.515C204.227 288.025 203.802 288.415 203.262 288.685C202.722 288.945 202.117 289.075 201.447 289.075ZM209.842 289.075C209.022 289.075 208.302 288.905 207.682 288.565C207.062 288.215 206.577 287.74 206.227 287.14C205.877 286.53 205.702 285.835 205.702 285.055C205.702 284.275 205.867 283.585 206.197 282.985C206.537 282.385 206.997 281.915 207.577 281.575C208.167 281.225 208.827 281.05 209.557 281.05C210.297 281.05 210.952 281.22 211.522 281.56C212.102 281.89 212.557 282.36 212.887 282.97C213.217 283.57 213.382 284.265 213.382 285.055C213.382 285.105 213.377 285.16 213.367 285.22C213.367 285.27 213.367 285.325 213.367 285.385H206.512V284.59H212.797L212.377 284.905C212.377 284.335 212.252 283.83 212.002 283.39C211.762 282.94 211.432 282.59 211.012 282.34C210.592 282.09 210.107 281.965 209.557 281.965C209.017 281.965 208.532 282.09 208.102 282.34C207.672 282.59 207.337 282.94 207.097 283.39C206.857 283.84 206.737 284.355 206.737 284.935V285.1C206.737 285.7 206.867 286.23 207.127 286.69C207.397 287.14 207.767 287.495 208.237 287.755C208.717 288.005 209.262 288.13 209.872 288.13C210.352 288.13 210.797 288.045 211.207 287.875C211.627 287.705 211.987 287.445 212.287 287.095L212.887 287.785C212.537 288.205 212.097 288.525 211.567 288.745C211.047 288.965 210.472 289.075 209.842 289.075ZM222.596 289.09C221.816 289.09 221.066 288.965 220.346 288.715C219.636 288.455 219.086 288.125 218.696 287.725L219.131 286.87C219.501 287.23 219.996 287.535 220.616 287.785C221.246 288.025 221.906 288.145 222.596 288.145C223.256 288.145 223.791 288.065 224.201 287.905C224.621 287.735 224.926 287.51 225.116 287.23C225.316 286.95 225.416 286.64 225.416 286.3C225.416 285.89 225.296 285.56 225.056 285.31C224.826 285.06 224.521 284.865 224.141 284.725C223.761 284.575 223.341 284.445 222.881 284.335C222.421 284.225 221.961 284.11 221.501 283.99C221.041 283.86 220.616 283.69 220.226 283.48C219.846 283.27 219.536 282.995 219.296 282.655C219.066 282.305 218.951 281.85 218.951 281.29C218.951 280.77 219.086 280.295 219.356 279.865C219.636 279.425 220.061 279.075 220.631 278.815C221.201 278.545 221.931 278.41 222.821 278.41C223.411 278.41 223.996 278.495 224.576 278.665C225.156 278.825 225.656 279.05 226.076 279.34L225.701 280.225C225.251 279.925 224.771 279.705 224.261 279.565C223.761 279.425 223.276 279.355 222.806 279.355C222.176 279.355 221.656 279.44 221.246 279.61C220.836 279.78 220.531 280.01 220.331 280.3C220.141 280.58 220.046 280.9 220.046 281.26C220.046 281.67 220.161 282 220.391 282.25C220.631 282.5 220.941 282.695 221.321 282.835C221.711 282.975 222.136 283.1 222.596 283.21C223.056 283.32 223.511 283.44 223.961 283.57C224.421 283.7 224.841 283.87 225.221 284.08C225.611 284.28 225.921 284.55 226.151 284.89C226.391 285.23 226.511 285.675 226.511 286.225C226.511 286.735 226.371 287.21 226.091 287.65C225.811 288.08 225.381 288.43 224.801 288.7C224.231 288.96 223.496 289.09 222.596 289.09ZM231.914 289.075C231.154 289.075 230.469 288.905 229.859 288.565C229.259 288.215 228.784 287.74 228.434 287.14C228.084 286.53 227.909 285.835 227.909 285.055C227.909 284.265 228.084 283.57 228.434 282.97C228.784 282.37 229.259 281.9 229.859 281.56C230.459 281.22 231.144 281.05 231.914 281.05C232.694 281.05 233.384 281.22 233.984 281.56C234.594 281.9 235.069 282.37 235.409 282.97C235.759 283.57 235.934 284.265 235.934 285.055C235.934 285.835 235.759 286.53 235.409 287.14C235.069 287.74 234.594 288.215 233.984 288.565C233.374 288.905 232.684 289.075 231.914 289.075ZM231.914 288.13C232.484 288.13 232.989 288.005 233.429 287.755C233.869 287.495 234.214 287.135 234.464 286.675C234.724 286.205 234.854 285.665 234.854 285.055C234.854 284.435 234.724 283.895 234.464 283.435C234.214 282.975 233.869 282.62 233.429 282.37C232.989 282.11 232.489 281.98 231.929 281.98C231.369 281.98 230.869 282.11 230.429 282.37C229.989 282.62 229.639 282.975 229.379 283.435C229.119 283.895 228.989 284.435 228.989 285.055C228.989 285.665 229.119 286.205 229.379 286.675C229.639 287.135 229.989 287.495 230.429 287.755C230.869 288.005 231.364 288.13 231.914 288.13ZM241.319 289.075C240.559 289.075 239.874 288.905 239.264 288.565C238.664 288.215 238.189 287.74 237.839 287.14C237.489 286.53 237.314 285.835 237.314 285.055C237.314 284.265 237.489 283.57 237.839 282.97C238.189 282.37 238.664 281.9 239.264 281.56C239.864 281.22 240.549 281.05 241.319 281.05C242.099 281.05 242.789 281.22 243.389 281.56C243.999 281.9 244.474 282.37 244.814 282.97C245.164 283.57 245.339 284.265 245.339 285.055C245.339 285.835 245.164 286.53 244.814 287.14C244.474 287.74 243.999 288.215 243.389 288.565C242.779 288.905 242.089 289.075 241.319 289.075ZM241.319 288.13C241.889 288.13 242.394 288.005 242.834 287.755C243.274 287.495 243.619 287.135 243.869 286.675C244.129 286.205 244.259 285.665 244.259 285.055C244.259 284.435 244.129 283.895 243.869 283.435C243.619 282.975 243.274 282.62 242.834 282.37C242.394 282.11 241.894 281.98 241.334 281.98C240.774 281.98 240.274 282.11 239.834 282.37C239.394 282.62 239.044 282.975 238.784 283.435C238.524 283.895 238.394 284.435 238.394 285.055C238.394 285.665 238.524 286.205 238.784 286.675C239.044 287.135 239.394 287.495 239.834 287.755C240.274 288.005 240.769 288.13 241.319 288.13ZM251.533 281.05C252.173 281.05 252.733 281.175 253.213 281.425C253.703 281.665 254.083 282.035 254.353 282.535C254.633 283.035 254.773 283.665 254.773 284.425V289H253.708V284.53C253.708 283.7 253.498 283.075 253.078 282.655C252.668 282.225 252.088 282.01 251.338 282.01C250.778 282.01 250.288 282.125 249.868 282.355C249.458 282.575 249.138 282.9 248.908 283.33C248.688 283.75 248.578 284.26 248.578 284.86V289H247.513V281.125H248.533V283.285L248.368 282.88C248.618 282.31 249.018 281.865 249.568 281.545C250.118 281.215 250.773 281.05 251.533 281.05ZM261.62 285.85L261.41 278.5H262.67L262.445 285.85H261.62ZM262.04 289.075C261.82 289.075 261.63 289 261.47 288.85C261.32 288.69 261.245 288.505 261.245 288.295C261.245 288.075 261.32 287.895 261.47 287.755C261.63 287.605 261.82 287.53 262.04 287.53C262.27 287.53 262.455 287.605 262.595 287.755C262.745 287.895 262.82 288.075 262.82 288.295C262.82 288.505 262.745 288.69 262.595 288.85C262.455 289 262.27 289.075 262.04 289.075Z" fill="white"/>
</svg>
