<svg width="278" height="180" viewBox="0 0 278 180" fill="none" xmlns="http://www.w3.org/2000/svg">
<path d="M169.195 86.0151C172.434 81.3794 174.511 76.0162 174.581 70.3123C174.593 69.2901 174.535 68.5371 174.496 68.0073C173.748 58.0697 168.178 49.7899 160.58 42.8219C158.098 40.5457 154.989 38.624 152.873 36.0992C150.787 33.6042 149.171 30.753 148.1 27.683C147.514 30.4089 147.054 34.4892 148.313 39.0363C150.669 47.5547 156.462 49.1425 156.846 54.6215C157.016 57.177 155.98 60.0733 154.103 62.7497L138.907 40.9648L122.833 63.9968C121.957 62.692 121.328 61.2373 120.979 59.7053C118.487 48.3537 135.309 42.2511 138.396 26.0935C140.381 15.7641 135.788 6.32404 131.638 0C134.09 7.90334 133.726 16.667 129.853 24.0695C126.552 30.3816 121.047 35.3342 116.503 40.8507C111.49 46.9345 109.662 51.3624 109.174 56.9964C108.569 63.8878 111.034 73.965 120.263 80.0625C130.337 86.7204 143.047 85.0491 150.142 80.9467C154.185 78.6092 157.606 74.7879 158.03 74.3023C160.247 71.8023 162.077 68.9844 163.458 65.9424C163.401 67.5456 162.717 80.4015 151.434 87.5706C144.818 91.7735 137.891 91.9013 135.708 91.9149C126.698 91.9712 120.421 88.1208 118.056 86.6335C116.043 85.3626 110.386 81.6929 107.107 74.9208C104.778 70.1164 104.38 65.1741 104.257 64.0173C103.746 59.3918 104.068 56.2366 103.877 56.6063C98.8677 66.3036 99.7642 73.0093 99.7642 73.0093C99.8358 74.9906 100.311 82.7611 105.779 90.1073L84.7861 120.371L95.6243 118.959C124.358 115.221 153.456 115.221 182.19 118.959L193.028 120.371L169.195 86.0151ZM135.8 71.8746C133.92 71.6476 132.088 71.1219 130.373 70.3174L138.907 58.0953L146.786 69.3855C143.487 71.2613 139.67 72.3125 135.8 71.8763V71.8746ZM137.085 106.865C126.376 106.921 115.61 107.48 104.93 108.531L112.941 96.9834C121.463 102.832 130.816 103.004 134.605 103.072C145.644 103.272 153.563 99.1947 155.398 98.2049C157.89 96.8549 160.236 95.2512 162.398 93.4193L172.882 108.531C160.986 107.363 149.038 106.807 137.085 106.866V106.865Z" fill="url(#paint0_linear_2020_270)"/>
<path d="M14.1685 146.242H25.385L39.2007 179.487H29.8709L26.4468 170.729H12.4573L9.09115 179.487H0L14.1685 146.242ZM24.4408 165.401L19.6003 152.901H19.3634L14.523 165.401H24.4408Z" fill="url(#paint1_linear_2020_270)"/>
<path d="M60.038 179.738C58.347 179.566 56.6703 179.275 55.0204 178.867C53.2501 178.456 51.794 177.901 50.652 177.201C49.5256 176.517 48.5752 175.579 47.8773 174.461C47.1556 173.218 46.7878 171.8 46.8138 170.362V156.539C46.7915 154.978 47.1841 153.44 47.9516 152.081C48.7192 150.722 49.834 149.591 51.1821 148.804C52.6113 148.017 54.1269 147.398 55.6987 146.959C57.3855 146.46 59.1148 146.118 60.8647 145.937C62.2816 145.801 63.9933 145.732 66 145.732C71.214 145.717 76.4223 146.076 81.5848 146.807V152.852C77.0193 151.897 71.8244 151.419 66 151.418C59.3495 151.418 56.0242 153.091 56.0242 156.438V169.809C56.0242 171.448 56.9196 172.608 58.7103 173.291C60.5011 173.974 63.2065 174.314 66.8266 174.313C68.9153 174.293 70.995 174.035 73.0254 173.545V165.81H66.7686V160.585H81.8217V177.848C79.8537 178.463 77.3449 178.974 74.2952 179.382C71.5077 179.773 68.6972 179.979 65.8824 179.997C63.6792 179.999 61.7311 179.913 60.038 179.738Z" fill="url(#paint2_linear_2020_270)"/>
<path d="M93.4512 146.242H102.774L121.311 168.935V146.242H129.516V179.487H120.195L101.658 156.436V179.487H93.4512V146.242Z" fill="url(#paint3_linear_2020_270)"/>
<path d="M141.975 146.242H151.178V179.487H141.975V146.242Z" fill="url(#paint4_linear_2020_270)"/>
<path d="M172.497 151.929H160.69V146.242H193.455V151.929H181.707V179.487H172.503L172.497 151.929Z" fill="url(#paint5_linear_2020_270)"/>
<path d="M202.84 170.367V146.242H212.043V170.367C212.043 171.872 212.604 172.905 213.726 173.466C214.847 174.027 216.786 174.311 219.541 174.318C222.256 174.318 224.154 174.034 225.237 173.466C226.32 172.899 226.861 171.866 226.861 170.367V146.242H236.065V170.367C236.065 176.789 230.516 179.999 219.417 179.998C208.365 179.999 202.84 176.789 202.84 170.367Z" fill="url(#paint6_linear_2020_270)"/>
<path d="M247.234 179.078V172.982C253.924 173.87 258.489 174.314 260.93 174.315C266.043 174.315 268.6 173.17 268.6 170.882V168.73C268.6 167.639 268.236 166.802 267.507 166.221C266.779 165.639 265.472 165.349 263.587 165.35H259.1C250.677 165.35 246.466 162.447 246.467 156.641V154.182C246.467 151.279 247.864 149.145 250.658 147.778C253.452 146.412 257.879 145.73 263.94 145.734C267.087 145.734 271.083 145.955 275.925 146.398V152.341C269.982 151.727 265.888 151.42 263.645 151.419C260.536 151.419 258.451 151.641 257.388 152.085C256.252 152.565 255.681 153.316 255.676 154.339V156.695C255.676 158.436 257.368 159.308 260.753 159.309H265.355C269.722 159.309 272.89 160.008 274.858 161.408C276.826 162.807 277.811 164.942 277.814 167.812V170.015C277.814 173.975 276.18 176.656 272.914 178.058C271.25 178.799 269.492 179.308 267.69 179.569C265.411 179.883 263.113 180.028 260.813 180.003C257.148 180.001 252.622 179.693 247.234 179.078Z" fill="url(#paint7_linear_2020_270)"/>
<defs>
<linearGradient id="paint0_linear_2020_270" x1="138.633" y1="127.063" x2="142.761" y2="26.5499" gradientUnits="userSpaceOnUse">
<stop stop-color="#F04579"/>
<stop offset="1" stop-color="#FFCC00"/>
</linearGradient>
<linearGradient id="paint1_linear_2020_270" x1="-26.0787" y1="162.667" x2="305.094" y2="164.358" gradientUnits="userSpaceOnUse">
<stop stop-color="#F04579"/>
<stop offset="1" stop-color="#FFCC00"/>
</linearGradient>
<linearGradient id="paint2_linear_2020_270" x1="-26.0773" y1="162.396" x2="305.095" y2="164.086" gradientUnits="userSpaceOnUse">
<stop stop-color="#F04579"/>
<stop offset="1" stop-color="#FFCC00"/>
</linearGradient>
<linearGradient id="paint3_linear_2020_270" x1="-26.0751" y1="162.164" x2="305.097" y2="163.854" gradientUnits="userSpaceOnUse">
<stop stop-color="#F04579"/>
<stop offset="1" stop-color="#FFCC00"/>
</linearGradient>
<linearGradient id="paint4_linear_2020_270" x1="-26.0753" y1="161.985" x2="305.097" y2="163.675" gradientUnits="userSpaceOnUse">
<stop stop-color="#F04579"/>
<stop offset="1" stop-color="#FFCC00"/>
</linearGradient>
<linearGradient id="paint5_linear_2020_270" x1="-26.0736" y1="161.8" x2="305.099" y2="163.489" gradientUnits="userSpaceOnUse">
<stop stop-color="#F04579"/>
<stop offset="1" stop-color="#FFCC00"/>
</linearGradient>
<linearGradient id="paint6_linear_2020_270" x1="-26.0734" y1="161.827" x2="305.099" y2="163.517" gradientUnits="userSpaceOnUse">
<stop stop-color="#F04579"/>
<stop offset="1" stop-color="#FFCC00"/>
</linearGradient>
<linearGradient id="paint7_linear_2020_270" x1="-26.0717" y1="161.394" x2="305.101" y2="163.084" gradientUnits="userSpaceOnUse">
<stop stop-color="#F04579"/>
<stop offset="1" stop-color="#FFCC00"/>
</linearGradient>
</defs>
</svg>
