<svg width="1211" height="559" viewBox="0 0 1211 559" fill="none" xmlns="http://www.w3.org/2000/svg">
<rect x="1" y="1" width="231" height="231" rx="29" fill="black" stroke="white" stroke-width="2"/>
<path d="M68.7 126V111.8H63.1V108.5H78.35V111.8H72.75V126H68.7ZM88.4291 112.35C89.4958 112.35 90.4458 112.567 91.2791 113C92.1291 113.417 92.7958 114.067 93.2791 114.95C93.7624 115.817 94.0041 116.933 94.0041 118.3V126H90.1041V118.9C90.1041 117.817 89.8624 117.017 89.3791 116.5C88.9124 115.983 88.2458 115.725 87.3791 115.725C86.7624 115.725 86.2041 115.858 85.7041 116.125C85.2208 116.375 84.8374 116.767 84.5541 117.3C84.2874 117.833 84.1541 118.517 84.1541 119.35V126H80.2541V107.45H84.1541V116.275L83.2791 115.15C83.7624 114.25 84.4541 113.558 85.3541 113.075C86.2541 112.592 87.2791 112.35 88.4291 112.35ZM104.312 126.2C102.779 126.2 101.429 125.9 100.262 125.3C99.1119 124.7 98.2202 123.883 97.5869 122.85C96.9536 121.8 96.6369 120.608 96.6369 119.275C96.6369 117.925 96.9452 116.733 97.5619 115.7C98.1952 114.65 99.0536 113.833 100.137 113.25C101.22 112.65 102.445 112.35 103.812 112.35C105.129 112.35 106.312 112.633 107.362 113.2C108.429 113.75 109.27 114.55 109.887 115.6C110.504 116.633 110.812 117.875 110.812 119.325C110.812 119.475 110.804 119.65 110.787 119.85C110.77 120.033 110.754 120.208 110.737 120.375H99.8119V118.1H108.687L107.187 118.775C107.187 118.075 107.045 117.467 106.762 116.95C106.479 116.433 106.087 116.033 105.587 115.75C105.087 115.45 104.504 115.3 103.837 115.3C103.17 115.3 102.579 115.45 102.062 115.75C101.562 116.033 101.17 116.442 100.887 116.975C100.604 117.492 100.462 118.108 100.462 118.825V119.425C100.462 120.158 100.62 120.808 100.937 121.375C101.27 121.925 101.729 122.35 102.312 122.65C102.912 122.933 103.612 123.075 104.412 123.075C105.129 123.075 105.754 122.967 106.287 122.75C106.837 122.533 107.337 122.208 107.787 121.775L109.862 124.025C109.245 124.725 108.47 125.267 107.537 125.65C106.604 126.017 105.529 126.2 104.312 126.2ZM130.633 112.35C131.7 112.35 132.642 112.567 133.458 113C134.292 113.417 134.942 114.067 135.408 114.95C135.892 115.817 136.133 116.933 136.133 118.3V126H132.233V118.9C132.233 117.817 132.008 117.017 131.558 116.5C131.108 115.983 130.475 115.725 129.658 115.725C129.092 115.725 128.583 115.858 128.133 116.125C127.683 116.375 127.333 116.758 127.083 117.275C126.833 117.792 126.708 118.45 126.708 119.25V126H122.808V118.9C122.808 117.817 122.583 117.017 122.133 116.5C121.7 115.983 121.075 115.725 120.258 115.725C119.692 115.725 119.183 115.858 118.733 116.125C118.283 116.375 117.933 116.758 117.683 117.275C117.433 117.792 117.308 118.45 117.308 119.25V126H113.408V112.55H117.133V116.225L116.433 115.15C116.9 114.233 117.558 113.542 118.408 113.075C119.275 112.592 120.258 112.35 121.358 112.35C122.592 112.35 123.667 112.667 124.583 113.3C125.517 113.917 126.133 114.867 126.433 116.15L125.058 115.775C125.508 114.725 126.225 113.892 127.208 113.275C128.208 112.658 129.35 112.35 130.633 112.35ZM146.402 126.2C144.868 126.2 143.518 125.9 142.352 125.3C141.202 124.7 140.31 123.883 139.677 122.85C139.043 121.8 138.727 120.608 138.727 119.275C138.727 117.925 139.035 116.733 139.652 115.7C140.285 114.65 141.143 113.833 142.227 113.25C143.31 112.65 144.535 112.35 145.902 112.35C147.218 112.35 148.402 112.633 149.452 113.2C150.518 113.75 151.36 114.55 151.977 115.6C152.593 116.633 152.902 117.875 152.902 119.325C152.902 119.475 152.893 119.65 152.877 119.85C152.86 120.033 152.843 120.208 152.827 120.375H141.902V118.1H150.777L149.277 118.775C149.277 118.075 149.135 117.467 148.852 116.95C148.568 116.433 148.177 116.033 147.677 115.75C147.177 115.45 146.593 115.3 145.927 115.3C145.26 115.3 144.668 115.45 144.152 115.75C143.652 116.033 143.26 116.442 142.977 116.975C142.693 117.492 142.552 118.108 142.552 118.825V119.425C142.552 120.158 142.71 120.808 143.027 121.375C143.36 121.925 143.818 122.35 144.402 122.65C145.002 122.933 145.702 123.075 146.502 123.075C147.218 123.075 147.843 122.967 148.377 122.75C148.927 122.533 149.427 122.208 149.877 121.775L151.952 124.025C151.335 124.725 150.56 125.267 149.627 125.65C148.693 126.017 147.618 126.2 146.402 126.2ZM164.453 126V110L166.203 111.75H160.953V108.5H168.503V126H164.453Z" fill="white"/>
<rect x="327" y="1" width="231" height="231" rx="29" fill="black" stroke="white" stroke-width="2"/>
<path d="M394.7 126V111.8H389.1V108.5H404.35V111.8H398.75V126H394.7ZM414.429 112.35C415.496 112.35 416.446 112.567 417.279 113C418.129 113.417 418.796 114.067 419.279 114.95C419.762 115.817 420.004 116.933 420.004 118.3V126H416.104V118.9C416.104 117.817 415.862 117.017 415.379 116.5C414.912 115.983 414.246 115.725 413.379 115.725C412.762 115.725 412.204 115.858 411.704 116.125C411.221 116.375 410.837 116.767 410.554 117.3C410.287 117.833 410.154 118.517 410.154 119.35V126H406.254V107.45H410.154V116.275L409.279 115.15C409.762 114.25 410.454 113.558 411.354 113.075C412.254 112.592 413.279 112.35 414.429 112.35ZM430.312 126.2C428.779 126.2 427.429 125.9 426.262 125.3C425.112 124.7 424.22 123.883 423.587 122.85C422.954 121.8 422.637 120.608 422.637 119.275C422.637 117.925 422.945 116.733 423.562 115.7C424.195 114.65 425.054 113.833 426.137 113.25C427.22 112.65 428.445 112.35 429.812 112.35C431.129 112.35 432.312 112.633 433.362 113.2C434.429 113.75 435.27 114.55 435.887 115.6C436.504 116.633 436.812 117.875 436.812 119.325C436.812 119.475 436.804 119.65 436.787 119.85C436.77 120.033 436.754 120.208 436.737 120.375H425.812V118.1H434.687L433.187 118.775C433.187 118.075 433.045 117.467 432.762 116.95C432.479 116.433 432.087 116.033 431.587 115.75C431.087 115.45 430.504 115.3 429.837 115.3C429.17 115.3 428.579 115.45 428.062 115.75C427.562 116.033 427.17 116.442 426.887 116.975C426.604 117.492 426.462 118.108 426.462 118.825V119.425C426.462 120.158 426.62 120.808 426.937 121.375C427.27 121.925 427.729 122.35 428.312 122.65C428.912 122.933 429.612 123.075 430.412 123.075C431.129 123.075 431.754 122.967 432.287 122.75C432.837 122.533 433.337 122.208 433.787 121.775L435.862 124.025C435.245 124.725 434.47 125.267 433.537 125.65C432.604 126.017 431.529 126.2 430.312 126.2ZM456.633 112.35C457.7 112.35 458.642 112.567 459.458 113C460.292 113.417 460.942 114.067 461.408 114.95C461.892 115.817 462.133 116.933 462.133 118.3V126H458.233V118.9C458.233 117.817 458.008 117.017 457.558 116.5C457.108 115.983 456.475 115.725 455.658 115.725C455.092 115.725 454.583 115.858 454.133 116.125C453.683 116.375 453.333 116.758 453.083 117.275C452.833 117.792 452.708 118.45 452.708 119.25V126H448.808V118.9C448.808 117.817 448.583 117.017 448.133 116.5C447.7 115.983 447.075 115.725 446.258 115.725C445.692 115.725 445.183 115.858 444.733 116.125C444.283 116.375 443.933 116.758 443.683 117.275C443.433 117.792 443.308 118.45 443.308 119.25V126H439.408V112.55H443.133V116.225L442.433 115.15C442.9 114.233 443.558 113.542 444.408 113.075C445.275 112.592 446.258 112.35 447.358 112.35C448.592 112.35 449.667 112.667 450.583 113.3C451.517 113.917 452.133 114.867 452.433 116.15L451.058 115.775C451.508 114.725 452.225 113.892 453.208 113.275C454.208 112.658 455.35 112.35 456.633 112.35ZM472.402 126.2C470.868 126.2 469.518 125.9 468.352 125.3C467.202 124.7 466.31 123.883 465.677 122.85C465.043 121.8 464.727 120.608 464.727 119.275C464.727 117.925 465.035 116.733 465.652 115.7C466.285 114.65 467.143 113.833 468.227 113.25C469.31 112.65 470.535 112.35 471.902 112.35C473.218 112.35 474.402 112.633 475.452 113.2C476.518 113.75 477.36 114.55 477.977 115.6C478.593 116.633 478.902 117.875 478.902 119.325C478.902 119.475 478.893 119.65 478.877 119.85C478.86 120.033 478.843 120.208 478.827 120.375H467.902V118.1H476.777L475.277 118.775C475.277 118.075 475.135 117.467 474.852 116.95C474.568 116.433 474.177 116.033 473.677 115.75C473.177 115.45 472.593 115.3 471.927 115.3C471.26 115.3 470.668 115.45 470.152 115.75C469.652 116.033 469.26 116.442 468.977 116.975C468.693 117.492 468.552 118.108 468.552 118.825V119.425C468.552 120.158 468.71 120.808 469.027 121.375C469.36 121.925 469.818 122.35 470.402 122.65C471.002 122.933 471.702 123.075 472.502 123.075C473.218 123.075 473.843 122.967 474.377 122.75C474.927 122.533 475.427 122.208 475.877 121.775L477.952 124.025C477.335 124.725 476.56 125.267 475.627 125.65C474.693 126.017 473.618 126.2 472.402 126.2ZM487.603 126V123.375L494.353 117C494.887 116.517 495.278 116.083 495.528 115.7C495.778 115.317 495.945 114.967 496.028 114.65C496.128 114.333 496.178 114.042 496.178 113.775C496.178 113.075 495.937 112.542 495.453 112.175C494.987 111.792 494.295 111.6 493.378 111.6C492.645 111.6 491.962 111.742 491.328 112.025C490.712 112.308 490.187 112.75 489.753 113.35L486.803 111.45C487.47 110.45 488.403 109.658 489.603 109.075C490.803 108.492 492.187 108.2 493.753 108.2C495.053 108.2 496.187 108.417 497.153 108.85C498.137 109.267 498.895 109.858 499.428 110.625C499.978 111.392 500.253 112.308 500.253 113.375C500.253 113.942 500.178 114.508 500.028 115.075C499.895 115.625 499.612 116.208 499.178 116.825C498.762 117.442 498.145 118.133 497.328 118.9L491.728 124.175L490.953 122.7H500.828V126H487.603Z" fill="white"/>
<rect x="653" y="1" width="231" height="231" rx="29" fill="black" stroke="white" stroke-width="2"/>
<path d="M720.7 126V111.8H715.1V108.5H730.35V111.8H724.75V126H720.7ZM740.429 112.35C741.496 112.35 742.446 112.567 743.279 113C744.129 113.417 744.796 114.067 745.279 114.95C745.762 115.817 746.004 116.933 746.004 118.3V126H742.104V118.9C742.104 117.817 741.862 117.017 741.379 116.5C740.912 115.983 740.246 115.725 739.379 115.725C738.762 115.725 738.204 115.858 737.704 116.125C737.221 116.375 736.837 116.767 736.554 117.3C736.287 117.833 736.154 118.517 736.154 119.35V126H732.254V107.45H736.154V116.275L735.279 115.15C735.762 114.25 736.454 113.558 737.354 113.075C738.254 112.592 739.279 112.35 740.429 112.35ZM756.312 126.2C754.779 126.2 753.429 125.9 752.262 125.3C751.112 124.7 750.22 123.883 749.587 122.85C748.954 121.8 748.637 120.608 748.637 119.275C748.637 117.925 748.945 116.733 749.562 115.7C750.195 114.65 751.054 113.833 752.137 113.25C753.22 112.65 754.445 112.35 755.812 112.35C757.129 112.35 758.312 112.633 759.362 113.2C760.429 113.75 761.27 114.55 761.887 115.6C762.504 116.633 762.812 117.875 762.812 119.325C762.812 119.475 762.804 119.65 762.787 119.85C762.77 120.033 762.754 120.208 762.737 120.375H751.812V118.1H760.687L759.187 118.775C759.187 118.075 759.045 117.467 758.762 116.95C758.479 116.433 758.087 116.033 757.587 115.75C757.087 115.45 756.504 115.3 755.837 115.3C755.17 115.3 754.579 115.45 754.062 115.75C753.562 116.033 753.17 116.442 752.887 116.975C752.604 117.492 752.462 118.108 752.462 118.825V119.425C752.462 120.158 752.62 120.808 752.937 121.375C753.27 121.925 753.729 122.35 754.312 122.65C754.912 122.933 755.612 123.075 756.412 123.075C757.129 123.075 757.754 122.967 758.287 122.75C758.837 122.533 759.337 122.208 759.787 121.775L761.862 124.025C761.245 124.725 760.47 125.267 759.537 125.65C758.604 126.017 757.529 126.2 756.312 126.2ZM782.633 112.35C783.7 112.35 784.642 112.567 785.458 113C786.292 113.417 786.942 114.067 787.408 114.95C787.892 115.817 788.133 116.933 788.133 118.3V126H784.233V118.9C784.233 117.817 784.008 117.017 783.558 116.5C783.108 115.983 782.475 115.725 781.658 115.725C781.092 115.725 780.583 115.858 780.133 116.125C779.683 116.375 779.333 116.758 779.083 117.275C778.833 117.792 778.708 118.45 778.708 119.25V126H774.808V118.9C774.808 117.817 774.583 117.017 774.133 116.5C773.7 115.983 773.075 115.725 772.258 115.725C771.692 115.725 771.183 115.858 770.733 116.125C770.283 116.375 769.933 116.758 769.683 117.275C769.433 117.792 769.308 118.45 769.308 119.25V126H765.408V112.55H769.133V116.225L768.433 115.15C768.9 114.233 769.558 113.542 770.408 113.075C771.275 112.592 772.258 112.35 773.358 112.35C774.592 112.35 775.667 112.667 776.583 113.3C777.517 113.917 778.133 114.867 778.433 116.15L777.058 115.775C777.508 114.725 778.225 113.892 779.208 113.275C780.208 112.658 781.35 112.35 782.633 112.35ZM798.402 126.2C796.868 126.2 795.518 125.9 794.352 125.3C793.202 124.7 792.31 123.883 791.677 122.85C791.043 121.8 790.727 120.608 790.727 119.275C790.727 117.925 791.035 116.733 791.652 115.7C792.285 114.65 793.143 113.833 794.227 113.25C795.31 112.65 796.535 112.35 797.902 112.35C799.218 112.35 800.402 112.633 801.452 113.2C802.518 113.75 803.36 114.55 803.977 115.6C804.593 116.633 804.902 117.875 804.902 119.325C804.902 119.475 804.893 119.65 804.877 119.85C804.86 120.033 804.843 120.208 804.827 120.375H793.902V118.1H802.777L801.277 118.775C801.277 118.075 801.135 117.467 800.852 116.95C800.568 116.433 800.177 116.033 799.677 115.75C799.177 115.45 798.593 115.3 797.927 115.3C797.26 115.3 796.668 115.45 796.152 115.75C795.652 116.033 795.26 116.442 794.977 116.975C794.693 117.492 794.552 118.108 794.552 118.825V119.425C794.552 120.158 794.71 120.808 795.027 121.375C795.36 121.925 795.818 122.35 796.402 122.65C797.002 122.933 797.702 123.075 798.502 123.075C799.218 123.075 799.843 122.967 800.377 122.75C800.927 122.533 801.427 122.208 801.877 121.775L803.952 124.025C803.335 124.725 802.56 125.267 801.627 125.65C800.693 126.017 799.618 126.2 798.402 126.2ZM819.428 126.3C818.212 126.3 817.003 126.142 815.803 125.825C814.603 125.492 813.587 125.025 812.753 124.425L814.328 121.325C814.995 121.808 815.77 122.192 816.653 122.475C817.537 122.758 818.428 122.9 819.328 122.9C820.345 122.9 821.145 122.7 821.728 122.3C822.312 121.9 822.603 121.35 822.603 120.65C822.603 119.983 822.345 119.458 821.828 119.075C821.312 118.692 820.478 118.5 819.328 118.5H817.478V115.825L822.353 110.3L822.803 111.75H813.628V108.5H825.878V111.125L821.028 116.65L818.978 115.475H820.153C822.303 115.475 823.928 115.958 825.028 116.925C826.128 117.892 826.678 119.133 826.678 120.65C826.678 121.633 826.42 122.558 825.903 123.425C825.387 124.275 824.595 124.967 823.528 125.5C822.462 126.033 821.095 126.3 819.428 126.3Z" fill="white"/>
<rect x="979" y="1" width="231" height="231" rx="29" fill="black" stroke="white" stroke-width="2"/>
<path d="M1046.7 126V111.8H1041.1V108.5H1056.35V111.8H1050.75V126H1046.7ZM1066.43 112.35C1067.5 112.35 1068.45 112.567 1069.28 113C1070.13 113.417 1070.8 114.067 1071.28 114.95C1071.76 115.817 1072 116.933 1072 118.3V126H1068.1V118.9C1068.1 117.817 1067.86 117.017 1067.38 116.5C1066.91 115.983 1066.25 115.725 1065.38 115.725C1064.76 115.725 1064.2 115.858 1063.7 116.125C1063.22 116.375 1062.84 116.767 1062.55 117.3C1062.29 117.833 1062.15 118.517 1062.15 119.35V126H1058.25V107.45H1062.15V116.275L1061.28 115.15C1061.76 114.25 1062.45 113.558 1063.35 113.075C1064.25 112.592 1065.28 112.35 1066.43 112.35ZM1082.31 126.2C1080.78 126.2 1079.43 125.9 1078.26 125.3C1077.11 124.7 1076.22 123.883 1075.59 122.85C1074.95 121.8 1074.64 120.608 1074.64 119.275C1074.64 117.925 1074.95 116.733 1075.56 115.7C1076.2 114.65 1077.05 113.833 1078.14 113.25C1079.22 112.65 1080.45 112.35 1081.81 112.35C1083.13 112.35 1084.31 112.633 1085.36 113.2C1086.43 113.75 1087.27 114.55 1087.89 115.6C1088.5 116.633 1088.81 117.875 1088.81 119.325C1088.81 119.475 1088.8 119.65 1088.79 119.85C1088.77 120.033 1088.75 120.208 1088.74 120.375H1077.81V118.1H1086.69L1085.19 118.775C1085.19 118.075 1085.05 117.467 1084.76 116.95C1084.48 116.433 1084.09 116.033 1083.59 115.75C1083.09 115.45 1082.5 115.3 1081.84 115.3C1081.17 115.3 1080.58 115.45 1080.06 115.75C1079.56 116.033 1079.17 116.442 1078.89 116.975C1078.6 117.492 1078.46 118.108 1078.46 118.825V119.425C1078.46 120.158 1078.62 120.808 1078.94 121.375C1079.27 121.925 1079.73 122.35 1080.31 122.65C1080.91 122.933 1081.61 123.075 1082.41 123.075C1083.13 123.075 1083.75 122.967 1084.29 122.75C1084.84 122.533 1085.34 122.208 1085.79 121.775L1087.86 124.025C1087.25 124.725 1086.47 125.267 1085.54 125.65C1084.6 126.017 1083.53 126.2 1082.31 126.2ZM1108.63 112.35C1109.7 112.35 1110.64 112.567 1111.46 113C1112.29 113.417 1112.94 114.067 1113.41 114.95C1113.89 115.817 1114.13 116.933 1114.13 118.3V126H1110.23V118.9C1110.23 117.817 1110.01 117.017 1109.56 116.5C1109.11 115.983 1108.48 115.725 1107.66 115.725C1107.09 115.725 1106.58 115.858 1106.13 116.125C1105.68 116.375 1105.33 116.758 1105.08 117.275C1104.83 117.792 1104.71 118.45 1104.71 119.25V126H1100.81V118.9C1100.81 117.817 1100.58 117.017 1100.13 116.5C1099.7 115.983 1099.08 115.725 1098.26 115.725C1097.69 115.725 1097.18 115.858 1096.73 116.125C1096.28 116.375 1095.93 116.758 1095.68 117.275C1095.43 117.792 1095.31 118.45 1095.31 119.25V126H1091.41V112.55H1095.13V116.225L1094.43 115.15C1094.9 114.233 1095.56 113.542 1096.41 113.075C1097.28 112.592 1098.26 112.35 1099.36 112.35C1100.59 112.35 1101.67 112.667 1102.58 113.3C1103.52 113.917 1104.13 114.867 1104.43 116.15L1103.06 115.775C1103.51 114.725 1104.23 113.892 1105.21 113.275C1106.21 112.658 1107.35 112.35 1108.63 112.35ZM1124.4 126.2C1122.87 126.2 1121.52 125.9 1120.35 125.3C1119.2 124.7 1118.31 123.883 1117.68 122.85C1117.04 121.8 1116.73 120.608 1116.73 119.275C1116.73 117.925 1117.04 116.733 1117.65 115.7C1118.29 114.65 1119.14 113.833 1120.23 113.25C1121.31 112.65 1122.54 112.35 1123.9 112.35C1125.22 112.35 1126.4 112.633 1127.45 113.2C1128.52 113.75 1129.36 114.55 1129.98 115.6C1130.59 116.633 1130.9 117.875 1130.9 119.325C1130.9 119.475 1130.89 119.65 1130.88 119.85C1130.86 120.033 1130.84 120.208 1130.83 120.375H1119.9V118.1H1128.78L1127.28 118.775C1127.28 118.075 1127.14 117.467 1126.85 116.95C1126.57 116.433 1126.18 116.033 1125.68 115.75C1125.18 115.45 1124.59 115.3 1123.93 115.3C1123.26 115.3 1122.67 115.45 1122.15 115.75C1121.65 116.033 1121.26 116.442 1120.98 116.975C1120.69 117.492 1120.55 118.108 1120.55 118.825V119.425C1120.55 120.158 1120.71 120.808 1121.03 121.375C1121.36 121.925 1121.82 122.35 1122.4 122.65C1123 122.933 1123.7 123.075 1124.5 123.075C1125.22 123.075 1125.84 122.967 1126.38 122.75C1126.93 122.533 1127.43 122.208 1127.88 121.775L1129.95 124.025C1129.34 124.725 1128.56 125.267 1127.63 125.65C1126.69 126.017 1125.62 126.2 1124.4 126.2ZM1139.55 122.325V119.6L1147.8 108.5H1152.05L1143.98 119.6L1142 119.025H1155.78V122.325H1139.55ZM1148.98 126V122.325L1149.1 119.025V115.75H1152.93V126H1148.98Z" fill="white"/>
<rect x="816" y="327" width="231" height="231" rx="29" fill="black" stroke="white" stroke-width="2"/>
<path d="M883.7 452V437.8H878.1V434.5H893.35V437.8H887.75V452H883.7ZM903.429 438.35C904.496 438.35 905.446 438.567 906.279 439C907.129 439.417 907.796 440.067 908.279 440.95C908.762 441.817 909.004 442.933 909.004 444.3V452H905.104V444.9C905.104 443.817 904.862 443.017 904.379 442.5C903.912 441.983 903.246 441.725 902.379 441.725C901.762 441.725 901.204 441.858 900.704 442.125C900.221 442.375 899.837 442.767 899.554 443.3C899.287 443.833 899.154 444.517 899.154 445.35V452H895.254V433.45H899.154V442.275L898.279 441.15C898.762 440.25 899.454 439.558 900.354 439.075C901.254 438.592 902.279 438.35 903.429 438.35ZM919.312 452.2C917.779 452.2 916.429 451.9 915.262 451.3C914.112 450.7 913.22 449.883 912.587 448.85C911.954 447.8 911.637 446.608 911.637 445.275C911.637 443.925 911.945 442.733 912.562 441.7C913.195 440.65 914.054 439.833 915.137 439.25C916.22 438.65 917.445 438.35 918.812 438.35C920.129 438.35 921.312 438.633 922.362 439.2C923.429 439.75 924.27 440.55 924.887 441.6C925.504 442.633 925.812 443.875 925.812 445.325C925.812 445.475 925.804 445.65 925.787 445.85C925.77 446.033 925.754 446.208 925.737 446.375H914.812V444.1H923.687L922.187 444.775C922.187 444.075 922.045 443.467 921.762 442.95C921.479 442.433 921.087 442.033 920.587 441.75C920.087 441.45 919.504 441.3 918.837 441.3C918.17 441.3 917.579 441.45 917.062 441.75C916.562 442.033 916.17 442.442 915.887 442.975C915.604 443.492 915.462 444.108 915.462 444.825V445.425C915.462 446.158 915.62 446.808 915.937 447.375C916.27 447.925 916.729 448.35 917.312 448.65C917.912 448.933 918.612 449.075 919.412 449.075C920.129 449.075 920.754 448.967 921.287 448.75C921.837 448.533 922.337 448.208 922.787 447.775L924.862 450.025C924.245 450.725 923.47 451.267 922.537 451.65C921.604 452.017 920.529 452.2 919.312 452.2ZM945.633 438.35C946.7 438.35 947.642 438.567 948.458 439C949.292 439.417 949.942 440.067 950.408 440.95C950.892 441.817 951.133 442.933 951.133 444.3V452H947.233V444.9C947.233 443.817 947.008 443.017 946.558 442.5C946.108 441.983 945.475 441.725 944.658 441.725C944.092 441.725 943.583 441.858 943.133 442.125C942.683 442.375 942.333 442.758 942.083 443.275C941.833 443.792 941.708 444.45 941.708 445.25V452H937.808V444.9C937.808 443.817 937.583 443.017 937.133 442.5C936.7 441.983 936.075 441.725 935.258 441.725C934.692 441.725 934.183 441.858 933.733 442.125C933.283 442.375 932.933 442.758 932.683 443.275C932.433 443.792 932.308 444.45 932.308 445.25V452H928.408V438.55H932.133V442.225L931.433 441.15C931.9 440.233 932.558 439.542 933.408 439.075C934.275 438.592 935.258 438.35 936.358 438.35C937.592 438.35 938.667 438.667 939.583 439.3C940.517 439.917 941.133 440.867 941.433 442.15L940.058 441.775C940.508 440.725 941.225 439.892 942.208 439.275C943.208 438.658 944.35 438.35 945.633 438.35ZM961.402 452.2C959.868 452.2 958.518 451.9 957.352 451.3C956.202 450.7 955.31 449.883 954.677 448.85C954.043 447.8 953.727 446.608 953.727 445.275C953.727 443.925 954.035 442.733 954.652 441.7C955.285 440.65 956.143 439.833 957.227 439.25C958.31 438.65 959.535 438.35 960.902 438.35C962.218 438.35 963.402 438.633 964.452 439.2C965.518 439.75 966.36 440.55 966.977 441.6C967.593 442.633 967.902 443.875 967.902 445.325C967.902 445.475 967.893 445.65 967.877 445.85C967.86 446.033 967.843 446.208 967.827 446.375H956.902V444.1H965.777L964.277 444.775C964.277 444.075 964.135 443.467 963.852 442.95C963.568 442.433 963.177 442.033 962.677 441.75C962.177 441.45 961.593 441.3 960.927 441.3C960.26 441.3 959.668 441.45 959.152 441.75C958.652 442.033 958.26 442.442 957.977 442.975C957.693 443.492 957.552 444.108 957.552 444.825V445.425C957.552 446.158 957.71 446.808 958.027 447.375C958.36 447.925 958.818 448.35 959.402 448.65C960.002 448.933 960.702 449.075 961.502 449.075C962.218 449.075 962.843 448.967 963.377 448.75C963.927 448.533 964.427 448.208 964.877 447.775L966.952 450.025C966.335 450.725 965.56 451.267 964.627 451.65C963.693 452.017 962.618 452.2 961.402 452.2ZM979.553 452L986.603 436.05L987.653 437.8H978.228L980.028 435.9V440.65H976.428V434.5H990.453V437.125L983.953 452H979.553Z" fill="white"/>
<rect x="490" y="327" width="231" height="231" rx="29" fill="black" stroke="white" stroke-width="2"/>
<path d="M557.7 452V437.8H552.1V434.5H567.35V437.8H561.75V452H557.7ZM577.429 438.35C578.496 438.35 579.446 438.567 580.279 439C581.129 439.417 581.796 440.067 582.279 440.95C582.762 441.817 583.004 442.933 583.004 444.3V452H579.104V444.9C579.104 443.817 578.862 443.017 578.379 442.5C577.912 441.983 577.246 441.725 576.379 441.725C575.762 441.725 575.204 441.858 574.704 442.125C574.221 442.375 573.837 442.767 573.554 443.3C573.287 443.833 573.154 444.517 573.154 445.35V452H569.254V433.45H573.154V442.275L572.279 441.15C572.762 440.25 573.454 439.558 574.354 439.075C575.254 438.592 576.279 438.35 577.429 438.35ZM593.312 452.2C591.779 452.2 590.429 451.9 589.262 451.3C588.112 450.7 587.22 449.883 586.587 448.85C585.954 447.8 585.637 446.608 585.637 445.275C585.637 443.925 585.945 442.733 586.562 441.7C587.195 440.65 588.054 439.833 589.137 439.25C590.22 438.65 591.445 438.35 592.812 438.35C594.129 438.35 595.312 438.633 596.362 439.2C597.429 439.75 598.27 440.55 598.887 441.6C599.504 442.633 599.812 443.875 599.812 445.325C599.812 445.475 599.804 445.65 599.787 445.85C599.77 446.033 599.754 446.208 599.737 446.375H588.812V444.1H597.687L596.187 444.775C596.187 444.075 596.045 443.467 595.762 442.95C595.479 442.433 595.087 442.033 594.587 441.75C594.087 441.45 593.504 441.3 592.837 441.3C592.17 441.3 591.579 441.45 591.062 441.75C590.562 442.033 590.17 442.442 589.887 442.975C589.604 443.492 589.462 444.108 589.462 444.825V445.425C589.462 446.158 589.62 446.808 589.937 447.375C590.27 447.925 590.729 448.35 591.312 448.65C591.912 448.933 592.612 449.075 593.412 449.075C594.129 449.075 594.754 448.967 595.287 448.75C595.837 448.533 596.337 448.208 596.787 447.775L598.862 450.025C598.245 450.725 597.47 451.267 596.537 451.65C595.604 452.017 594.529 452.2 593.312 452.2ZM619.633 438.35C620.7 438.35 621.642 438.567 622.458 439C623.292 439.417 623.942 440.067 624.408 440.95C624.892 441.817 625.133 442.933 625.133 444.3V452H621.233V444.9C621.233 443.817 621.008 443.017 620.558 442.5C620.108 441.983 619.475 441.725 618.658 441.725C618.092 441.725 617.583 441.858 617.133 442.125C616.683 442.375 616.333 442.758 616.083 443.275C615.833 443.792 615.708 444.45 615.708 445.25V452H611.808V444.9C611.808 443.817 611.583 443.017 611.133 442.5C610.7 441.983 610.075 441.725 609.258 441.725C608.692 441.725 608.183 441.858 607.733 442.125C607.283 442.375 606.933 442.758 606.683 443.275C606.433 443.792 606.308 444.45 606.308 445.25V452H602.408V438.55H606.133V442.225L605.433 441.15C605.9 440.233 606.558 439.542 607.408 439.075C608.275 438.592 609.258 438.35 610.358 438.35C611.592 438.35 612.667 438.667 613.583 439.3C614.517 439.917 615.133 440.867 615.433 442.15L614.058 441.775C614.508 440.725 615.225 439.892 616.208 439.275C617.208 438.658 618.35 438.35 619.633 438.35ZM635.402 452.2C633.868 452.2 632.518 451.9 631.352 451.3C630.202 450.7 629.31 449.883 628.677 448.85C628.043 447.8 627.727 446.608 627.727 445.275C627.727 443.925 628.035 442.733 628.652 441.7C629.285 440.65 630.143 439.833 631.227 439.25C632.31 438.65 633.535 438.35 634.902 438.35C636.218 438.35 637.402 438.633 638.452 439.2C639.518 439.75 640.36 440.55 640.977 441.6C641.593 442.633 641.902 443.875 641.902 445.325C641.902 445.475 641.893 445.65 641.877 445.85C641.86 446.033 641.843 446.208 641.827 446.375H630.902V444.1H639.777L638.277 444.775C638.277 444.075 638.135 443.467 637.852 442.95C637.568 442.433 637.177 442.033 636.677 441.75C636.177 441.45 635.593 441.3 634.927 441.3C634.26 441.3 633.668 441.45 633.152 441.75C632.652 442.033 632.26 442.442 631.977 442.975C631.693 443.492 631.552 444.108 631.552 444.825V445.425C631.552 446.158 631.71 446.808 632.027 447.375C632.36 447.925 632.818 448.35 633.402 448.65C634.002 448.933 634.702 449.075 635.502 449.075C636.218 449.075 636.843 448.967 637.377 448.75C637.927 448.533 638.427 448.208 638.877 447.775L640.952 450.025C640.335 450.725 639.56 451.267 638.627 451.65C637.693 452.017 636.618 452.2 635.402 452.2ZM658.578 452.3C656.978 452.3 655.587 451.967 654.403 451.3C653.237 450.633 652.337 449.658 651.703 448.375C651.07 447.092 650.753 445.508 650.753 443.625C650.753 441.608 651.128 439.9 651.878 438.5C652.645 437.1 653.695 436.033 655.028 435.3C656.378 434.567 657.928 434.2 659.678 434.2C660.612 434.2 661.503 434.3 662.353 434.5C663.203 434.7 663.937 435 664.553 435.4L663.053 438.375C662.57 438.042 662.053 437.817 661.503 437.7C660.953 437.567 660.378 437.5 659.778 437.5C658.262 437.5 657.062 437.958 656.178 438.875C655.295 439.792 654.853 441.15 654.853 442.95C654.853 443.25 654.853 443.583 654.853 443.95C654.87 444.317 654.92 444.683 655.003 445.05L653.878 444C654.195 443.35 654.603 442.808 655.103 442.375C655.603 441.925 656.195 441.592 656.878 441.375C657.578 441.142 658.345 441.025 659.178 441.025C660.312 441.025 661.328 441.25 662.228 441.7C663.128 442.15 663.845 442.783 664.378 443.6C664.928 444.417 665.203 445.375 665.203 446.475C665.203 447.658 664.903 448.692 664.303 449.575C663.72 450.442 662.928 451.117 661.928 451.6C660.945 452.067 659.828 452.3 658.578 452.3ZM658.353 449.275C658.92 449.275 659.42 449.175 659.853 448.975C660.303 448.758 660.653 448.45 660.903 448.05C661.153 447.65 661.278 447.192 661.278 446.675C661.278 445.875 661.003 445.242 660.453 444.775C659.92 444.292 659.203 444.05 658.303 444.05C657.703 444.05 657.178 444.167 656.728 444.4C656.278 444.617 655.92 444.925 655.653 445.325C655.403 445.708 655.278 446.158 655.278 446.675C655.278 447.175 655.403 447.625 655.653 448.025C655.903 448.408 656.253 448.717 656.703 448.95C657.153 449.167 657.703 449.275 658.353 449.275Z" fill="white"/>
<rect x="164" y="327" width="231" height="231" rx="29" fill="black" stroke="white" stroke-width="2"/>
<path d="M231.7 452V437.8H226.1V434.5H241.35V437.8H235.75V452H231.7ZM251.429 438.35C252.496 438.35 253.446 438.567 254.279 439C255.129 439.417 255.796 440.067 256.279 440.95C256.762 441.817 257.004 442.933 257.004 444.3V452H253.104V444.9C253.104 443.817 252.862 443.017 252.379 442.5C251.912 441.983 251.246 441.725 250.379 441.725C249.762 441.725 249.204 441.858 248.704 442.125C248.221 442.375 247.837 442.767 247.554 443.3C247.287 443.833 247.154 444.517 247.154 445.35V452H243.254V433.45H247.154V442.275L246.279 441.15C246.762 440.25 247.454 439.558 248.354 439.075C249.254 438.592 250.279 438.35 251.429 438.35ZM267.312 452.2C265.779 452.2 264.429 451.9 263.262 451.3C262.112 450.7 261.22 449.883 260.587 448.85C259.954 447.8 259.637 446.608 259.637 445.275C259.637 443.925 259.945 442.733 260.562 441.7C261.195 440.65 262.054 439.833 263.137 439.25C264.22 438.65 265.445 438.35 266.812 438.35C268.129 438.35 269.312 438.633 270.362 439.2C271.429 439.75 272.27 440.55 272.887 441.6C273.504 442.633 273.812 443.875 273.812 445.325C273.812 445.475 273.804 445.65 273.787 445.85C273.77 446.033 273.754 446.208 273.737 446.375H262.812V444.1H271.687L270.187 444.775C270.187 444.075 270.045 443.467 269.762 442.95C269.479 442.433 269.087 442.033 268.587 441.75C268.087 441.45 267.504 441.3 266.837 441.3C266.17 441.3 265.579 441.45 265.062 441.75C264.562 442.033 264.17 442.442 263.887 442.975C263.604 443.492 263.462 444.108 263.462 444.825V445.425C263.462 446.158 263.62 446.808 263.937 447.375C264.27 447.925 264.729 448.35 265.312 448.65C265.912 448.933 266.612 449.075 267.412 449.075C268.129 449.075 268.754 448.967 269.287 448.75C269.837 448.533 270.337 448.208 270.787 447.775L272.862 450.025C272.245 450.725 271.47 451.267 270.537 451.65C269.604 452.017 268.529 452.2 267.312 452.2ZM293.633 438.35C294.7 438.35 295.642 438.567 296.458 439C297.292 439.417 297.942 440.067 298.408 440.95C298.892 441.817 299.133 442.933 299.133 444.3V452H295.233V444.9C295.233 443.817 295.008 443.017 294.558 442.5C294.108 441.983 293.475 441.725 292.658 441.725C292.092 441.725 291.583 441.858 291.133 442.125C290.683 442.375 290.333 442.758 290.083 443.275C289.833 443.792 289.708 444.45 289.708 445.25V452H285.808V444.9C285.808 443.817 285.583 443.017 285.133 442.5C284.7 441.983 284.075 441.725 283.258 441.725C282.692 441.725 282.183 441.858 281.733 442.125C281.283 442.375 280.933 442.758 280.683 443.275C280.433 443.792 280.308 444.45 280.308 445.25V452H276.408V438.55H280.133V442.225L279.433 441.15C279.9 440.233 280.558 439.542 281.408 439.075C282.275 438.592 283.258 438.35 284.358 438.35C285.592 438.35 286.667 438.667 287.583 439.3C288.517 439.917 289.133 440.867 289.433 442.15L288.058 441.775C288.508 440.725 289.225 439.892 290.208 439.275C291.208 438.658 292.35 438.35 293.633 438.35ZM309.402 452.2C307.868 452.2 306.518 451.9 305.352 451.3C304.202 450.7 303.31 449.883 302.677 448.85C302.043 447.8 301.727 446.608 301.727 445.275C301.727 443.925 302.035 442.733 302.652 441.7C303.285 440.65 304.143 439.833 305.227 439.25C306.31 438.65 307.535 438.35 308.902 438.35C310.218 438.35 311.402 438.633 312.452 439.2C313.518 439.75 314.36 440.55 314.977 441.6C315.593 442.633 315.902 443.875 315.902 445.325C315.902 445.475 315.893 445.65 315.877 445.85C315.86 446.033 315.843 446.208 315.827 446.375H304.902V444.1H313.777L312.277 444.775C312.277 444.075 312.135 443.467 311.852 442.95C311.568 442.433 311.177 442.033 310.677 441.75C310.177 441.45 309.593 441.3 308.927 441.3C308.26 441.3 307.668 441.45 307.152 441.75C306.652 442.033 306.26 442.442 305.977 442.975C305.693 443.492 305.552 444.108 305.552 444.825V445.425C305.552 446.158 305.71 446.808 306.027 447.375C306.36 447.925 306.818 448.35 307.402 448.65C308.002 448.933 308.702 449.075 309.502 449.075C310.218 449.075 310.843 448.967 311.377 448.75C311.927 448.533 312.427 448.208 312.877 447.775L314.952 450.025C314.335 450.725 313.56 451.267 312.627 451.65C311.693 452.017 310.618 452.2 309.402 452.2ZM330.703 452.3C329.487 452.3 328.278 452.142 327.078 451.825C325.895 451.492 324.878 451.025 324.028 450.425L325.628 447.325C326.295 447.808 327.062 448.192 327.928 448.475C328.812 448.758 329.703 448.9 330.603 448.9C331.62 448.9 332.42 448.7 333.003 448.3C333.587 447.9 333.878 447.342 333.878 446.625C333.878 446.175 333.762 445.775 333.528 445.425C333.295 445.075 332.878 444.808 332.278 444.625C331.695 444.442 330.87 444.35 329.803 444.35H325.328L326.228 434.5H336.903V437.75H327.678L329.778 435.9L329.153 442.925L327.053 441.075H330.753C332.487 441.075 333.878 441.317 334.928 441.8C335.995 442.267 336.77 442.908 337.253 443.725C337.737 444.542 337.978 445.467 337.978 446.5C337.978 447.533 337.72 448.492 337.203 449.375C336.687 450.242 335.887 450.95 334.803 451.5C333.737 452.033 332.37 452.3 330.703 452.3Z" fill="white"/>
<rect width="1211" height="559" rx="30" fill="#003C3C" fill-opacity="0.85"/>
<path d="M206.541 292L188.841 239.5H194.541L211.116 288.925H208.266L225.366 239.5H230.466L247.341 288.925H244.641L261.366 239.5H266.691L248.991 292H243.141L227.016 245.125H228.516L212.316 292H206.541ZM289.464 292.375C285.364 292.375 281.764 291.525 278.664 289.825C275.564 288.075 273.139 285.7 271.389 282.7C269.639 279.65 268.764 276.175 268.764 272.275C268.764 268.375 269.589 264.925 271.239 261.925C272.939 258.925 275.239 256.575 278.139 254.875C281.089 253.125 284.389 252.25 288.039 252.25C291.739 252.25 295.014 253.1 297.864 254.8C300.764 256.45 303.039 258.8 304.689 261.85C306.339 264.85 307.164 268.325 307.164 272.275C307.164 272.525 307.139 272.8 307.089 273.1C307.089 273.35 307.089 273.625 307.089 273.925H272.814V269.95H304.239L302.139 271.525C302.139 268.675 301.514 266.15 300.264 263.95C299.064 261.7 297.414 259.95 295.314 258.7C293.214 257.45 290.789 256.825 288.039 256.825C285.339 256.825 282.914 257.45 280.764 258.7C278.614 259.95 276.939 261.7 275.739 263.95C274.539 266.2 273.939 268.775 273.939 271.675V272.5C273.939 275.5 274.589 278.15 275.889 280.45C277.239 282.7 279.089 284.475 281.439 285.775C283.839 287.025 286.564 287.65 289.614 287.65C292.014 287.65 294.239 287.225 296.289 286.375C298.389 285.525 300.189 284.225 301.689 282.475L304.689 285.925C302.939 288.025 300.739 289.625 298.089 290.725C295.489 291.825 292.614 292.375 289.464 292.375ZM314.631 254.65L317.931 240.85L318.531 244C317.381 244 316.406 243.65 315.606 242.95C314.856 242.2 314.481 241.225 314.481 240.025C314.481 238.825 314.856 237.85 315.606 237.1C316.406 236.35 317.356 235.975 318.456 235.975C319.606 235.975 320.531 236.375 321.231 237.175C321.981 237.925 322.356 238.875 322.356 240.025C322.356 240.425 322.331 240.825 322.281 241.225C322.231 241.625 322.131 242.075 321.981 242.575C321.881 243.025 321.706 243.6 321.456 244.3L318.231 254.65H314.631ZM333.75 292V236.35H339.075V292H333.75ZM353.891 292V236.35H359.216V292H353.891ZM386.387 292L410.387 239.5H415.862L439.862 292H434.012L411.962 242.725H414.212L392.162 292H386.387ZM395.837 277.975L397.487 273.475H428.012L429.662 277.975H395.837ZM467.522 252.25C470.722 252.25 473.522 252.875 475.922 254.125C478.372 255.325 480.272 257.175 481.622 259.675C483.022 262.175 483.722 265.325 483.722 269.125V292H478.397V269.65C478.397 265.5 477.347 262.375 475.247 260.275C473.197 258.125 470.297 257.05 466.547 257.05C463.747 257.05 461.297 257.625 459.197 258.775C457.147 259.875 455.547 261.5 454.397 263.65C453.297 265.75 452.747 268.3 452.747 271.3V292H447.422V252.625H452.522V263.425L451.697 261.4C452.947 258.55 454.947 256.325 457.697 254.725C460.447 253.075 463.722 252.25 467.522 252.25ZM518.205 252.25C521.405 252.25 524.205 252.875 526.605 254.125C529.055 255.325 530.955 257.175 532.305 259.675C533.705 262.175 534.405 265.325 534.405 269.125V292H529.08V269.65C529.08 265.5 528.03 262.375 525.93 260.275C523.88 258.125 520.98 257.05 517.23 257.05C514.43 257.05 511.98 257.625 509.88 258.775C507.83 259.875 506.23 261.5 505.08 263.65C503.98 265.75 503.43 268.3 503.43 271.3V292H498.105V252.625H503.205V263.425L502.38 261.4C503.63 258.55 505.63 256.325 508.38 254.725C511.13 253.075 514.405 252.25 518.205 252.25ZM564.839 292.375C561.039 292.375 557.614 291.525 554.564 289.825C551.564 288.075 549.189 285.7 547.439 282.7C545.689 279.65 544.814 276.175 544.814 272.275C544.814 268.325 545.689 264.85 547.439 261.85C549.189 258.85 551.564 256.5 554.564 254.8C557.564 253.1 560.989 252.25 564.839 252.25C568.739 252.25 572.189 253.1 575.189 254.8C578.239 256.5 580.614 258.85 582.314 261.85C584.064 264.85 584.939 268.325 584.939 272.275C584.939 276.175 584.064 279.65 582.314 282.7C580.614 285.7 578.239 288.075 575.189 289.825C572.139 291.525 568.689 292.375 564.839 292.375ZM564.839 287.65C567.689 287.65 570.214 287.025 572.414 285.775C574.614 284.475 576.339 282.675 577.589 280.375C578.889 278.025 579.539 275.325 579.539 272.275C579.539 269.175 578.889 266.475 577.589 264.175C576.339 261.875 574.614 260.1 572.414 258.85C570.214 257.55 567.714 256.9 564.914 256.9C562.114 256.9 559.614 257.55 557.414 258.85C555.214 260.1 553.464 261.875 552.164 264.175C550.864 266.475 550.214 269.175 550.214 272.275C550.214 275.325 550.864 278.025 552.164 280.375C553.464 282.675 555.214 284.475 557.414 285.775C559.614 287.025 562.089 287.65 564.839 287.65ZM612.085 292.375C608.735 292.375 605.81 291.75 603.31 290.5C600.81 289.25 598.86 287.375 597.46 284.875C596.11 282.375 595.435 279.25 595.435 275.5V252.625H600.76V274.9C600.76 279.1 601.785 282.275 603.835 284.425C605.935 286.525 608.86 287.575 612.61 287.575C615.36 287.575 617.735 287.025 619.735 285.925C621.785 284.775 623.335 283.125 624.385 280.975C625.485 278.825 626.035 276.25 626.035 273.25V252.625H631.36V292H626.26V281.2L627.085 283.15C625.835 286.05 623.885 288.325 621.235 289.975C618.635 291.575 615.585 292.375 612.085 292.375ZM666.301 252.25C669.501 252.25 672.301 252.875 674.701 254.125C677.151 255.325 679.051 257.175 680.401 259.675C681.801 262.175 682.501 265.325 682.501 269.125V292H677.176V269.65C677.176 265.5 676.126 262.375 674.026 260.275C671.976 258.125 669.076 257.05 665.326 257.05C662.526 257.05 660.076 257.625 657.976 258.775C655.926 259.875 654.326 261.5 653.176 263.65C652.076 265.75 651.526 268.3 651.526 271.3V292H646.201V252.625H651.301V263.425L650.476 261.4C651.726 258.55 653.726 256.325 656.476 254.725C659.226 253.075 662.501 252.25 666.301 252.25ZM713.234 292.375C709.334 292.375 705.834 291.525 702.734 289.825C699.684 288.075 697.284 285.7 695.534 282.7C693.784 279.65 692.909 276.175 692.909 272.275C692.909 268.325 693.784 264.85 695.534 261.85C697.284 258.85 699.684 256.5 702.734 254.8C705.834 253.1 709.334 252.25 713.234 252.25C716.584 252.25 719.609 252.9 722.309 254.2C725.009 255.5 727.134 257.45 728.684 260.05L724.709 262.75C723.359 260.75 721.684 259.275 719.684 258.325C717.684 257.375 715.509 256.9 713.159 256.9C710.359 256.9 707.834 257.55 705.584 258.85C703.334 260.1 701.559 261.875 700.259 264.175C698.959 266.475 698.309 269.175 698.309 272.275C698.309 275.375 698.959 278.075 700.259 280.375C701.559 282.675 703.334 284.475 705.584 285.775C707.834 287.025 710.359 287.65 713.159 287.65C715.509 287.65 717.684 287.175 719.684 286.225C721.684 285.275 723.359 283.825 724.709 281.875L728.684 284.575C727.134 287.125 725.009 289.075 722.309 290.425C719.609 291.725 716.584 292.375 713.234 292.375ZM755.211 292.375C751.111 292.375 747.511 291.525 744.411 289.825C741.311 288.075 738.886 285.7 737.136 282.7C735.386 279.65 734.511 276.175 734.511 272.275C734.511 268.375 735.336 264.925 736.986 261.925C738.686 258.925 740.986 256.575 743.886 254.875C746.836 253.125 750.136 252.25 753.786 252.25C757.486 252.25 760.761 253.1 763.611 254.8C766.511 256.45 768.786 258.8 770.436 261.85C772.086 264.85 772.911 268.325 772.911 272.275C772.911 272.525 772.886 272.8 772.836 273.1C772.836 273.35 772.836 273.625 772.836 273.925H738.561V269.95H769.986L767.886 271.525C767.886 268.675 767.261 266.15 766.011 263.95C764.811 261.7 763.161 259.95 761.061 258.7C758.961 257.45 756.536 256.825 753.786 256.825C751.086 256.825 748.661 257.45 746.511 258.7C744.361 259.95 742.686 261.7 741.486 263.95C740.286 266.2 739.686 268.775 739.686 271.675V272.5C739.686 275.5 740.336 278.15 741.636 280.45C742.986 282.7 744.836 284.475 747.186 285.775C749.586 287.025 752.311 287.65 755.361 287.65C757.761 287.65 759.986 287.225 762.036 286.375C764.136 285.525 765.936 284.225 767.436 282.475L770.436 285.925C768.686 288.025 766.486 289.625 763.836 290.725C761.236 291.825 758.361 292.375 755.211 292.375ZM818.979 292.45C815.079 292.45 811.329 291.825 807.729 290.575C804.179 289.275 801.429 287.625 799.479 285.625L801.654 281.35C803.504 283.15 805.979 284.675 809.079 285.925C812.229 287.125 815.529 287.725 818.979 287.725C822.279 287.725 824.954 287.325 827.004 286.525C829.104 285.675 830.629 284.55 831.579 283.15C832.579 281.75 833.079 280.2 833.079 278.5C833.079 276.45 832.479 274.8 831.279 273.55C830.129 272.3 828.604 271.325 826.704 270.625C824.804 269.875 822.704 269.225 820.404 268.675C818.104 268.125 815.804 267.55 813.504 266.95C811.204 266.3 809.079 265.45 807.129 264.4C805.229 263.35 803.679 261.975 802.479 260.275C801.329 258.525 800.754 256.25 800.754 253.45C800.754 250.85 801.429 248.475 802.779 246.325C804.179 244.125 806.304 242.375 809.154 241.075C812.004 239.725 815.654 239.05 820.104 239.05C823.054 239.05 825.979 239.475 828.879 240.325C831.779 241.125 834.279 242.25 836.379 243.7L834.504 248.125C832.254 246.625 829.854 245.525 827.304 244.825C824.804 244.125 822.379 243.775 820.029 243.775C816.879 243.775 814.279 244.2 812.229 245.05C810.179 245.9 808.654 247.05 807.654 248.5C806.704 249.9 806.229 251.5 806.229 253.3C806.229 255.35 806.804 257 807.954 258.25C809.154 259.5 810.704 260.475 812.604 261.175C814.554 261.875 816.679 262.5 818.979 263.05C821.279 263.6 823.554 264.2 825.804 264.85C828.104 265.5 830.204 266.35 832.104 267.4C834.054 268.4 835.604 269.75 836.754 271.45C837.954 273.15 838.554 275.375 838.554 278.125C838.554 280.675 837.854 283.05 836.454 285.25C835.054 287.4 832.904 289.15 830.004 290.5C827.154 291.8 823.479 292.45 818.979 292.45ZM865.571 292.375C861.771 292.375 858.346 291.525 855.296 289.825C852.296 288.075 849.921 285.7 848.171 282.7C846.421 279.65 845.546 276.175 845.546 272.275C845.546 268.325 846.421 264.85 848.171 261.85C849.921 258.85 852.296 256.5 855.296 254.8C858.296 253.1 861.721 252.25 865.571 252.25C869.471 252.25 872.921 253.1 875.921 254.8C878.971 256.5 881.346 258.85 883.046 261.85C884.796 264.85 885.671 268.325 885.671 272.275C885.671 276.175 884.796 279.65 883.046 282.7C881.346 285.7 878.971 288.075 875.921 289.825C872.871 291.525 869.421 292.375 865.571 292.375ZM865.571 287.65C868.421 287.65 870.946 287.025 873.146 285.775C875.346 284.475 877.071 282.675 878.321 280.375C879.621 278.025 880.271 275.325 880.271 272.275C880.271 269.175 879.621 266.475 878.321 264.175C877.071 261.875 875.346 260.1 873.146 258.85C870.946 257.55 868.446 256.9 865.646 256.9C862.846 256.9 860.346 257.55 858.146 258.85C855.946 260.1 854.196 261.875 852.896 264.175C851.596 266.475 850.946 269.175 850.946 272.275C850.946 275.325 851.596 278.025 852.896 280.375C854.196 282.675 855.946 284.475 858.146 285.775C860.346 287.025 862.821 287.65 865.571 287.65ZM912.593 292.375C908.793 292.375 905.368 291.525 902.318 289.825C899.318 288.075 896.943 285.7 895.193 282.7C893.443 279.65 892.568 276.175 892.568 272.275C892.568 268.325 893.443 264.85 895.193 261.85C896.943 258.85 899.318 256.5 902.318 254.8C905.318 253.1 908.743 252.25 912.593 252.25C916.493 252.25 919.943 253.1 922.943 254.8C925.993 256.5 928.368 258.85 930.068 261.85C931.818 264.85 932.693 268.325 932.693 272.275C932.693 276.175 931.818 279.65 930.068 282.7C928.368 285.7 925.993 288.075 922.943 289.825C919.893 291.525 916.443 292.375 912.593 292.375ZM912.593 287.65C915.443 287.65 917.968 287.025 920.168 285.775C922.368 284.475 924.093 282.675 925.343 280.375C926.643 278.025 927.293 275.325 927.293 272.275C927.293 269.175 926.643 266.475 925.343 264.175C924.093 261.875 922.368 260.1 920.168 258.85C917.968 257.55 915.468 256.9 912.668 256.9C909.868 256.9 907.368 257.55 905.168 258.85C902.968 260.1 901.218 261.875 899.918 264.175C898.618 266.475 897.968 269.175 897.968 272.275C897.968 275.325 898.618 278.025 899.918 280.375C901.218 282.675 902.968 284.475 905.168 285.775C907.368 287.025 909.843 287.65 912.593 287.65ZM963.664 252.25C966.864 252.25 969.664 252.875 972.064 254.125C974.514 255.325 976.414 257.175 977.764 259.675C979.164 262.175 979.864 265.325 979.864 269.125V292H974.539V269.65C974.539 265.5 973.489 262.375 971.389 260.275C969.339 258.125 966.439 257.05 962.689 257.05C959.889 257.05 957.439 257.625 955.339 258.775C953.289 259.875 951.689 261.5 950.539 263.65C949.439 265.75 948.889 268.3 948.889 271.3V292H943.564V252.625H948.664V263.425L947.839 261.4C949.089 258.55 951.089 256.325 953.839 254.725C956.589 253.075 959.864 252.25 963.664 252.25ZM1014.1 276.25L1013.05 239.5H1019.35L1018.23 276.25H1014.1ZM1016.2 292.375C1015.1 292.375 1014.15 292 1013.35 291.25C1012.6 290.45 1012.23 289.525 1012.23 288.475C1012.23 287.375 1012.6 286.475 1013.35 285.775C1014.15 285.025 1015.1 284.65 1016.2 284.65C1017.35 284.65 1018.28 285.025 1018.98 285.775C1019.73 286.475 1020.1 287.375 1020.1 288.475C1020.1 289.525 1019.73 290.45 1018.98 291.25C1018.28 292 1017.35 292.375 1016.2 292.375Z" fill="white"/>
</svg>
